<svg width="90" height="90" viewBox="0 0 90 90" fill="none" xmlns="http://www.w3.org/2000/svg">
<path d="M43.4548 7.29932C55.0014 22.1495 72.5478 46.383 60.1495 76.7415C58.3866 76.7415 37.2326 87.5144 9.71278 75.4683C4.8949 69.0272 -2.17824 28.7678 8.29488 22.7728C19.0882 15.8057 29.7729 10.1289 43.4548 7.29932Z" fill="url(#paint0_linear_9123_4662)"/>
<path d="M29.0588 26.6586C35.676 18.0966 43.8184 17.3972 41.9139 7.70166C51.9734 3.60421 71.215 18.0325 79.8444 24.7143C87.0789 30.316 84.3445 34.8831 87.836 38.1236C89.1057 51.7338 73.6549 72.5118 73.6549 72.5118C73.6549 72.5118 40.4855 88.0662 11.9186 73.808C16.8385 58.7396 19.5141 39.0086 29.0588 26.6586Z" fill="url(#paint1_linear_9123_4662)"/>
<path d="M29.0587 26.6586C35.6758 18.0966 76.9412 63.8985 75.0367 54.203C81.7023 56.6334 80.185 59.8739 80.185 62.6283C76.8043 68.3961 73.6548 72.5118 73.6548 72.5118C73.6548 72.5118 40.4854 88.0662 11.9185 73.808C16.8384 58.7396 19.5139 39.0086 29.0587 26.6586Z" fill="url(#paint2_linear_9123_4662)"/>
<path d="M41.9138 7.70166C54.134 23.4183 23.0279 39.7827 11.9185 73.808C7.10065 67.3669 1.44539 30.0612 11.9185 24.0662C22.7119 17.0991 28.2318 10.5312 41.9138 7.70166Z" fill="url(#paint3_linear_9123_4662)"/>
<path d="M16.8385 30.8712C20.1713 27.6307 32.9439 16.6038 42.8661 12.5623C52.9256 8.46482 68.8473 20.1775 76.6703 25.3622C91.1264 43.6988 84.6435 50.6144 67.9414 66.8408C52.0476 82.2821 13.347 70.0812 13.347 67.1648C13.3469 51.4333 10.0141 41.8889 16.8385 30.8712Z" fill="url(#paint4_linear_9123_4662)"/>
<path d="M44.1358 12.2384C44.1358 12.2384 42.149 9.41363 41.9139 7.70166C42.8544 8.21525 45.088 10.6181 45.2467 11.9143C44.6119 12.0763 44.1358 12.2384 44.1358 12.2384Z" fill="#FEFCF9"/>
<path d="M12.8708 34.7601C13.6644 31.3576 37.2056 12.6167 45.2467 11.9146C36.8353 16.2352 18.2668 29.1541 14.4579 35.2462C11.3258 40.2559 12.8708 58.4159 13.823 67.0032C14.2163 68.9279 16.6797 69.2716 18.4255 70.0817C18.4255 70.0817 16.0449 69.7576 14.2991 68.9475C13.5056 68.2994 11.9186 73.8083 11.9186 73.8083C11.3382 72.9955 13.2704 71.0884 13.1882 66.8412C13.0083 57.5407 10.5087 44.8881 12.8708 34.7601Z" fill="white"/>
<path d="M80.1618 62.9521C80.1618 50.3102 74.7658 61.8181 67.4654 67.3269C69.2113 65.7067 75.0832 58.2536 79.8444 53.3927C84.8502 48.2821 84.6056 40.1066 84.6056 40.1066C84.6056 40.1066 84.9479 43.4927 84.6056 45.6155C83.8612 50.231 79.0509 55.4991 79.0509 55.4991C80.1821 58.4924 81.7489 58.2535 80.1618 62.9521Z" fill="#FEFCF9"/>
<path d="M41.901 28.7798C42.8534 26.3556 45.3388 26.5295 45.3388 26.5295L66.8149 58.6884L27.9346 65.0496C26.8184 65.1565 25.994 64.1748 26.4128 63.2374L41.901 28.7798Z" fill="#044F41"/>
<path d="M44.1616 27.3519C44.6032 26.3634 46.103 26.2198 46.7242 27.1064L67.4952 56.7519C68.0602 57.5583 67.4627 58.6329 66.3921 58.7355L30.8555 62.1394C29.785 62.242 28.9943 61.3004 29.396 60.4013L44.1616 27.3519Z" fill="url(#paint5_linear_9123_4662)"/>
<path d="M44.1616 27.3516C44.4692 26.5635 45.3755 26.5257 45.3755 26.5257L48.3837 60.4601L30.8555 62.1391C29.785 62.2416 28.9943 61.3 29.396 60.401L44.1616 27.3516Z" fill="url(#paint6_linear_9123_4662)" fill-opacity="0.9"/>
<path fill-rule="evenodd" clip-rule="evenodd" d="M52.5273 11.0727C59.26 13.6209 65.751 18.9639 71.6217 28.0289C72.2221 28.956 71.9206 30.1894 70.977 30.7636L67.56 32.8429C66.6164 33.4172 65.3887 33.1149 64.785 32.1899C59.6381 24.3043 54.4166 20.3416 49.6955 18.5547C44.6578 16.648 39.6797 17.0255 35.096 18.5227C30.9016 19.8927 27.1561 22.1678 24.2745 24.303L31.9633 26.239C33.0345 26.5087 33.6842 27.5956 33.4145 28.6668L32.4378 32.5457C32.1681 33.6168 31.0811 34.2665 30.01 33.9968L13.4039 29.8155C12.5151 29.5917 11.8922 28.7925 11.8922 27.8761V11.9695C11.8922 10.8649 12.7876 9.96945 13.8922 9.96945H17.8922C18.9968 9.96945 19.8922 10.8649 19.8922 11.9695V17.5957C23.1792 15.2027 27.551 12.5712 32.6122 10.9181C38.4638 9.00676 45.3754 8.3658 52.5273 11.0727Z" fill="#055E4E"/>
<path fill-rule="evenodd" clip-rule="evenodd" d="M53.5273 8.80464C60.26 11.3528 66.751 16.6958 72.6217 25.7608C73.2221 26.6879 72.9206 27.9213 71.977 28.4955L68.56 30.5749C67.6164 31.1491 66.3887 30.8469 65.785 29.9219C60.6381 22.0362 55.4166 18.0736 50.6955 16.2867C45.6578 14.38 40.6797 14.7575 36.096 16.2546C31.9016 17.6246 28.1561 19.8997 25.2745 22.0349L32.9633 23.9709C34.0345 24.2406 34.6842 25.3276 34.4145 26.3987L33.4378 30.2776C33.1681 31.3488 32.0811 31.9985 31.01 31.7288L14.4039 27.5475C13.5151 27.3237 12.8922 26.5245 12.8922 25.608V9.70139C12.8922 8.59682 13.7876 7.70139 14.8922 7.70139H18.8922C19.9968 7.70139 20.8922 8.59682 20.8922 9.70139V15.3277C24.1792 12.9346 28.551 10.3031 33.6122 8.64999C39.4638 6.73869 46.3754 6.09773 53.5273 8.80464Z" fill="#FEFCF9"/>
<defs>
<linearGradient id="paint0_linear_9123_4662" x1="28.8865" y1="13.7185" x2="21.3098" y2="73.8023" gradientUnits="userSpaceOnUse">
<stop stop-color="#077A65"/>
<stop offset="1" stop-color="#075C4D"/>
</linearGradient>
<linearGradient id="paint1_linear_9123_4662" x1="49.9144" y1="6.98145" x2="77.3744" y2="59.9033" gradientUnits="userSpaceOnUse">
<stop stop-color="#16A289"/>
<stop offset="1" stop-color="#067863"/>
</linearGradient>
<linearGradient id="paint2_linear_9123_4662" x1="73.5082" y1="57.5498" x2="46.059" y2="79.7426" gradientUnits="userSpaceOnUse">
<stop stop-color="#13AC91"/>
<stop offset="1" stop-color="#057762"/>
</linearGradient>
<linearGradient id="paint3_linear_9123_4662" x1="32.8865" y1="13.7185" x2="25.3098" y2="73.8023" gradientUnits="userSpaceOnUse">
<stop stop-color="#16A288"/>
<stop offset="1" stop-color="#108B75"/>
</linearGradient>
<linearGradient id="paint4_linear_9123_4662" x1="48.6006" y1="11.709" x2="48.6006" y2="74.4985" gradientUnits="userSpaceOnUse">
<stop stop-color="#1DC2A4"/>
<stop offset="1" stop-color="#059E82"/>
</linearGradient>
<linearGradient id="paint5_linear_9123_4662" x1="45.3755" y1="26.526" x2="48.6238" y2="60.4374" gradientUnits="userSpaceOnUse">
<stop stop-color="#83FFE8"/>
<stop offset="1" stop-color="#2EB79F"/>
</linearGradient>
<linearGradient id="paint6_linear_9123_4662" x1="35.7724" y1="27.4459" x2="39.0207" y2="61.3573" gradientUnits="userSpaceOnUse">
<stop stop-color="#E9FFFB"/>
<stop offset="1" stop-color="white" stop-opacity="0"/>
</linearGradient>
</defs>
</svg>
