<svg width="140" height="140" viewBox="0 0 140 140" fill="none" xmlns="http://www.w3.org/2000/svg">
<path fill-rule="evenodd" clip-rule="evenodd" d="M87.0147 87.0145L87.311 87.2963C92.5014 92.2341 100.917 92.2341 106.107 87.2963C111.084 82.5617 111.289 75.0057 106.72 70.0385C111.217 65.0245 110.975 57.4806 105.99 52.7382C101.203 48.184 93.6981 47.7906 88.4415 51.5583C92.209 46.3016 91.8157 38.7969 87.2614 34.0096C82.5191 29.0247 74.9752 28.7831 69.9612 33.2797C64.9939 28.7108 57.4379 28.916 52.7032 33.8928C48.011 38.8251 47.7776 46.6695 52.0033 51.8914C46.7327 47.7715 38.9336 48.0538 34.0095 52.7382C29.0246 57.4806 28.783 65.0245 33.2797 70.0385C28.7108 75.0057 28.916 82.5617 33.8928 87.2963C38.8259 91.9894 46.6723 92.222 51.8942 87.994C47.7722 93.2646 48.0538 101.065 52.739 105.99C57.4813 110.975 65.0251 111.217 70.0391 106.72C75.0064 111.289 82.5624 111.084 87.297 106.107C92.2348 100.917 92.2348 92.5016 87.297 87.3112L87.0147 87.0145Z" fill="#00B594"/>
<path opacity="0.1" fill-rule="evenodd" clip-rule="evenodd" d="M51.7868 88.08L88.7344 51.1324C92.185 45.9027 91.694 38.669 87.2614 34.0096C82.5191 29.0247 74.9752 28.7831 69.9612 33.2797C64.9939 28.7108 57.4379 28.916 52.7032 33.8928C48.011 38.8251 47.7776 46.6695 52.0033 51.8914C46.7327 47.7715 38.9336 48.0538 34.0095 52.7382C29.0246 57.4806 28.783 65.0245 33.2797 70.0385C28.7108 75.0057 28.916 82.5617 33.8928 87.2963C38.7922 91.9573 46.5652 92.2186 51.7868 88.08Z" fill="#FEFCF9"/>
<path fill-rule="evenodd" clip-rule="evenodd" d="M84.8934 84.8932C86.0444 83.7422 87.9032 83.719 89.0825 84.8409L89.3788 85.1228C93.4108 88.9586 100.007 88.9586 104.039 85.1228C107.828 81.5181 107.974 75.8332 104.512 72.0694C103.466 70.932 103.455 69.186 104.487 68.0355C107.902 64.2271 107.73 58.5337 103.922 54.9118C100.203 51.3736 94.3032 51.048 90.1891 53.9967C88.9957 54.852 87.3585 54.7179 86.3202 53.6796C85.2819 52.6413 85.1477 51.0041 86.0031 49.8106C88.9517 45.6966 88.626 39.7966 85.0878 36.0774C81.466 32.2703 75.7725 32.0977 71.9641 35.5131C70.8137 36.5448 69.0676 36.5338 67.9303 35.4877C64.1664 32.0257 58.4815 32.1714 54.8768 35.9606C51.2374 39.7861 51.0441 45.937 54.3354 50.0043C55.2949 51.1901 55.2119 52.9071 54.1424 53.9948C53.0729 55.0825 51.3575 55.1944 50.1557 54.255C46.0371 51.0356 39.9056 51.2697 36.0773 54.9118C32.2701 58.5337 32.0976 64.2271 35.5131 68.0355C36.5449 69.1859 36.5339 70.932 35.4877 72.0694C32.0257 75.8332 32.1714 81.5181 35.9605 85.1228C39.7868 88.7628 45.9392 88.9555 50.0064 85.6624C51.1922 84.7023 52.9096 84.7851 53.9975 85.8548C55.0854 86.9245 55.1972 88.6403 54.2573 89.8421C51.0362 93.9607 51.2698 100.094 54.9125 103.923C58.5344 107.73 64.2278 107.902 68.0362 104.487C69.1867 103.455 70.9326 103.466 72.07 104.512C75.8339 107.974 81.5187 107.829 85.1235 104.039C88.9593 100.007 88.9593 93.4111 85.1235 89.379L84.8412 89.0822C83.7192 87.9029 83.7424 86.0441 84.8934 84.8932ZM87.0147 87.0145L87.2969 87.3111C88.809 88.9005 89.8581 90.7923 90.4441 92.8013C91.7718 97.3529 90.7228 102.506 87.297 106.107C82.5624 111.084 75.0064 111.289 70.0391 106.72C65.0251 111.217 57.4813 110.975 52.739 105.99C49.3483 102.426 48.2639 97.3557 49.486 92.8282C49.9526 91.0996 50.7553 89.4502 51.8942 87.994C50.4562 89.1583 48.8192 89.9843 47.0988 90.4721C42.5718 91.7556 37.4675 90.697 33.8928 87.2963C28.916 82.5617 28.7108 75.0057 33.2797 70.0385C28.783 65.0245 29.0246 57.4806 34.0095 52.7382C37.5735 49.3477 42.6436 48.2633 47.171 49.4851C48.8988 49.9513 50.5475 50.7535 52.0033 51.8914C50.84 50.4539 50.0146 48.8175 49.5272 47.0979C48.244 42.5711 49.3027 37.4672 52.7032 33.8928C57.4379 28.916 64.9939 28.7108 69.9612 33.2797C74.9752 28.7831 82.5191 29.0247 87.2614 34.0096C90.6273 37.5477 91.7204 42.5702 90.5408 47.0724C90.1243 48.6619 89.4245 50.1866 88.4415 51.5583C89.8131 50.5752 91.3378 49.8754 92.9273 49.4589C97.4296 48.2792 102.452 49.3723 105.99 52.7382C110.975 57.4806 111.217 65.0245 106.72 70.0385C111.289 75.0057 111.084 82.5617 106.107 87.2963C102.506 90.7219 97.3532 91.771 92.8017 90.4435C90.7928 89.8577 88.9012 88.8089 87.3118 87.2971C87.3115 87.2969 87.3113 87.2966 87.311 87.2963L87.0147 87.0145Z" fill="#FEFCF9"/>
</svg>
