<svg width="140" height="140" viewBox="0 0 140 140" fill="none" xmlns="http://www.w3.org/2000/svg">
<path fill-rule="evenodd" clip-rule="evenodd" d="M87.0147 87.0145L87.311 87.2963C92.5014 92.2341 100.917 92.2341 106.107 87.2963C111.084 82.5617 111.289 75.0057 106.72 70.0385C111.217 65.0245 110.975 57.4806 105.99 52.7382C101.203 48.184 93.6981 47.7906 88.4415 51.5583C92.209 46.3016 91.8157 38.7969 87.2614 34.0096C82.5191 29.0247 74.9752 28.7831 69.9612 33.2797C64.9939 28.7108 57.4379 28.916 52.7032 33.8928C48.011 38.8251 47.7776 46.6695 52.0033 51.8914C46.7327 47.7715 38.9336 48.0538 34.0095 52.7382C29.0246 57.4806 28.783 65.0245 33.2797 70.0385C28.7108 75.0057 28.916 82.5617 33.8928 87.2963C38.8259 91.9894 46.6723 92.222 51.8942 87.994C47.7722 93.2646 48.0538 101.065 52.739 105.99C57.4813 110.975 65.0251 111.217 70.0391 106.72C75.0064 111.289 82.5624 111.084 87.297 106.107C92.2348 100.917 92.2348 92.5016 87.297 87.3112L87.0147 87.0145Z" fill="#00B594"/>
<g opacity="0.5">
<circle cx="94.7903" cy="53.2426" r="3" transform="rotate(45 94.7903 53.2426)" fill="black"/>
<circle cx="69.3345" cy="78.6985" r="3" transform="rotate(45 69.3345 78.6985)" fill="black"/>
<circle cx="88.4263" cy="59.6066" r="3" transform="rotate(45 88.4263 59.6066)" fill="black"/>
<circle cx="82.0623" cy="65.9706" r="3" transform="rotate(45 82.0623 65.9706)" fill="black"/>
<circle cx="75.6985" cy="72.3345" r="3" transform="rotate(45 75.6985 72.3345)" fill="black"/>
<circle cx="69.3345" cy="78.6985" r="3" transform="rotate(45 69.3345 78.6985)" fill="black"/>
<circle cx="56.6064" cy="91.4264" r="3" transform="rotate(45 56.6064 91.4264)" fill="black"/>
<path d="M49.9225 94.8075C50.3142 94.7655 50.7103 94.801 51.0883 94.912C51.4663 95.0231 51.8187 95.2075 52.1254 95.4547C52.4322 95.702 52.6872 96.0072 52.8759 96.353C53.0647 96.6988 53.1835 97.0784 53.2255 97.4701C53.2676 97.8619 53.2321 98.258 53.121 98.636C53.01 99.014 52.8256 99.3664 52.5783 99.6731C52.3311 99.9799 52.0258 100.235 51.68 100.424C51.3342 100.612 50.9546 100.731 50.5629 100.773L50.2427 97.7904L49.9225 94.8075Z" fill="black"/>
<circle cx="101.154" cy="59.6066" r="3" transform="rotate(45 101.154 59.6066)" fill="black"/>
<circle cx="94.7903" cy="65.9706" r="3" transform="rotate(45 94.7903 65.9706)" fill="black"/>
<circle cx="88.4263" cy="72.3345" r="3" transform="rotate(45 88.4263 72.3345)" fill="black"/>
<circle cx="82.0623" cy="78.6985" r="3" transform="rotate(45 82.0623 78.6985)" fill="black"/>
<circle cx="75.6985" cy="85.0624" r="3" transform="rotate(45 75.6985 85.0624)" fill="black"/>
<circle cx="69.3345" cy="91.4264" r="3" transform="rotate(45 69.3345 91.4264)" fill="black"/>
<circle cx="62.9705" cy="85.0624" r="3" transform="rotate(45 62.9705 85.0624)" fill="black"/>
<circle cx="62.9705" cy="97.7904" r="3" transform="rotate(45 62.9705 97.7904)" fill="black"/>
<circle cx="56.6064" cy="104.154" r="3" transform="rotate(45 56.6064 104.154)" fill="black"/>
<path d="M106.653 68.843C106.237 68.7176 105.853 68.5032 105.527 68.2147C105.202 67.9262 104.944 67.5704 104.769 67.172C104.595 66.7737 104.51 66.3422 104.519 65.9075C104.528 65.4729 104.632 65.0454 104.822 64.6547C105.013 64.264 105.286 63.9194 105.623 63.6448C105.96 63.3702 106.353 63.1721 106.774 63.0643C107.195 62.9565 107.635 62.9415 108.063 63.0204C108.49 63.0992 108.895 63.2701 109.25 63.5211L107.518 65.9706L106.653 68.843Z" fill="black"/>
<circle cx="101.154" cy="72.3345" r="3" transform="rotate(45 101.154 72.3345)" fill="black"/>
<circle cx="94.7903" cy="78.6985" r="3" transform="rotate(45 94.7903 78.6985)" fill="black"/>
<path d="M90.5476 87.1838C90.9184 86.8129 91.1856 86.3513 91.3224 85.845C91.4592 85.3387 91.4609 84.8054 91.3273 84.2982C91.1937 83.791 90.9295 83.3278 90.561 82.9546C90.1925 82.5814 89.7326 82.3113 89.2271 82.1713C88.7217 82.0313 88.1884 82.0262 87.6804 82.1566C87.1724 82.287 86.7075 82.5483 86.332 82.9144C85.9564 83.2806 85.6835 83.7388 85.5403 84.2433C85.3971 84.7478 85.3886 85.2811 85.5158 85.7899L88.4263 85.0624L90.5476 87.1838Z" fill="black"/>
<circle cx="82.0623" cy="91.4264" r="3" transform="rotate(45 82.0623 91.4264)" fill="black"/>
<circle cx="75.6985" cy="97.7904" r="3" transform="rotate(45 75.6985 97.7904)" fill="black"/>
<path d="M71.4558 106.276C71.8972 105.834 72.1899 105.266 72.2931 104.651C72.3964 104.035 72.3051 103.403 72.0319 102.841C71.7588 102.28 71.3174 101.818 70.7692 101.52C70.221 101.221 69.5934 101.101 68.9737 101.176C68.3541 101.251 67.7733 101.518 67.3122 101.938C66.8512 102.359 66.5328 102.913 66.4016 103.523C66.2703 104.134 66.3326 104.77 66.5799 105.343C66.8271 105.916 67.247 106.398 67.7809 106.721L69.3345 104.154L71.4558 106.276Z" fill="black"/>
<path d="M108.352 81.5802C107.878 81.7174 107.378 81.7355 106.895 81.6331C106.413 81.5307 105.963 81.3108 105.586 80.993C105.208 80.6751 104.915 80.2691 104.732 79.811C104.549 79.3528 104.482 78.8566 104.537 78.3663C104.591 77.8759 104.766 77.4067 105.045 77C105.325 76.5933 105.7 76.2618 106.138 76.0348C106.576 75.8079 107.063 75.6924 107.557 75.6987C108.05 75.705 108.534 75.8329 108.966 76.071L107.518 78.6985L108.352 81.5802Z" fill="black"/>
<circle cx="101.154" cy="85.0624" r="3" transform="rotate(45 101.154 85.0624)" fill="black"/>
<path d="M88.8734 100.757C88.4179 100.826 87.9528 100.788 87.514 100.648C87.0752 100.508 86.6745 100.269 86.3431 99.9491C86.0116 99.6293 85.7583 99.2374 85.6026 98.8039C85.447 98.3703 85.3933 97.9068 85.4457 97.4492C85.4981 96.9915 85.6552 96.5521 85.9047 96.165C86.1543 95.7778 86.4897 95.4533 86.8848 95.2167C87.28 94.98 87.7243 94.8375 88.1834 94.8002C88.6425 94.7629 89.1041 94.8319 89.5322 95.0017L88.4263 97.7904L88.8734 100.757Z" fill="black"/>
<circle cx="82.0623" cy="104.154" r="3" transform="rotate(45 82.0623 104.154)" fill="black"/>
</g>
<path opacity="0.1" fill-rule="evenodd" clip-rule="evenodd" d="M51.7868 88.08L88.7344 51.1324C92.185 45.9027 91.694 38.669 87.2614 34.0096C82.5191 29.0247 74.9752 28.7831 69.9612 33.2797C64.9939 28.7108 57.4379 28.916 52.7032 33.8928C48.011 38.8251 47.7776 46.6695 52.0033 51.8914C46.7327 47.7715 38.9336 48.0538 34.0095 52.7382C29.0246 57.4806 28.783 65.0245 33.2797 70.0385C28.7108 75.0057 28.916 82.5617 33.8928 87.2963C38.7922 91.9573 46.5652 92.2186 51.7868 88.08Z" fill="#FEFCF9"/>
<path fill-rule="evenodd" clip-rule="evenodd" d="M84.8934 84.8932C86.0444 83.7422 87.9032 83.719 89.0825 84.8409L89.3788 85.1228C93.4108 88.9586 100.007 88.9586 104.039 85.1228C107.828 81.5181 107.974 75.8332 104.512 72.0694C103.466 70.932 103.455 69.186 104.487 68.0355C107.902 64.2271 107.73 58.5337 103.922 54.9118C100.203 51.3736 94.3032 51.048 90.1891 53.9967C88.9957 54.852 87.3585 54.7179 86.3202 53.6796C85.2819 52.6413 85.1477 51.0041 86.0031 49.8106C88.9517 45.6966 88.626 39.7966 85.0878 36.0774C81.466 32.2703 75.7725 32.0977 71.9641 35.5131C70.8137 36.5448 69.0676 36.5338 67.9303 35.4877C64.1664 32.0257 58.4815 32.1714 54.8768 35.9606C51.2374 39.7861 51.0441 45.937 54.3354 50.0043C55.2949 51.1901 55.2119 52.9071 54.1424 53.9948C53.0729 55.0825 51.3575 55.1944 50.1557 54.255C46.0371 51.0356 39.9056 51.2697 36.0773 54.9118C32.2701 58.5337 32.0976 64.2271 35.5131 68.0355C36.5449 69.1859 36.5339 70.932 35.4877 72.0694C32.0257 75.8332 32.1714 81.5181 35.9605 85.1228C39.7868 88.7628 45.9392 88.9555 50.0064 85.6624C51.1922 84.7023 52.9096 84.7851 53.9975 85.8548C55.0854 86.9245 55.1972 88.6403 54.2573 89.8421C51.0362 93.9607 51.2698 100.094 54.9125 103.923C58.5344 107.73 64.2278 107.902 68.0362 104.487C69.1867 103.455 70.9326 103.466 72.07 104.512C75.8339 107.974 81.5187 107.829 85.1235 104.039C88.9593 100.007 88.9593 93.4111 85.1235 89.379L84.8412 89.0822C83.7192 87.9029 83.7424 86.0441 84.8934 84.8932ZM87.0147 87.0145L87.2969 87.3111C88.809 88.9005 89.8581 90.7923 90.4441 92.8013C91.7718 97.3529 90.7228 102.506 87.297 106.107C82.5624 111.084 75.0064 111.289 70.0391 106.72C65.0251 111.217 57.4813 110.975 52.739 105.99C49.3483 102.426 48.2639 97.3557 49.486 92.8282C49.9526 91.0996 50.7553 89.4502 51.8942 87.994C50.4562 89.1583 48.8192 89.9843 47.0988 90.4721C42.5718 91.7556 37.4675 90.697 33.8928 87.2963C28.916 82.5617 28.7108 75.0057 33.2797 70.0385C28.783 65.0245 29.0246 57.4806 34.0095 52.7382C37.5735 49.3477 42.6436 48.2633 47.171 49.4851C48.8988 49.9513 50.5475 50.7535 52.0033 51.8914C50.84 50.4539 50.0146 48.8175 49.5272 47.0979C48.244 42.5711 49.3027 37.4672 52.7032 33.8928C57.4379 28.916 64.9939 28.7108 69.9612 33.2797C74.9752 28.7831 82.5191 29.0247 87.2614 34.0096C90.6273 37.5477 91.7204 42.5702 90.5408 47.0724C90.1243 48.6619 89.4245 50.1866 88.4415 51.5583C89.8131 50.5752 91.3378 49.8754 92.9273 49.4589C97.4296 48.2792 102.452 49.3723 105.99 52.7382C110.975 57.4806 111.217 65.0245 106.72 70.0385C111.289 75.0057 111.084 82.5617 106.107 87.2963C102.506 90.7219 97.3532 91.771 92.8017 90.4435C90.7928 89.8577 88.9012 88.8089 87.3118 87.2971C87.3115 87.2969 87.3113 87.2966 87.311 87.2963L87.0147 87.0145Z" fill="#FEFCF9"/>
</svg>
