<svg width="140" height="140" viewBox="0 0 140 140" fill="none" xmlns="http://www.w3.org/2000/svg">
<path fill-rule="evenodd" clip-rule="evenodd" d="M52.985 52.9855L52.6888 52.7037C47.4984 47.7659 39.0831 47.7659 33.8928 52.7037C28.916 57.4383 28.7108 64.9943 33.2797 69.9615C28.783 74.9755 29.0246 82.5194 34.0095 87.2618C38.7968 91.816 46.3016 92.2094 51.5583 88.4417C47.7907 93.6984 48.1841 101.203 52.7384 105.99C57.4807 110.975 65.0246 111.217 70.0386 106.72C75.0058 111.289 82.5619 111.084 87.2965 106.107C91.9888 101.175 92.2221 93.3305 87.9965 88.1086C93.267 92.2285 101.066 91.9462 105.99 87.2618C110.975 82.5194 111.217 74.9755 106.72 69.9615C111.289 64.9943 111.084 57.4383 106.107 52.7037C101.174 48.0106 93.3274 47.778 88.1056 52.006C92.2276 46.7354 91.946 38.9345 87.2608 34.0096C82.5185 29.0248 74.9747 28.7831 69.9607 33.2795C64.9934 28.7108 57.4374 28.916 52.7028 33.8928C47.7649 39.0832 47.7649 47.4984 52.7028 52.6888L52.985 52.9855Z" fill="#00B594"/>
<g opacity="0.5">
<path d="M42.9299 88.3059L40.8086 90.4272L30.4835 80.1022L32.6049 77.9808L42.9299 88.3059Z" fill="black"/>
<path d="M51.0942 86.5709L48.9729 88.6922L32.6885 72.4078L34.8098 70.2864L51.0942 86.5709Z" fill="black"/>
<path d="M57.2734 82.8506L55.1521 84.9719L30.5313 60.351L32.6526 58.2297L57.2734 82.8506Z" fill="black"/>
<path d="M62.2231 77.9009L60.1018 80.0222L34.8438 54.7642L36.9651 52.6428L62.2231 77.9009Z" fill="black"/>
<path d="M67.1602 72.9385L65.0388 75.0598L41.4599 51.4809L43.5813 49.3596L67.1602 72.9385Z" fill="black"/>
<path d="M72.1482 68.0271L70.0269 70.1484L53.0655 53.187L55.1868 51.0657L72.1482 68.0271Z" fill="black"/>
<path d="M77.0598 63.0388L74.9385 65.1601L49.8589 40.0806L51.9803 37.9593L77.0598 63.0388Z" fill="black"/>
<path d="M82.0352 58.1147L79.9138 60.2361L54.0508 34.373L56.1721 32.2517L82.0352 58.1147Z" fill="black"/>
<path d="M86.9592 53.1394L84.8379 55.2607L62.2548 32.6776L64.3761 30.5562L86.9592 53.1394Z" fill="black"/>
<path d="M90.1736 46.4544L88.0523 48.5757L72.7074 33.2308L74.8287 31.1095L90.1736 46.4544Z" fill="black"/>
</g>
<path opacity="0.1" fill-rule="evenodd" clip-rule="evenodd" d="M88.2129 51.92L51.2653 88.8676C47.8147 94.0973 48.3057 101.331 52.7384 105.99C57.4807 110.975 65.0246 111.217 70.0386 106.72C75.0058 111.289 82.5619 111.084 87.2965 106.107C91.9888 101.175 92.2221 93.3305 87.9965 88.1086C93.267 92.2285 101.066 91.9462 105.99 87.2618C110.975 82.5194 111.217 74.9755 106.72 69.9615C111.289 64.9943 111.084 57.4383 106.107 52.7037C101.208 48.0427 93.4345 47.7814 88.2129 51.92Z" fill="#FEFCF9"/>
<path fill-rule="evenodd" clip-rule="evenodd" d="M55.1064 55.1068C53.9554 56.2578 52.0966 56.281 50.9173 55.1591L50.621 54.8772C46.5889 51.0414 39.9926 51.0414 35.9605 54.8772C32.1714 58.4819 32.0257 64.1668 35.4877 67.9306C36.5339 69.068 36.5449 70.814 35.5131 71.9645C32.0976 75.7729 32.2701 81.4663 36.0773 85.0882C39.7965 88.6264 45.6966 88.952 49.8106 86.0033C51.0041 85.148 52.6413 85.2821 53.6796 86.3204C54.7179 87.3587 54.8521 88.9959 53.9967 90.1894C51.0481 94.3034 51.3737 100.203 54.9119 103.923C58.5338 107.73 64.2272 107.902 68.0356 104.487C69.1861 103.455 70.9321 103.466 72.0695 104.512C75.8333 107.974 81.5182 107.829 85.123 104.039C88.7623 100.214 88.9557 94.063 85.6644 89.9957C84.7048 88.8099 84.7878 87.0929 85.8573 86.0052C86.9268 84.9175 88.6422 84.8056 89.844 85.745C93.9626 88.9644 100.094 88.7303 103.922 85.0882C107.73 81.4663 107.902 75.7729 104.487 71.9645C103.455 70.8141 103.466 69.068 104.512 67.9306C107.974 64.1668 107.828 58.4819 104.039 54.8772C100.213 51.2372 94.0605 51.0445 89.9933 54.3376C88.8076 55.2977 87.0901 55.2149 86.0022 54.1452C84.9143 53.0755 84.8025 51.3597 85.7424 50.1579C88.9635 46.0393 88.7299 39.9064 85.0872 36.0774C81.4654 32.2703 75.7719 32.0977 71.9636 35.513C70.8131 36.5447 69.0671 36.5337 67.9298 35.4876C64.1659 32.0257 58.481 32.1715 54.8763 35.9606C51.0404 39.9926 51.0404 46.5889 54.8763 50.621L55.1586 50.9178C56.2805 52.0971 56.2573 53.9559 55.1064 55.1068ZM52.985 52.9855L52.7028 52.6889C51.1908 51.0995 50.1417 49.2077 49.5557 47.1987C48.2279 42.6471 49.277 37.4938 52.7028 33.8928C57.4374 28.916 64.9934 28.7108 69.9607 33.2795C74.9747 28.7831 82.5185 29.0248 87.2608 34.0096C90.6515 37.5738 91.7358 42.6443 90.5137 47.1718C90.0472 48.9004 89.2445 50.5498 88.1056 52.006C89.5435 50.8417 91.1806 50.0157 92.9009 49.5279C97.4279 48.2444 102.532 49.303 106.107 52.7037C111.084 57.4383 111.289 64.9943 106.72 69.9615C111.217 74.9755 110.975 82.5194 105.99 87.2618C102.426 90.6523 97.3562 91.7367 92.8288 90.5149C91.101 90.0487 89.4523 89.2465 87.9965 88.1086C89.1598 89.5461 89.9852 91.1825 90.4726 92.9021C91.7557 97.4289 90.697 102.533 87.2965 106.107C82.5619 111.084 75.0058 111.289 70.0386 106.72C65.0246 111.217 57.4807 110.975 52.7384 105.99C49.3725 102.452 48.2793 97.4298 49.459 92.9276C49.8754 91.3381 50.5752 89.8134 51.5583 88.4417C50.1867 89.4248 48.662 90.1246 47.0724 90.5411C42.5702 91.7208 37.5476 90.6277 34.0095 87.2618C29.0246 82.5194 28.783 74.9755 33.2797 69.9615C28.7108 64.9943 28.916 57.4383 33.8928 52.7037C37.4936 49.2781 42.6466 48.229 47.1981 49.5565C49.2069 50.1423 51.0986 51.1911 52.6879 52.7029C52.6882 52.7031 52.6885 52.7034 52.6888 52.7037L52.985 52.9855Z" fill="#FEFCF9"/>
</svg>
