<svg width="140" height="140" viewBox="0 0 140 140" fill="none" xmlns="http://www.w3.org/2000/svg">
<path fill-rule="evenodd" clip-rule="evenodd" d="M77.265 98.9914C83.2694 104.996 93.0043 104.996 99.0086 98.9914C105.013 92.9871 105.013 83.2522 99.0086 77.2479L92.4868 70.7261C92.0858 70.3251 92.0858 69.675 92.4868 69.274L99.0086 62.7522C105.013 56.7479 105.013 47.013 99.0086 41.0086C93.0043 35.0043 83.2694 35.0043 77.2651 41.0086L70.7433 47.5305C70.3423 47.9315 69.6922 47.9315 69.2912 47.5305L62.7694 41.0087C56.765 35.0044 47.0301 35.0044 41.0258 41.0087C35.0215 47.013 35.0215 56.7479 41.0258 62.7522L47.5476 69.274C47.9486 69.675 47.9486 70.3251 47.5476 70.7261L41.0259 77.2479C35.0216 83.2522 35.0216 92.9871 41.0259 98.9914C47.0302 104.996 56.7651 104.996 62.7694 98.9914L69.2912 92.4696C69.6922 92.0687 70.3423 92.0687 70.7433 92.4696L77.265 98.9914Z" fill="#EFBF45"/>
<path opacity="0.1" fill-rule="evenodd" clip-rule="evenodd" d="M48.734 70H91.162C91.162 69.749 91.2579 69.4979 91.4498 69.3064L97.6907 63.0756C103.436 57.3392 103.436 48.0387 97.6907 42.3023C91.945 36.5659 82.6294 36.5659 76.8837 42.3023L70.6428 48.5331C70.2591 48.9162 69.6369 48.9162 69.2532 48.5331L63.0123 42.3023C57.2666 36.5659 47.951 36.5659 42.2053 42.3023C36.4596 48.0387 36.6705 57.1532 42.4162 62.8896L48.58 69.01C48.7719 69.2015 48.734 69.749 48.734 70Z" fill="#FEFCF9"/>
<path fill-rule="evenodd" clip-rule="evenodd" d="M79.3519 96.8529C84.1847 101.686 92.0201 101.686 96.8528 96.8529C101.686 92.0201 101.686 84.1847 96.8528 79.352L90.331 72.8302C88.7585 71.2576 88.7585 68.708 90.331 67.1355L96.8529 60.6136C101.686 55.7809 101.686 47.9455 96.8529 43.1127C92.0202 38.28 84.1847 38.28 79.352 43.1127L72.8302 49.6346C71.2576 51.2071 68.708 51.2071 67.1354 49.6346L60.6136 43.1127C55.7809 38.28 47.9455 38.28 43.1127 43.1127C38.28 47.9455 38.28 55.7809 43.1127 60.6136L49.6345 67.1355C51.2071 68.708 51.2071 71.2576 49.6345 72.8302L43.1128 79.3519C38.28 84.1847 38.28 92.0201 43.1128 96.8528C47.9455 101.686 55.7809 101.686 60.6137 96.8528L67.1354 90.3311C68.708 88.7585 71.2576 88.7585 72.8302 90.3311L79.3519 96.8529ZM98.9742 98.9742C92.9698 104.978 83.2349 104.978 77.2306 98.9742L70.7088 92.4524C70.3079 92.0514 69.6577 92.0514 69.2568 92.4524L62.735 98.9742C56.7307 104.978 46.9958 104.978 40.9915 98.9742C34.9872 92.9698 34.9871 83.2349 40.9915 77.2306L47.5132 70.7089C47.9142 70.3079 47.9142 69.6578 47.5132 69.2568L40.9914 62.735C34.9871 56.7306 34.9871 46.9957 40.9914 40.9914C46.9957 34.9871 56.7306 34.9871 62.7349 40.9914L69.2568 47.5132C69.6577 47.9142 70.3079 47.9142 70.7088 47.5132L77.2307 40.9914C83.235 34.9871 92.9699 34.9871 98.9742 40.9914C104.979 46.9957 104.979 56.7306 98.9742 62.7349L92.4524 69.2568C92.0514 69.6578 92.0514 70.3079 92.4524 70.7089L98.9742 77.2306C104.978 83.235 104.978 92.9699 98.9742 98.9742Z" fill="#FEFCF9"/>
</svg>
