<svg width="140" height="140" viewBox="0 0 140 140" fill="none" xmlns="http://www.w3.org/2000/svg">
<path fill-rule="evenodd" clip-rule="evenodd" d="M77.2306 98.9742C83.2349 104.978 92.9698 104.978 98.9742 98.9742C104.978 92.9699 104.978 83.235 98.9742 77.2306L92.4524 70.7089C92.0514 70.3079 92.0514 69.6578 92.4524 69.2568L98.9742 62.7349C104.979 56.7306 104.979 46.9957 98.9742 40.9914C92.9699 34.9871 83.235 34.9871 77.2307 40.9914L70.7088 47.5132C70.3079 47.9142 69.6577 47.9142 69.2568 47.5132L62.7349 40.9914C56.7306 34.9871 46.9957 34.9871 40.9914 40.9914C34.9871 46.9957 34.9871 56.7306 40.9914 62.735L47.5132 69.2568C47.9142 69.6578 47.9142 70.3079 47.5132 70.7089L40.9915 77.2306C34.9871 83.2349 34.9872 92.9698 40.9915 98.9742C46.9958 104.978 56.7307 104.978 62.735 98.9742L69.2568 92.4524C69.6577 92.0514 70.3079 92.0514 70.7088 92.4524L77.2306 98.9742Z" fill="#EFBF45"/>
<g opacity="0.5">
<circle cx="64" cy="75" r="3" transform="rotate(90 64 75)" fill="black"/>
<circle cx="91" cy="75" r="3" transform="rotate(90 91 75)" fill="black"/>
<circle cx="82" cy="75" r="3" transform="rotate(90 82 75)" fill="black"/>
<circle cx="73" cy="75" r="3" transform="rotate(90 73 75)" fill="black"/>
<circle cx="64" cy="75" r="3" transform="rotate(90 64 75)" fill="black"/>
<path d="M43.4243 76.5382C43.6629 76.9376 43.9911 77.2761 44.3829 77.5269C44.7748 77.7777 45.2196 77.9339 45.6823 77.9831C46.1449 78.0324 46.6127 77.9734 47.0486 77.8108C47.4845 77.6482 47.8766 77.3864 48.1939 77.0462C48.5112 76.7059 48.7451 76.2965 48.877 75.8504C49.0088 75.4042 49.0351 74.9335 48.9538 74.4754C48.8724 74.0173 48.6856 73.5844 48.4082 73.211C48.1307 72.8375 47.7702 72.5337 47.3551 72.3235L46 75L43.4243 76.5382Z" fill="black"/>
<path d="M102.656 85.3947C102.38 85.92 101.955 86.3518 101.434 86.6353C100.912 86.9188 100.319 87.0415 99.7279 86.9876C99.137 86.9338 98.5753 86.706 98.1139 86.333C97.6525 85.9599 97.3121 85.4584 97.1357 84.8919C96.9592 84.3254 96.9548 83.7193 97.1229 83.1503C97.2909 82.5812 97.6239 82.0748 98.0798 81.695C98.5357 81.3152 99.094 81.0792 99.684 81.0167C100.274 80.9542 100.869 81.0681 101.395 81.3439L100 84L102.656 85.3947Z" fill="black"/>
<circle cx="91" cy="84" r="3" transform="rotate(90 91 84)" fill="black"/>
<circle cx="82" cy="84" r="3" transform="rotate(90 82 84)" fill="black"/>
<circle cx="73" cy="84" r="3" transform="rotate(90 73 84)" fill="black"/>
<circle cx="64" cy="84" r="3" transform="rotate(90 64 84)" fill="black"/>
<circle cx="55" cy="84" r="3" transform="rotate(90 55 84)" fill="black"/>
<circle cx="55" cy="75" r="3" transform="rotate(90 55 75)" fill="black"/>
<circle cx="46" cy="84" r="3" transform="rotate(90 46 84)" fill="black"/>
<path d="M37 87C37.6664 87 38.3139 86.7781 38.8402 86.3693C39.3666 85.9605 39.7418 85.3881 39.9067 84.7424C40.0716 84.0967 40.0168 83.4144 39.751 82.8033C39.4851 82.1922 39.0234 81.687 38.4386 81.3674L37.8778 82.3936C38.2347 82.5886 38.5165 82.8968 38.6787 83.2698C38.8409 83.6427 38.8743 84.059 38.7737 84.453C38.6731 84.847 38.4441 85.1963 38.1229 85.4458C37.8018 85.6952 37.4067 85.8306 37 85.8306L37 87Z" fill="black"/>
<path d="M101.557 90.4356C101.184 90.2092 100.766 90.0669 100.333 90.0185C99.8991 89.9701 99.4602 90.0169 99.0466 90.1555C98.633 90.2942 98.2546 90.5213 97.9377 90.8212C97.6209 91.1211 97.3733 91.4864 97.2122 91.8918C97.051 92.2972 96.9802 92.7328 97.0047 93.1684C97.0292 93.6039 97.1484 94.0289 97.3539 94.4136C97.5595 94.7984 97.8465 95.1337 98.1949 95.3962C98.5433 95.6586 98.9448 95.842 99.3713 95.9334L100 93L101.557 90.4356Z" fill="black"/>
<circle cx="91" cy="93" r="3" transform="rotate(90 91 93)" fill="black"/>
<circle cx="82" cy="93" r="3" transform="rotate(90 82 93)" fill="black"/>
<path d="M75.1213 95.1213C75.3999 94.8427 75.6209 94.512 75.7716 94.148C75.9224 93.7841 76 93.394 76 93C76 92.606 75.9224 92.2159 75.7716 91.8519C75.6209 91.488 75.3999 91.1573 75.1213 90.8787C74.8427 90.6001 74.512 90.3791 74.148 90.2284C73.7841 90.0776 73.394 90 73 90C72.606 90 72.2159 90.0776 71.8519 90.2284C71.488 90.3791 71.1573 90.6001 70.8787 90.8787L73 93L75.1213 95.1213Z" fill="black"/>
<circle cx="64" cy="93" r="3" transform="rotate(90 64 93)" fill="black"/>
<circle cx="55" cy="93" r="3" transform="rotate(90 55 93)" fill="black"/>
<circle cx="46" cy="93" r="3" transform="rotate(90 46 93)" fill="black"/>
<path d="M38.8155 95.3883C39.2878 95.0293 39.6431 94.5382 39.8364 93.9772C40.0297 93.4162 40.0522 92.8105 39.9013 92.2367C39.7503 91.6629 39.4326 91.1467 38.9883 90.7535C38.5439 90.3602 37.993 90.1076 37.4051 90.0275L37.3209 90.6452C37.7866 90.7086 38.2231 90.9088 38.5751 91.2203C38.9271 91.5318 39.1788 91.9407 39.2984 92.3953C39.418 92.8499 39.4001 93.3297 39.247 93.7741C39.0939 94.2185 38.8124 94.6076 38.4382 94.892L38.8155 95.3883Z" fill="black"/>
<path d="M88 102C88 101.293 88.2496 100.609 88.7047 100.068C89.1598 99.5275 89.7913 99.1648 90.4877 99.0441C91.1841 98.9234 91.9008 99.0524 92.5114 99.4085C93.1219 99.7646 93.5872 100.325 93.825 100.99L91 102L88 102Z" fill="black"/>
<path d="M84.9511 102.539C85.0755 101.859 84.9608 101.156 84.6265 100.55C84.2922 99.9446 83.7587 99.473 83.1165 99.2155C82.4743 98.958 81.7628 98.9304 81.1026 99.1374C80.4424 99.3443 79.874 99.7732 79.4937 100.351L82 102L84.9511 102.539Z" fill="black"/>
<path d="M57.9594 101.508C57.8948 101.119 57.7543 100.747 57.5459 100.413C57.3375 100.079 57.0653 99.7887 56.7448 99.5596C56.4243 99.3304 56.0619 99.1667 55.6781 99.0776C55.2943 98.9886 54.8968 98.976 54.5081 99.0406C54.1195 99.1052 53.7474 99.2457 53.4131 99.4541C53.0787 99.6625 52.7887 99.9347 52.5596 100.255C52.3304 100.576 52.1667 100.938 52.0776 101.322C51.9886 101.706 51.976 102.103 52.0406 102.492L55 102L57.9594 101.508Z" fill="black"/>
<circle cx="100" cy="84" r="1" fill="black"/>
<path d="M49 102C49 101.407 48.8241 100.827 48.4944 100.333C48.1648 99.8399 47.6962 99.4554 47.1481 99.2284C46.5999 99.0013 45.9967 98.9419 45.4147 99.0576C44.8328 99.1734 44.2982 99.4591 43.8787 99.8787L46 102L49 102Z" fill="black"/>
</g>
<path opacity="0.1" fill-rule="evenodd" clip-rule="evenodd" d="M48.6996 69.9828H91.1276C91.1276 69.7317 91.2235 69.4807 91.4154 69.2892L97.6563 63.0583C103.402 57.322 103.402 48.0214 97.6563 42.285C91.9106 36.5487 82.595 36.5487 76.8493 42.285L70.6083 48.5159C70.2246 48.899 69.6025 48.899 69.2188 48.5159L62.9779 42.2851C57.2322 36.5487 47.9166 36.5487 42.1709 42.2851C36.4252 48.0215 36.6361 57.136 42.3818 62.8723L48.5456 68.9927C48.7374 69.1843 48.6996 69.7317 48.6996 69.9828Z" fill="#FEFCF9"/>
<path fill-rule="evenodd" clip-rule="evenodd" d="M79.3519 96.8529C84.1847 101.686 92.0201 101.686 96.8528 96.8529C101.686 92.0201 101.686 84.1847 96.8528 79.352L90.331 72.8302C88.7585 71.2576 88.7585 68.708 90.331 67.1355L96.8529 60.6136C101.686 55.7809 101.686 47.9455 96.8529 43.1127C92.0202 38.28 84.1847 38.28 79.352 43.1127L72.8302 49.6346C71.2576 51.2071 68.708 51.2071 67.1354 49.6346L60.6136 43.1127C55.7809 38.28 47.9455 38.28 43.1127 43.1127C38.28 47.9455 38.28 55.7809 43.1127 60.6136L49.6345 67.1355C51.2071 68.708 51.2071 71.2576 49.6345 72.8302L43.1128 79.3519C38.28 84.1847 38.28 92.0201 43.1128 96.8528C47.9455 101.686 55.7809 101.686 60.6137 96.8528L67.1354 90.3311C68.708 88.7585 71.2576 88.7585 72.8302 90.3311L79.3519 96.8529ZM98.9742 98.9742C92.9698 104.978 83.2349 104.978 77.2306 98.9742L70.7088 92.4524C70.3079 92.0514 69.6577 92.0514 69.2568 92.4524L62.735 98.9742C56.7307 104.978 46.9958 104.978 40.9915 98.9742C34.9872 92.9698 34.9871 83.2349 40.9915 77.2306L47.5132 70.7089C47.9142 70.3079 47.9142 69.6578 47.5132 69.2568L40.9914 62.735C34.9871 56.7306 34.9871 46.9957 40.9914 40.9914C46.9957 34.9871 56.7306 34.9871 62.7349 40.9914L69.2568 47.5132C69.6577 47.9142 70.3079 47.9142 70.7088 47.5132L77.2307 40.9914C83.235 34.9871 92.9699 34.9871 98.9742 40.9914C104.979 46.9957 104.979 56.7306 98.9742 62.7349L92.4524 69.2568C92.0514 69.6578 92.0514 70.3079 92.4524 70.7089L98.9742 77.2306C104.978 83.235 104.978 92.9699 98.9742 98.9742Z" fill="#FEFCF9"/>
</svg>
