<svg width="140" height="140" viewBox="0 0 140 140" fill="none" xmlns="http://www.w3.org/2000/svg">
<path fill-rule="evenodd" clip-rule="evenodd" d="M77.2306 98.9742C83.2349 104.979 92.9698 104.979 98.9742 98.9742C104.978 92.9699 104.978 83.235 98.9742 77.2307L92.4524 70.7089C92.0514 70.3079 92.0514 69.6578 92.4524 69.2568L98.9742 62.735C104.979 56.7307 104.979 46.9957 98.9742 40.9914C92.9699 34.9871 83.235 34.9871 77.2307 40.9914L70.7088 47.5133C70.3079 47.9143 69.6577 47.9143 69.2568 47.5133L62.7349 40.9915C56.7306 34.9871 46.9957 34.9871 40.9914 40.9915C34.9871 46.9958 34.9871 56.7307 40.9914 62.735L47.5132 69.2568C47.9142 69.6578 47.9142 70.3079 47.5132 70.7089L40.9915 77.2306C34.9871 83.235 34.9872 92.9699 40.9915 98.9742C46.9958 104.978 56.7307 104.978 62.735 98.9742L69.2568 92.4524C69.6577 92.0514 70.3079 92.0514 70.7088 92.4524L77.2306 98.9742Z" fill="#EFBF45"/>
<g opacity="0.5">
<path d="M64.381 94L64 97L40 97L40 94L64.381 94Z" fill="black"/>
<path d="M100 94L100 97L76 97L75.432 94H100Z" fill="black"/>
<path d="M102 87L102 90L38 90L38 87L102 87Z" fill="black"/>
<path d="M100.137 80L100.137 83L39.5 83L41.0623 80L100.137 80Z" fill="black"/>
<path d="M93.9467 73L94.3345 76L45.6335 76L46.18 73L93.9467 73Z" fill="black"/>
</g>
<path opacity="0.1" fill-rule="evenodd" clip-rule="evenodd" d="M48.734 70H91.162C91.162 69.749 91.2579 69.4979 91.4498 69.3064L97.6907 63.0756C103.436 57.3392 103.436 48.0387 97.6907 42.3023C91.945 36.5659 82.6294 36.5659 76.8837 42.3023L70.6428 48.5331C70.2591 48.9162 69.6369 48.9162 69.2532 48.5331L63.0123 42.3023C57.2666 36.5659 47.951 36.5659 42.2053 42.3023C36.4596 48.0387 36.6705 57.1532 42.4162 62.8896L48.58 69.01C48.7719 69.2015 48.734 69.749 48.734 70Z" fill="#FEFCF9"/>
<path fill-rule="evenodd" clip-rule="evenodd" d="M79.3519 96.8529C84.1847 101.686 92.0201 101.686 96.8528 96.8529C101.686 92.0202 101.686 84.1847 96.8528 79.352L90.331 72.8302C88.7585 71.2577 88.7585 68.708 90.331 67.1355L96.8529 60.6136C101.686 55.7809 101.686 47.9455 96.8529 43.1127C92.0202 38.28 84.1847 38.28 79.352 43.1127L72.8302 49.6346C71.2576 51.2071 68.708 51.2072 67.1354 49.6346L60.6136 43.1128C55.7809 38.28 47.9455 38.28 43.1127 43.1128C38.28 47.9455 38.28 55.7809 43.1127 60.6137L49.6345 67.1355C51.2071 68.708 51.2071 71.2577 49.6345 72.8302L43.1128 79.352C38.28 84.1847 38.28 92.0201 43.1128 96.8529C47.9455 101.686 55.7809 101.686 60.6137 96.8529L67.1354 90.3311C68.708 88.7585 71.2576 88.7586 72.8302 90.3311L79.3519 96.8529ZM98.9742 98.9742C92.9698 104.979 83.2349 104.979 77.2306 98.9742L70.7088 92.4524C70.3079 92.0514 69.6577 92.0514 69.2568 92.4524L62.735 98.9742C56.7307 104.978 46.9958 104.978 40.9915 98.9742C34.9872 92.9699 34.9871 83.235 40.9915 77.2306L47.5132 70.7089C47.9142 70.3079 47.9142 69.6578 47.5132 69.2568L40.9914 62.735C34.9871 56.7307 34.9871 46.9958 40.9914 40.9915C46.9957 34.9871 56.7306 34.9871 62.7349 40.9915L69.2568 47.5133C69.6577 47.9143 70.3079 47.9143 70.7088 47.5133L77.2307 40.9914C83.235 34.9871 92.9699 34.9871 98.9742 40.9914C104.979 46.9957 104.979 56.7307 98.9742 62.735L92.4524 69.2568C92.0514 69.6578 92.0514 70.3079 92.4524 70.7089L98.9742 77.2307C104.978 83.235 104.978 92.9699 98.9742 98.9742Z" fill="#FEFCF9"/>
</svg>
