<svg width="375" height="290" viewBox="0 0 375 290" fill="none" xmlns="http://www.w3.org/2000/svg">
<g clip-path="url(#clip0_344_7086)">
<path d="M18.0512 139.059L50.6465 96.9484L85.5403 80.5303L100.232 84.1002L125.023 107.655C165.428 129.067 226.532 176.401 226.532 176.401L349.982 282.555H-228.719L-72.6857 217.02L18.0512 139.059Z" fill="#0D424D"/>
<path d="M189.984 181.959L211.6 162.349L220.774 150.619L236.444 157.217L249.089 171.512C269.828 182.502 301.876 203.13 301.876 203.13L365.239 257.615H68.2112L148.298 223.978L189.984 181.959Z" fill="#154F5B"/>
<path d="M292.993 196.911L249.355 171.447L236.716 157.147L220.513 150.33L219.778 154.902L225.749 160.93L222.763 167.142L227.68 164.586L229.788 170.614L222.763 181.943L229.072 183.625L226.1 193.271L232.422 208.435L222.06 217.753L230.665 214.829L230.49 223.234L229.072 230.543L222.06 243.127L196.343 268.214L343.426 256.547L285.912 222.942L292.993 196.911Z" fill="#0D424D"/>
<path d="M275.858 186.276L304.168 157.96L334.474 146.92L347.234 149.32L368.766 165.159C403.859 179.557 456.93 211.384 456.93 211.384L564.338 294.676H312.004L61.53 282.763L197.05 238.697L275.858 186.276Z" fill="#0D424D"/>
<path d="M275.431 186.257L303.738 157.954L334.042 146.92L346.801 149.319L345.103 157.954L328.123 159.372L333.244 167.862L324.073 169.947L340.023 184.82L334.042 188.805L333.057 212.011L315.669 235.448L325.699 242.01L336.453 254.877H320.054L333.057 268.613L317.209 263.519L315.669 293.913L58.6334 282.763L196.645 238.645L275.431 186.257Z" fill="#154F5B"/>
<path d="M17.5594 139.032L50.152 96.9407L85.0428 80.5303L99.7329 84.0985L84.1243 95.8686L91.9286 107.997L79.0753 103.005L73.5648 114.775L91.9286 136.895L73.5648 123.339L83.2059 159.011L66.6789 188.619L93.7655 206.812L71.271 201.103L71.728 217.513L75.4368 231.783L63.0272 247.121L57.4915 282.555H-223.506L-73.1523 216.943L17.5594 139.032Z" fill="#154F5B"/>
<path d="M-0.274902 230.342C136.429 230.342 308.336 293.007 308.336 293.007C216.169 293.007 91.8918 293.007 -0.274902 293.007V230.342Z" fill="#063741"/>
<path d="M50.1411 292.769C50.1411 292.769 169.144 266.042 137.262 248.959C137.262 248.959 199.783 251.475 198.684 261.049C197.585 270.624 119.133 292.769 119.133 292.769H50.1411Z" fill="#12404A"/>
<path d="M8.64239 185.473L-6.07446 247.61L22.8142 250.88L16.2734 223.627L10.8227 218.177H15.7283L8.64239 185.473Z" fill="#0D424D"/>
<rect x="5.37195" y="247.065" width="6.54082" height="13.0816" fill="#0D424D"/>
<path d="M-2.80414 185.473L-17.521 247.61L11.3676 250.88L4.82682 223.627L-0.623865 218.177H4.28175L-2.80414 185.473Z" fill="#0D424D"/>
<rect x="-6.07458" y="247.065" width="6.54082" height="13.0816" fill="#0D424D"/>
<path d="M43.5267 185.473L28.8098 247.61L57.6985 250.88L51.1576 223.627L45.7069 218.177H50.6126L43.5267 185.473Z" fill="#0D424D"/>
<rect x="40.2562" y="247.065" width="6.54082" height="13.0816" fill="#0D424D"/>
<path d="M29.2722 232.41L19.0161 275.714L39.1485 277.992L34.5902 259L30.7916 255.201H34.2103L29.2722 232.41Z" fill="#175663"/>
<rect x="26.9932" y="275.334" width="4.55827" height="9.11653" fill="#175663"/>
<path d="M19.7298 237.16L9.42627 280.664L29.6517 282.953L25.0724 263.873L21.2563 260.057H24.6908L19.7298 237.16Z" fill="#175663"/>
<rect x="17.4402" y="280.282" width="4.57935" height="9.1587" fill="#175663"/>
<path d="M65.7721 208.106L54.8713 254.132L76.269 256.554L69.1301 227.984L66.5819 227.042L68.41 225.546L65.7721 208.106Z" fill="#0D424D"/>
<rect x="63.3496" y="253.729" width="4.84476" height="9.68953" fill="#0D424D"/>
<path d="M23.3671 196.918L35.8281 249.531L11.3677 252.3L17.1088 232.602L21.7239 227.987H17.5703L23.3671 196.918Z" fill="#0D424D"/>
<path d="M21.0596 249.069H26.5978V260.146L21.0596 261.236V249.069Z" fill="#0D424D"/>
<path d="M17.3635 253.143L46.2522 256.413L44.8895 249.409L39.7113 244.34L44.0719 245.648L34.2607 192.64L24.4494 229.078L30.9902 222.891L21.5878 238.017L17.3635 253.143Z" fill="#063741"/>
<path d="M28.8101 254.151H35.3509V268.323L28.8101 267.233V254.151Z" fill="#063741"/>
<path d="M-6.07446 276.813L22.8142 280.083L17.7806 256.508H13.7243L16.963 252.748L10.8227 216.31L1.01143 252.748L5.95147 253.689L-1.85018 261.687L-6.07446 276.813Z" fill="#063741"/>
<path d="M5.37207 277.821H11.9129V291.993L5.37207 290.903V277.821Z" fill="#063741"/>
<path d="M-20.2461 257.421L8.64255 260.691L7.27988 253.687L2.10172 248.618L6.46227 249.926L-3.34896 196.918L-13.1602 233.356L-6.61938 227.17L-16.0218 242.295L-20.2461 257.421Z" fill="#0A404B"/>
<path d="M-16.7031 271.732L12.1855 275.002L10.8228 267.997L5.64469 262.929L10.0052 264.237L0.194008 211.229L-9.61723 247.667L-3.07641 241.48L-12.4788 256.606L-16.7031 271.732Z" fill="#154F5B"/>
<path d="M-5.25659 272.74H1.28423V286.912L-5.25659 285.822V272.74Z" fill="#154F5B"/>
<path d="M342.086 279.988L374.268 283.631L372.75 275.829L366.982 270.182L371.84 271.639L360.91 212.588L349.98 253.18L352.646 270.182L346.792 263.138L342.086 279.988Z" fill="#154F5B"/>
<path d="M354.838 281.111H362.124V296.899L354.838 295.684V281.111Z" fill="#154F5B"/>
<path d="M42.9817 257.421L71.8703 260.691L70.5077 253.687L65.3295 248.618L69.6901 249.926L59.8788 196.918L50.0676 233.356L56.6084 227.17L47.206 242.295L42.9817 257.421Z" fill="#063741"/>
<rect x="54.4281" y="256.876" width="6.54082" height="13.0816" fill="#063741"/>
<path d="M34.668 254.9L54.8711 257.187L53.9181 252.289L50.2968 248.744L53.3463 249.659L46.4849 212.588L43.0753 224.836L38.5127 239.665L40.794 240.805L34.668 254.9Z" fill="#154F5B"/>
<path d="M42.6729 255.605H47.2471V265.516L42.6729 264.754V255.605Z" fill="#154F5B"/>
<path d="M15.2075 284.675L44.0962 287.945L42.7335 280.941L37.5553 275.872L41.9159 277.18L32.1047 224.172L22.2934 260.61L28.8342 254.423L19.4318 269.549L15.2075 284.675Z" fill="#0A404B"/>
<rect x="26.6539" y="284.13" width="6.54082" height="13.0816" fill="#0A404B"/>
<path d="M358.481 280.619L390.964 284.296L389.432 276.42L383.609 270.721L388.512 272.192L377.48 212.588L366.448 253.56L373.803 246.603L363.231 263.611L358.481 280.619Z" fill="#063741"/>
<rect x="371.352" y="280.006" width="7.35465" height="14.7093" fill="#063741"/>
<path d="M51.2395 277.954L72.7961 280.394L70.3529 267.989L66.489 264.206L69.7428 265.183L63.8481 232.807L58.8803 251.524L61.5959 250.886L58.4011 253.761L51.2395 277.954Z" fill="#0D424D"/>
<rect x="59.7808" y="277.547" width="4.88075" height="9.76149" fill="#0D424D"/>
<path d="M329.028 286.087L355.145 289.043L348.985 262.495L344.304 257.913L348.246 259.096L344.304 231.39L335.434 264.331L338.622 266.814L332.847 272.413L329.028 286.087Z" fill="#063741"/>
<rect x="339.376" y="285.595" width="5.91322" height="11.8264" fill="#063741"/>
<path d="M46.0214 226.897L58.4824 279.51L34.022 282.279L39.7631 262.582L44.3782 257.966H40.2246L46.0214 226.897Z" fill="#0D424D"/>
<path d="M43.7139 279.049H49.2521V290.125L43.7139 291.216V279.049Z" fill="#0D424D"/>
<path d="M150.508 185.167V194.858C150.508 197.236 152.436 199.165 154.815 199.165C157.194 199.165 159.122 197.236 159.122 194.858V193.627C159.122 190.569 161.601 188.089 164.66 188.089H174.351C182.762 188.089 189.58 181.271 189.58 172.86V165.286C189.58 155.897 197.191 148.286 206.58 148.286H210.113C219.502 148.286 227.113 140.674 227.113 131.286V127.752C227.113 118.363 219.502 110.752 210.113 110.752H197.271C191.324 110.752 186.503 115.573 186.503 121.52C186.503 127.467 181.682 132.288 175.735 132.288C169.788 132.288 164.967 137.109 164.967 143.055V170.707C164.967 174.7 161.731 177.937 157.738 177.937C153.745 177.937 150.508 181.174 150.508 185.167Z" fill="#063741"/>
<path d="M123.643 201.318H169.931L138.777 260.767H92.488L123.643 201.318Z" fill="#154F5B"/>
<path d="M106.112 216.865H140.295L117.288 260.767H83.105L106.112 216.865Z" fill="#154F5B"/>
<path d="M143.14 260.756L167.279 214.449L169.414 210.18L195.523 260.756H143.14Z" fill="#154F5B"/>
<path fill-rule="evenodd" clip-rule="evenodd" d="M169.657 200.945L200.11 260.725H191.831L169.555 216.295L157.142 240.127L146.413 260.725H138.52L169.657 200.945Z" fill="#063741"/>
<rect x="147.544" y="195.272" width="13.4616" height="6.04582" fill="#154F5B"/>
<rect x="155.563" y="235.304" width="28.7365" height="2.62711" fill="#063741"/>
<rect x="165.988" y="246.973" width="7.8875" height="13.7533" fill="#063741"/>
</g>
<defs>
<clipPath id="clip0_344_7086">
<rect width="375" height="290" fill="white"/>
</clipPath>
</defs>
</svg>
