<svg width="341" height="700" viewBox="0 0 341 700" fill="none" xmlns="http://www.w3.org/2000/svg">
<g opacity="0.5">
<path fill-rule="evenodd" clip-rule="evenodd" d="M324.295 0.646871C326.726 1.16297 328.278 3.55215 327.762 5.98325L320.032 42.3967C319.516 44.8278 317.127 46.3802 314.695 45.8641C312.264 45.348 310.712 42.9588 311.228 40.5277L318.958 4.11429C319.474 1.68319 321.864 0.130771 324.295 0.646871Z" fill="#0A404B"/>
<path fill-rule="evenodd" clip-rule="evenodd" d="M324.814 67.8687C327.233 68.4404 328.73 70.8645 328.158 73.2832L319.585 109.556C319.013 111.975 316.589 113.472 314.17 112.9C311.751 112.329 310.254 109.905 310.826 107.486L319.399 71.2129C319.971 68.7943 322.395 67.297 324.814 67.8687Z" fill="#0A404B"/>
<path fill-rule="evenodd" clip-rule="evenodd" d="M325.428 135.1C327.83 135.737 329.261 138.201 328.625 140.603L319.067 176.665C318.43 179.068 315.967 180.499 313.565 179.862C311.162 179.226 309.731 176.762 310.368 174.36L319.925 138.298C320.562 135.895 323.025 134.464 325.428 135.1Z" fill="#0A404B"/>
<path fill-rule="evenodd" clip-rule="evenodd" d="M326.216 202.489C328.594 203.211 329.936 205.725 329.214 208.103L318.392 243.743C317.67 246.121 315.157 247.463 312.779 246.741C310.401 246.019 309.058 243.506 309.78 241.128L320.603 205.488C321.325 203.11 323.838 201.767 326.216 202.489Z" fill="#0A404B"/>
<path fill-rule="evenodd" clip-rule="evenodd" d="M327.171 269.895C329.516 270.72 330.748 273.289 329.923 275.634L317.554 310.782C316.729 313.126 314.16 314.358 311.816 313.533C309.471 312.708 308.239 310.139 309.064 307.794L321.433 272.646C322.258 270.302 324.827 269.07 327.171 269.895Z" fill="#0A404B"/>
<path fill-rule="evenodd" clip-rule="evenodd" d="M328.482 337.552C330.772 338.518 331.845 341.157 330.878 343.447L316.402 377.752C315.435 380.041 312.796 381.114 310.506 380.148C308.216 379.182 307.144 376.542 308.11 374.253L322.587 339.948C323.553 337.658 326.192 336.585 328.482 337.552Z" fill="#0A404B"/>
<path opacity="0.7" fill-rule="evenodd" clip-rule="evenodd" d="M330.223 405.473C332.425 406.625 333.276 409.344 332.124 411.546L314.836 444.586C313.684 446.788 310.965 447.639 308.763 446.487C306.561 445.334 305.71 442.615 306.862 440.413L324.15 407.374C325.302 405.172 328.021 404.321 330.223 405.473Z" fill="#0A404B"/>
<path opacity="0.5" fill-rule="evenodd" clip-rule="evenodd" d="M332.675 474.092C334.717 475.509 335.224 478.313 333.807 480.354L312.583 510.933C311.166 512.975 308.362 513.481 306.321 512.064C304.279 510.647 303.773 507.843 305.19 505.802L326.413 475.223C327.83 473.181 330.634 472.675 332.675 474.092Z" fill="#0A404B"/>
<path opacity="0.3" fill-rule="evenodd" clip-rule="evenodd" d="M336.076 544.105C337.808 545.888 337.766 548.736 335.984 550.468L309.279 576.408C307.496 578.139 304.648 578.098 302.916 576.315C301.184 574.532 301.226 571.683 303.008 569.952L329.713 544.012C331.496 542.281 334.345 542.322 336.076 544.105Z" fill="#0A404B"/>
<path opacity="0.2" fill-rule="evenodd" clip-rule="evenodd" d="M340.168 616.914C341.289 619.132 340.399 621.839 338.181 622.96L304.941 639.761C302.723 640.882 300.016 639.993 298.895 637.775C297.774 635.557 298.663 632.85 300.881 631.729L334.121 614.928C336.34 613.807 339.046 614.696 340.168 616.914Z" fill="#0A404B"/>
<path opacity="0.1" fill-rule="evenodd" clip-rule="evenodd" d="M340 695.5C340 697.985 337.985 700 335.5 700L299.5 700C297.015 700 295 697.985 295 695.5C295 693.015 297.015 691 299.5 691L335.5 691C337.985 691 340 693.015 340 695.5Z" fill="#0A404B"/>
<path fill-rule="evenodd" clip-rule="evenodd" d="M247.358 0.21811C249.831 0.471366 251.63 2.6809 251.376 5.15325L247.582 42.1995C247.328 44.6719 245.119 46.4708 242.646 46.2175C240.174 45.9643 238.375 43.7547 238.628 41.2824L242.423 4.23612C242.676 1.76378 244.886 -0.0351466 247.358 0.21811Z" fill="#0A404B"/>
<path fill-rule="evenodd" clip-rule="evenodd" d="M247.623 67.3564C250.093 67.6375 251.867 69.8671 251.586 72.3365L247.369 109.383C247.088 111.852 244.858 113.626 242.389 113.345C239.92 113.064 238.146 110.834 238.427 108.365L242.643 71.3187C242.925 68.8493 245.154 67.0754 247.623 67.3564Z" fill="#0A404B"/>
<path fill-rule="evenodd" clip-rule="evenodd" d="M247.96 134.566C250.425 134.88 252.169 137.134 251.854 139.599L247.146 176.505C246.831 178.97 244.578 180.714 242.112 180.399C239.647 180.085 237.903 177.831 238.218 175.366L242.926 138.46C243.241 135.995 245.494 134.251 247.96 134.566Z" fill="#0A404B"/>
<path fill-rule="evenodd" clip-rule="evenodd" d="M248.396 201.712C250.855 202.073 252.556 204.358 252.196 206.817L246.785 243.723C246.424 246.182 244.138 247.883 241.679 247.523C239.22 247.162 237.519 244.876 237.88 242.417L243.291 205.512C243.651 203.053 245.937 201.352 248.396 201.712Z" fill="#0A404B"/>
<path fill-rule="evenodd" clip-rule="evenodd" d="M248.921 268.927C251.371 269.345 253.019 271.669 252.601 274.119L246.347 310.814C245.929 313.264 243.604 314.911 241.155 314.494C238.705 314.076 237.057 311.752 237.475 309.302L243.729 272.607C244.147 270.157 246.471 268.509 248.921 268.927Z" fill="#0A404B"/>
<path fill-rule="evenodd" clip-rule="evenodd" d="M249.616 336.237C252.052 336.729 253.627 339.104 253.134 341.54L245.756 378.023C245.263 380.459 242.889 382.035 240.453 381.542C238.017 381.049 236.441 378.675 236.934 376.239L244.313 339.755C244.806 337.319 247.18 335.744 249.616 336.237Z" fill="#0A404B"/>
<path opacity="0.7" fill-rule="evenodd" clip-rule="evenodd" d="M250.679 403.551C253.088 404.161 254.548 406.608 253.939 409.017L244.803 445.149C244.194 447.559 241.746 449.018 239.337 448.409C236.928 447.8 235.468 445.353 236.077 442.943L245.213 406.811C245.822 404.402 248.27 402.942 250.679 403.551Z" fill="#0A404B"/>
<path opacity="0.5" fill-rule="evenodd" clip-rule="evenodd" d="M252.337 471.202C254.694 471.991 255.965 474.541 255.176 476.898L243.37 512.187C242.582 514.543 240.032 515.815 237.675 515.026C235.318 514.238 234.047 511.688 234.835 509.331L246.641 474.042C247.43 471.685 249.98 470.414 252.337 471.202Z" fill="#0A404B"/>
<path opacity="0.3" fill-rule="evenodd" clip-rule="evenodd" d="M255.289 539.486C257.517 540.588 258.429 543.287 257.328 545.515L240.813 578.905C239.711 581.133 237.012 582.046 234.784 580.944C232.557 579.842 231.644 577.143 232.746 574.915L249.26 541.525C250.362 539.297 253.061 538.384 255.289 539.486Z" fill="#0A404B"/>
<path opacity="0.2" fill-rule="evenodd" clip-rule="evenodd" d="M260.97 610.63C262.767 612.347 262.832 615.195 261.116 616.992L235.395 643.916C233.678 645.713 230.83 645.778 229.033 644.061C227.236 642.344 227.17 639.496 228.887 637.699L254.608 610.775C256.325 608.978 259.173 608.913 260.97 610.63Z" fill="#0A404B"/>
<path opacity="0.1" fill-rule="evenodd" clip-rule="evenodd" d="M266 695.5C266 697.985 263.985 700 261.5 700L225.5 700C223.015 700 221 697.985 221 695.5C221 693.015 223.015 691 225.5 691L261.5 691C263.985 691 266 693.015 266 695.5Z" fill="#0A404B"/>
<path fill-rule="evenodd" clip-rule="evenodd" d="M170.5 2.8112e-06C172.985 3.36542e-06 175 2.01472 175 4.5L175 40.5C175 42.9853 172.985 45 170.5 45C168.015 45 166 42.9853 166 40.5L166 4.5C166 2.01472 168.015 2.25698e-06 170.5 2.8112e-06Z" fill="#0A404B"/>
<path fill-rule="evenodd" clip-rule="evenodd" d="M166 107.5L166 71.5C166 69.0147 168.015 67 170.5 67C172.985 67 175 69.0147 175 71.5L175 107.5C175 109.985 172.985 112 170.5 112C168.015 112 166 109.985 166 107.5Z" fill="#0A404B"/>
<path fill-rule="evenodd" clip-rule="evenodd" d="M166 174.5L166 138.5C166 136.015 168.015 134 170.5 134C172.985 134 175 136.015 175 138.5L175 174.5C175 176.985 172.985 179 170.5 179C168.015 179 166 176.985 166 174.5Z" fill="#0A404B"/>
<path fill-rule="evenodd" clip-rule="evenodd" d="M166 241.5L166 205.5C166 203.015 168.015 201 170.5 201C172.985 201 175 203.015 175 205.5L175 241.5C175 243.985 172.985 246 170.5 246C168.015 246 166 243.985 166 241.5Z" fill="#0A404B"/>
<path fill-rule="evenodd" clip-rule="evenodd" d="M170.5 268C172.985 268 175 270.015 175 272.5L175 308.5C175 310.985 172.985 313 170.5 313C168.015 313 166 310.985 166 308.5L166 272.5C166 270.015 168.015 268 170.5 268Z" fill="#0A404B"/>
<path fill-rule="evenodd" clip-rule="evenodd" d="M166 375.5L166 339.5C166 337.015 168.015 335 170.5 335C172.985 335 175 337.015 175 339.5L175 375.5C175 377.985 172.985 380 170.5 380C168.015 380 166 377.985 166 375.5Z" fill="#0A404B"/>
<path opacity="0.7" fill-rule="evenodd" clip-rule="evenodd" d="M166 442.5L166 406.5C166 404.015 168.015 402 170.5 402C172.985 402 175 404.015 175 406.5L175 442.5C175 444.985 172.985 447 170.5 447C168.015 447 166 444.985 166 442.5Z" fill="#0A404B"/>
<path opacity="0.5" fill-rule="evenodd" clip-rule="evenodd" d="M166 510.5L166 474.5C166 472.015 168.015 470 170.5 470C172.985 470 175 472.015 175 474.5L175 510.5C175 512.985 172.985 515 170.5 515C168.015 515 166 512.985 166 510.5Z" fill="#0A404B"/>
<path opacity="0.3" fill-rule="evenodd" clip-rule="evenodd" d="M166 577.5L166 541.5C166 539.015 168.015 537 170.5 537C172.985 537 175 539.015 175 541.5L175 577.5C175 579.985 172.985 582 170.5 582C168.015 582 166 579.985 166 577.5Z" fill="#0A404B"/>
<path opacity="0.2" fill-rule="evenodd" clip-rule="evenodd" d="M166 645.5L166 609.5C166 607.015 168.015 605 170.5 605C172.985 605 175 607.015 175 609.5L175 645.5C175 647.985 172.985 650 170.5 650C168.015 650 166 647.985 166 645.5Z" fill="#0A404B"/>
<path fill-rule="evenodd" clip-rule="evenodd" d="M98.7986 46.2061C96.3304 46.497 94.0938 44.7319 93.8029 42.2637L89.4458 5.28785C89.155 2.81965 90.9201 0.582996 93.3883 0.292152C95.8565 0.00130761 98.0932 1.76641 98.384 4.23461L102.741 41.2104C103.032 43.6786 101.267 45.9153 98.7986 46.2061Z" fill="#0A404B"/>
<path fill-rule="evenodd" clip-rule="evenodd" d="M99.0589 113.261C96.5942 113.581 94.3375 111.841 94.0183 109.377L89.2396 72.4709C88.9204 70.0062 90.6598 67.7495 93.1245 67.4303C95.5892 67.1112 97.8459 68.8505 98.1651 71.3152L102.944 108.221C103.263 110.686 101.524 112.942 99.0589 113.261Z" fill="#0A404B"/>
<path fill-rule="evenodd" clip-rule="evenodd" d="M99.4923 180.389C97.034 180.754 94.7451 179.057 94.38 176.599L88.8986 139.693C88.5335 137.235 90.2303 134.946 92.6886 134.581C95.1469 134.216 97.4358 135.912 97.8009 138.371L103.282 175.276C103.647 177.735 101.951 180.024 99.4923 180.389Z" fill="#0A404B"/>
<path fill-rule="evenodd" clip-rule="evenodd" d="M99.9307 247.436C97.4798 247.848 95.1588 246.196 94.7466 243.745L88.5623 206.98C88.1501 204.529 89.8027 202.208 92.2535 201.795C94.7044 201.383 97.0254 203.036 97.4377 205.487L103.622 242.252C104.034 244.703 102.382 247.024 99.9307 247.436Z" fill="#0A404B"/>
<path fill-rule="evenodd" clip-rule="evenodd" d="M100.543 314.403C98.1037 314.881 95.739 313.292 95.2607 310.853L88.0927 274.298C87.6144 271.86 89.2038 269.495 91.6426 269.017C94.0815 268.538 96.4462 270.128 96.9245 272.567L104.093 309.121C104.571 311.56 102.981 313.924 100.543 314.403Z" fill="#0A404B"/>
<path fill-rule="evenodd" clip-rule="evenodd" d="M101.327 381.367C98.9064 381.93 96.4878 380.424 95.925 378.003L87.4919 341.73C86.9291 339.309 88.4353 336.891 90.856 336.328C93.2767 335.765 95.6954 337.271 96.2581 339.692L104.691 375.965C105.254 378.386 103.748 380.804 101.327 381.367Z" fill="#0A404B"/>
<path opacity="0.7" fill-rule="evenodd" clip-rule="evenodd" d="M102.552 448.156C100.166 448.851 97.6685 447.48 96.9735 445.094L86.5728 409.384C85.8778 406.997 87.2488 404.5 89.6349 403.805C92.0211 403.11 94.5188 404.481 95.2138 406.867L105.614 442.577C106.309 444.964 104.938 447.461 102.552 448.156Z" fill="#0A404B"/>
<path opacity="0.5" fill-rule="evenodd" clip-rule="evenodd" d="M104.383 514.676C102.063 515.568 99.4598 514.41 98.5678 512.091L85.2155 477.364C84.3236 475.045 85.4811 472.441 87.8008 471.549C90.1205 470.657 92.724 471.815 93.616 474.134L106.968 508.861C107.86 511.18 106.703 513.784 104.383 514.676Z" fill="#0A404B"/>
<path opacity="0.3" fill-rule="evenodd" clip-rule="evenodd" d="M107.608 580.316C105.452 581.553 102.702 580.808 101.465 578.653L82.9125 546.316C81.6757 544.161 82.4206 541.411 84.5763 540.174C86.7319 538.937 89.4821 539.682 90.7189 541.838L109.272 574.174C110.508 576.33 109.763 579.08 107.608 580.316Z" fill="#0A404B"/>
<path opacity="0.2" fill-rule="evenodd" clip-rule="evenodd" d="M113.198 642.919C111.527 644.759 108.681 644.896 106.841 643.224L79.2932 618.199C77.4536 616.528 77.3171 613.682 78.9882 611.842C80.6593 610.003 83.5053 609.866 85.3449 611.537L112.893 636.563C114.732 638.234 114.869 641.08 113.198 642.919Z" fill="#0A404B"/>
<path opacity="0.1" fill-rule="evenodd" clip-rule="evenodd" d="M119 695.5C119 697.985 116.985 700 114.5 700L78.5 700C76.0147 700 74 697.985 74 695.5C74 693.015 76.0147 691 78.5 691L114.5 691C116.985 691 119 693.015 119 695.5Z" fill="#0A404B"/>
<path fill-rule="evenodd" clip-rule="evenodd" d="M26.7469 45.7793C24.3239 46.3322 21.9114 44.8161 21.3586 42.3931L13.0661 6.04988C12.5133 3.62687 14.0293 1.21445 16.4523 0.661591C18.8753 0.108732 21.2878 1.62479 21.8406 4.0478L30.1331 40.3911C30.6859 42.8141 29.1699 45.2265 26.7469 45.7793Z" fill="#0A404B"/>
<path fill-rule="evenodd" clip-rule="evenodd" d="M27.2722 112.744C24.863 113.354 22.4153 111.896 21.8049 109.487L12.6691 73.4244C12.0588 71.0153 13.5171 68.5675 15.9262 67.9571C18.3354 67.3468 20.7832 68.8051 21.3935 71.2142L30.5293 107.276C31.1397 109.686 29.6814 112.133 27.2722 112.744Z" fill="#0A404B"/>
<path fill-rule="evenodd" clip-rule="evenodd" d="M27.9594 179.699C25.5691 180.38 23.0797 178.994 22.3989 176.603L12.2091 140.823C11.5283 138.432 12.9142 135.943 15.3044 135.262C17.6947 134.581 20.1842 135.967 20.8649 138.357L31.0548 174.138C31.7355 176.529 30.3496 179.018 27.9594 179.699Z" fill="#0A404B"/>
<path fill-rule="evenodd" clip-rule="evenodd" d="M28.7426 246.577C26.3779 247.341 23.8411 246.044 23.0765 243.679L11.6216 208.25C10.857 205.885 12.1542 203.348 14.519 202.584C16.8838 201.819 19.4206 203.116 20.1851 205.481L31.64 240.911C32.4046 243.275 31.1074 245.812 28.7426 246.577Z" fill="#0A404B"/>
<path fill-rule="evenodd" clip-rule="evenodd" d="M29.7924 313.361C27.4668 314.238 24.871 313.063 23.9945 310.737L10.853 275.871C9.97652 273.545 11.1512 270.949 13.4768 270.073C15.8024 269.196 18.3982 270.371 19.2747 272.696L32.4162 307.563C33.2927 309.889 32.118 312.485 29.7924 313.361Z" fill="#0A404B"/>
<path fill-rule="evenodd" clip-rule="evenodd" d="M31.1854 379.956C28.9218 380.982 26.2551 379.979 25.229 377.715L9.83875 343.762C8.81271 341.499 9.81594 338.832 12.0795 337.806C14.3431 336.78 17.0099 337.783 18.036 340.047L33.4262 374C34.4523 376.263 33.449 378.93 31.1854 379.956Z" fill="#0A404B"/>
<path opacity="0.7" fill-rule="evenodd" clip-rule="evenodd" d="M32.942 446.144C30.776 447.362 28.0322 446.594 26.8136 444.428L8.54206 411.951C7.32345 409.785 8.09149 407.042 10.2575 405.823C12.4235 404.604 15.1673 405.372 16.3859 407.538L34.6574 440.015C35.876 442.181 35.108 444.925 32.942 446.144Z" fill="#0A404B"/>
<path opacity="0.5" fill-rule="evenodd" clip-rule="evenodd" d="M35.4707 511.62C33.48 513.108 30.6601 512.701 29.1722 510.71L6.89502 480.904C5.40715 478.914 5.81477 476.094 7.80546 474.606C9.79616 473.118 12.6161 473.526 14.104 475.516L36.3812 505.322C37.869 507.313 37.4614 510.133 35.4707 511.62Z" fill="#0A404B"/>
<path opacity="0.3" fill-rule="evenodd" clip-rule="evenodd" d="M38.7819 575.71C37.1157 577.554 34.2701 577.698 32.4261 576.031L4.80796 551.076C2.96395 549.41 2.81982 546.564 4.48604 544.72C6.15225 542.876 8.99784 542.732 10.8419 544.398L38.46 569.354C40.304 571.02 40.4482 573.866 38.7819 575.71Z" fill="#0A404B"/>
<path opacity="0.2" fill-rule="evenodd" clip-rule="evenodd" d="M42.5356 637.167C41.4787 639.416 38.7985 640.383 36.5491 639.326L2.88727 623.509C0.637915 622.452 -0.328756 619.772 0.728145 617.523C1.78505 615.274 4.46529 614.307 6.71464 615.364L40.3765 631.18C42.6258 632.237 43.5925 634.918 42.5356 637.167Z" fill="#0A404B"/>
<path opacity="0.1" fill-rule="evenodd" clip-rule="evenodd" d="M45 695.5C45 697.985 42.9853 700 40.5 700L4.5 700C2.01472 700 -1.55684e-06 697.985 -1.00294e-06 695.5C-4.49031e-07 693.015 2.01472 691 4.5 691L40.5 691C42.9853 691 45 693.015 45 695.5Z" fill="#0A404B"/>
</g>
</svg>
