<svg width="140" height="140" viewBox="0 0 140 140" fill="none" xmlns="http://www.w3.org/2000/svg">
<path d="M67.3314 36.4515C68.4382 34.5162 71.5618 34.5162 72.6686 36.4515L109.674 101.159C110.681 102.919 109.235 105 107.005 105H32.9947C30.7651 105 29.3194 102.919 30.3261 101.159L67.3314 36.4515Z" fill="#EFBF45"/>
<path opacity="0.1" d="M67.3314 36.4515C67.8848 35.4838 70 35 70 35L69.5 105H32.9947C30.7651 105 29.3194 102.919 30.3261 101.159L67.3314 36.4515Z" fill="#FEFCF9"/>
<path fill-rule="evenodd" clip-rule="evenodd" d="M70.8675 39.5254C70.4832 38.8554 69.5168 38.8554 69.1325 39.5254L34.1599 100.503C33.7775 101.169 34.2588 102 35.0273 102H104.973C105.741 102 106.222 101.169 105.84 100.503L70.8675 39.5254ZM72.6686 36.4515C71.5618 34.5162 68.4382 34.5162 67.3314 36.4515L30.3261 101.159C29.3194 102.919 30.7651 105 32.9947 105H107.005C109.235 105 110.681 102.919 109.674 101.159L72.6686 36.4515Z" fill="#FEFCF9"/>
</svg>
