<svg width="140" height="140" viewBox="0 0 140 140" fill="none" xmlns="http://www.w3.org/2000/svg">
<path d="M67.3314 36.4515C68.4382 34.5162 71.5618 34.5162 72.6686 36.4515L109.674 101.159C110.681 102.919 109.235 105 107.005 105H32.9947C30.7651 105 29.3194 102.919 30.3261 101.159L67.3314 36.4515Z" fill="#EFBF45"/>
<g opacity="0.5">
<circle cx="76" cy="62" r="3" transform="rotate(180 76 62)" fill="black"/>
<circle cx="76" cy="53" r="3" transform="rotate(180 76 53)" fill="black"/>
<circle cx="67" cy="71" r="3" transform="rotate(180 67 71)" fill="black"/>
<circle cx="67" cy="62" r="3" transform="rotate(180 67 62)" fill="black"/>
<circle cx="67" cy="53" r="3" transform="rotate(180 67 53)" fill="black"/>
<circle cx="67" cy="44" r="3" transform="rotate(180 67 44)" fill="black"/>
<path d="M74.3731 41.4794C74.0421 41.6931 73.7564 41.9698 73.5324 42.2939C73.3083 42.618 73.1503 42.983 73.0673 43.3681C72.9843 43.7532 72.978 44.1509 73.0487 44.5385C73.1194 44.9261 73.2658 45.2959 73.4794 45.6269C73.6931 45.9579 73.9698 46.2436 74.2939 46.4676C74.618 46.6917 74.983 46.8497 75.3681 46.9327C75.7532 47.0157 76.1509 47.022 76.5385 46.9513C76.9261 46.8806 77.2959 46.7342 77.6269 46.5206L76 44L74.3731 41.4794Z" fill="black"/>
<circle cx="58" cy="80" r="3" transform="rotate(180 58 80)" fill="black"/>
<circle cx="58" cy="71" r="3" transform="rotate(180 58 71)" fill="black"/>
<circle cx="58" cy="62" r="3" transform="rotate(180 58 62)" fill="black"/>
<circle cx="49" cy="89" r="3" transform="rotate(180 49 89)" fill="black"/>
<circle cx="49" cy="80" r="3" transform="rotate(180 49 80)" fill="black"/>
<path d="M47.3003 73.472C47.6249 73.6953 47.9904 73.8523 48.3757 73.9343C48.761 74.0163 49.1587 74.0216 49.5461 73.9499C49.9335 73.8782 50.303 73.7308 50.6334 73.5163C50.9639 73.3018 51.2488 73.0243 51.472 72.6997C51.6953 72.3751 51.8523 72.0096 51.9343 71.6243C52.0163 71.239 52.0216 70.8413 51.9499 70.4539C51.8782 70.0665 51.7308 69.697 51.5163 69.3666C51.3018 69.0361 51.0243 68.7512 50.6997 68.528L49 71L47.3003 73.472Z" fill="black"/>
<circle cx="40" cy="98" r="3" transform="rotate(180 40 98)" fill="black"/>
<path d="M38.4162 91.5478C38.7508 91.7558 39.123 91.8959 39.5118 91.96C39.9005 92.0241 40.298 92.011 40.6817 91.9215C41.0653 91.832 41.4276 91.6678 41.7478 91.4383C42.068 91.2088 42.3399 90.9184 42.5478 90.5838C42.7558 90.2492 42.8959 89.877 42.96 89.4882C43.0241 89.0995 43.011 88.702 42.9215 88.3183C42.832 87.9347 42.6678 87.5724 42.4383 87.2522C42.2088 86.932 41.9184 86.6601 41.5838 86.4522L40 89L38.4162 91.5478Z" fill="black"/>
</g>
<path opacity="0.1" d="M85 59L38.5 105H107.005C109.235 105 110.681 102.919 109.674 101.159L85 59Z" fill="#FEFCF9"/>
<path fill-rule="evenodd" clip-rule="evenodd" d="M70.8675 39.5254C70.4832 38.8554 69.5168 38.8554 69.1325 39.5254L34.1599 100.503C33.7775 101.169 34.2588 102 35.0273 102H104.973C105.741 102 106.222 101.169 105.84 100.503L70.8675 39.5254ZM72.6686 36.4515C71.5618 34.5162 68.4382 34.5162 67.3314 36.4515L30.3261 101.159C29.3194 102.919 30.7651 105 32.9947 105H107.005C109.235 105 110.681 102.919 109.674 101.159L72.6686 36.4515Z" fill="#FEFCF9"/>
</svg>
