<svg width="140" height="140" viewBox="0 0 140 140" fill="none" xmlns="http://www.w3.org/2000/svg">
<path d="M67.3314 36.4515C68.4382 34.5162 71.5618 34.5162 72.6686 36.4515L109.674 101.159C110.681 102.919 109.235 105 107.005 105H32.9947C30.7651 105 29.3194 102.919 30.3261 101.159L67.3314 36.4515Z" fill="#EFBF45"/>
<g opacity="0.5">
<path d="M79 53.0001L82 58.5001V61.5001L79 64.4409V53.0001Z" fill="black"/>
<path d="M72 41.5L75 46.5459V68.4039L72 71.3846V41.5Z" fill="black"/>
<path d="M65 46.5L68 41.3935V75.3141L65 78.3046V46.5Z" fill="black"/>
<path d="M58 58.7615L61 53.6525V82.2462L58 85.2357V58.7615Z" fill="black"/>
<path d="M51 69.7112L54 66.0001V89.1965L51 92.1323V69.7112Z" fill="black"/>
<path d="M44 83.0001L47 78.0001V96.0721L44 99.081V83.0001Z" fill="black"/>
<path d="M37 93.122L40 90.0001V102H37V93.122Z" fill="black"/>
</g>
<path fill-rule="evenodd" clip-rule="evenodd" d="M70.8675 39.5254C70.4832 38.8554 69.5168 38.8554 69.1325 39.5254L34.1599 100.503C33.7775 101.169 34.2588 102 35.0273 102H104.973C105.741 102 106.222 101.169 105.84 100.503L70.8675 39.5254ZM72.6686 36.4515C71.5618 34.5162 68.4382 34.5162 67.3314 36.4515L30.3261 101.159C29.3194 102.919 30.7651 105 32.9947 105H107.005C109.235 105 110.681 102.919 109.674 101.159L72.6686 36.4515Z" fill="#FEFCF9"/>
<path opacity="0.1" d="M84.5 59L38 105H106.505C108.735 105 110.181 102.919 109.174 101.159L84.5 59Z" fill="#FEFCF9"/>
</svg>
