<svg width="140" height="140" viewBox="0 0 140 140" fill="none" xmlns="http://www.w3.org/2000/svg">
<path d="M37 39.475C37 38.1081 38.1081 37 39.475 37L100.525 37C101.892 37 103 38.1081 103 39.475V100.525C103 101.892 101.892 103 100.525 103H39.475C38.1081 103 37 101.892 37 100.525V39.475Z" fill="#6BC6D0"/>
<g opacity="0.5">
<path d="M94 39H97V87.2786L94 84.2551V39Z" fill="black"/>
<path d="M87 39H90V80.2422L87 77.2344V39Z" fill="black"/>
<path d="M80 39H83V73.1992L80 70.1875V39Z" fill="black"/>
<path d="M73 39H76V66.1641L73 63.1406V39Z" fill="black"/>
<path d="M66 39H69V59.1211L66 56.1094V39Z" fill="black"/>
<path d="M59 39H62V52.0781L59 49.0625V39Z" fill="black"/>
<path d="M52 39H55V45.0391L52 42.0273V39Z" fill="black"/>
</g>
<path opacity="0.1" d="M38.5 39.325C38.5 38.8694 38.8694 38.5 39.325 38.5H48.5L102.193 92.5V102.5H38.5V39.325Z" fill="#FEFCF9"/>
<path fill-rule="evenodd" clip-rule="evenodd" d="M39.975 39C39.4365 39 39 39.4365 39 39.975V101.025C39 101.563 39.4365 102 39.975 102H101.025C101.563 102 102 101.563 102 101.025V39.975C102 39.4365 101.563 39 101.025 39H39.975ZM36 39.975C36 37.7797 37.7797 36 39.975 36H101.025C103.22 36 105 37.7797 105 39.975V101.025C105 103.22 103.22 105 101.025 105H39.975C37.7797 105 36 103.22 36 101.025V39.975Z" fill="#FEFCF9"/>
</svg>
