<svg width="140" height="140" viewBox="0 0 140 140" fill="none" xmlns="http://www.w3.org/2000/svg">
<path fill-rule="evenodd" clip-rule="evenodd" d="M85 45C85 36.7157 78.2843 30 70 30C61.7157 30 55 36.7157 55 45V54C55 54.5523 54.5523 55 54 55H45C36.7157 55 30 61.7157 30 70C30 78.2843 36.7157 85 45 85H54C54.5523 85 55 85.4477 55 86V95C55 103.284 61.7157 110 70 110C78.2843 110 85 103.284 85 95V86C85 85.4477 85.4477 85 86 85H95C103.284 85 110 78.2843 110 70C110 61.7157 103.284 55 95 55H86C85.4477 55 85 54.5523 85 54V45Z" fill="#8E74DA"/>
<path opacity="0.1" fill-rule="evenodd" clip-rule="evenodd" d="M70 33C63.3726 33 58 38.3726 58 45V54.1531C58 55.5 56 58 54.2266 58H45C38.3726 58 33 63.3726 33 70C33 76.6274 38.3726 82 45 82H54C56 82 58 84 58 86V95C58 101.627 63.3726 107 70 107V33Z" fill="#FEFCF9"/>
<path fill-rule="evenodd" clip-rule="evenodd" d="M82 45C82 38.3726 76.6274 33 70 33C63.3726 33 58 38.3726 58 45V54C58 56.2091 56.2091 58 54 58H45C38.3726 58 33 63.3726 33 70C33 76.6274 38.3726 82 45 82H54C56.2091 82 58 83.7909 58 86V95C58 101.627 63.3726 107 70 107C76.6274 107 82 101.627 82 95V86C82 83.7909 83.7909 82 86 82H95C101.627 82 107 76.6274 107 70C107 63.3726 101.627 58 95 58H86C83.7909 58 82 56.2091 82 54V45ZM70 30C78.2843 30 85 36.7157 85 45V54C85 54.5523 85.4477 55 86 55H95C103.284 55 110 61.7157 110 70C110 78.2843 103.284 85 95 85H86C85.4477 85 85 85.4477 85 86V95C85 103.284 78.2843 110 70 110C61.7157 110 55 103.284 55 95V86C55 85.4477 54.5523 85 54 85H45C36.7157 85 30 78.2843 30 70C30 61.7157 36.7157 55 45 55H54C54.5523 55 55 54.5523 55 54V45C55 36.7157 61.7157 30 70 30Z" fill="#FEFCF9"/>
</svg>
