<svg width="140" height="140" viewBox="0 0 140 140" fill="none" xmlns="http://www.w3.org/2000/svg">
<path fill-rule="evenodd" clip-rule="evenodd" d="M85 45C85 36.7157 78.2843 30 70 30C61.7157 30 55 36.7157 55 45V54C55 54.5523 54.5523 55 54 55H45C36.7157 55 30 61.7157 30 70C30 78.2843 36.7157 85 45 85H54C54.5523 85 55 85.4477 55 86V95C55 103.284 61.7157 110 70 110C78.2843 110 85 103.284 85 95V86C85 85.4477 85.4477 85 86 85H95C103.284 85 110 78.2843 110 70C110 61.7157 103.284 55 95 55H86C85.4477 55 85 54.5523 85 54V45Z" fill="#8E74DA"/>
<g opacity="0.5">
<circle cx="73" cy="38" r="3" fill="black"/>
<circle cx="73" cy="74" r="3" fill="black"/>
<circle cx="73" cy="47" r="3" fill="black"/>
<circle cx="73" cy="56" r="3" fill="black"/>
<circle cx="73" cy="65" r="3" fill="black"/>
<circle cx="73" cy="74" r="3" fill="black"/>
<circle cx="73" cy="92" r="3" fill="black"/>
<circle cx="73" cy="101" r="3" fill="black"/>
<path d="M80.3669 35.4834C79.6995 35.9165 79.2315 36.5971 79.0658 37.3753C78.9001 38.1535 79.0503 38.9656 79.4834 39.6331C79.9165 40.3005 80.5971 40.7685 81.3753 40.9342C82.1535 41.0999 82.9656 40.9497 83.6331 40.5166L82 38L80.3669 35.4834Z" fill="black"/>
<path d="M84.1213 44.8787C83.7147 44.4721 83.1999 44.1909 82.638 44.0686C82.0762 43.9463 81.491 43.9881 80.9523 44.1889C80.4135 44.3897 79.9437 44.7412 79.599 45.2013C79.2543 45.6615 79.049 46.2111 79.0077 46.7846C78.9665 47.3581 79.0909 47.9314 79.3661 48.4362C79.6414 48.9411 80.056 49.3561 80.5604 49.632C81.0649 49.908 81.6381 50.0331 82.2116 49.9925C82.7852 49.952 83.335 49.7474 83.7956 49.4033L82 47L84.1213 44.8787Z" fill="black"/>
<circle cx="82" cy="56" r="3" fill="black"/>
<circle cx="82" cy="65" r="3" fill="black"/>
<circle cx="82" cy="74" r="3" fill="black"/>
<circle cx="82" cy="83" r="3" fill="black"/>
<circle cx="73" cy="83" r="3" fill="black"/>
<circle cx="82" cy="92" r="3" fill="black"/>
<path d="M80.4792 103.586C79.7934 103.183 79.2959 102.523 79.0961 101.753C78.8963 100.983 79.0107 100.165 79.414 99.4792C79.8174 98.7934 80.4766 98.2959 81.2468 98.0961C82.0169 97.8963 82.8349 98.0107 83.5208 98.414L82 101L80.4792 103.586Z" fill="black"/>
<path d="M94 56C94 56.394 93.9224 56.7841 93.7716 57.1481C93.6209 57.512 93.3999 57.8427 93.1213 58.1213C92.8427 58.3999 92.512 58.6209 92.1481 58.7716C91.7841 58.9224 91.394 59 91 59C90.606 59 90.2159 58.9224 89.8519 58.7716C89.488 58.6209 89.1573 58.3999 88.8787 58.1213C88.6001 57.8427 88.3791 57.512 88.2284 57.1481C88.0776 56.7841 88 56.394 88 56L91 56H94Z" fill="black"/>
<circle cx="91" cy="65" r="3" fill="black"/>
<circle cx="91" cy="74" r="3" fill="black"/>
<path d="M88 83C88 82.606 88.0776 82.2159 88.2284 81.8519C88.3791 81.488 88.6001 81.1573 88.8787 80.8787C89.1573 80.6001 89.488 80.3791 89.852 80.2284C90.2159 80.0776 90.606 80 91 80C91.394 80 91.7841 80.0776 92.1481 80.2284C92.512 80.3791 92.8427 80.6001 93.1213 80.8787C93.3999 81.1573 93.6209 81.488 93.7716 81.852C93.9224 82.2159 94 82.606 94 83L91 83L88 83Z" fill="black"/>
<path d="M102.561 57.5625C102.196 58.1614 101.632 58.6133 100.968 58.8396C100.304 59.0659 99.5814 59.0524 98.9264 58.8013C98.2713 58.5502 97.7249 58.0775 97.3822 57.4654C97.0396 56.8532 96.9223 56.1403 97.0507 55.4507L100 56L102.561 57.5625Z" fill="black"/>
<circle cx="100" cy="65" r="3" fill="black"/>
<circle cx="100" cy="74" r="3" fill="black"/>
<path d="M102.61 81.5212C102.244 80.8751 101.652 80.3878 100.947 80.1534C100.242 79.919 99.4759 79.9542 98.7958 80.2523C98.1157 80.5503 97.5703 81.09 97.2651 81.767C96.9599 82.4439 96.9166 83.2099 97.1436 83.917L100 83L102.61 81.5212Z" fill="black"/>
<path d="M107.653 62.3195C107.004 62.6454 106.496 63.1953 106.222 63.8673C105.948 64.5393 105.927 65.2878 106.163 65.9742C106.398 66.6606 106.875 67.2383 107.504 67.6002C108.133 67.9622 108.872 68.0839 109.584 67.9427L109 65L107.653 62.3195Z" fill="black"/>
<path d="M107.503 76.5998C106.915 76.2611 106.459 75.7329 106.21 75.1015C105.96 74.4701 105.933 73.7729 106.131 73.1236C106.329 72.4744 106.742 71.9117 107.301 71.5273C107.861 71.1429 108.534 70.9597 109.211 71.0074L109 74L107.503 76.5998Z" fill="black"/>
</g>
<path opacity="0.1" fill-rule="evenodd" clip-rule="evenodd" d="M70 33C63.3726 33 58 38.3726 58 45V54.1531C58 55.5 56 58 54.2266 58H45C38.3726 58 33 63.3726 33 70C33 76.6274 38.3726 82 45 82H54C56 82 58 84 58 86V95C58 101.627 63.3726 107 70 107V33Z" fill="#FEFCF9"/>
<path fill-rule="evenodd" clip-rule="evenodd" d="M82 45C82 38.3726 76.6274 33 70 33C63.3726 33 58 38.3726 58 45V54C58 56.2091 56.2091 58 54 58H45C38.3726 58 33 63.3726 33 70C33 76.6274 38.3726 82 45 82H54C56.2091 82 58 83.7909 58 86V95C58 101.627 63.3726 107 70 107C76.6274 107 82 101.627 82 95V86C82 83.7909 83.7909 82 86 82H95C101.627 82 107 76.6274 107 70C107 63.3726 101.627 58 95 58H86C83.7909 58 82 56.2091 82 54V45ZM70 30C78.2843 30 85 36.7157 85 45V54C85 54.5523 85.4477 55 86 55H95C103.284 55 110 61.7157 110 70C110 78.2843 103.284 85 95 85H86C85.4477 85 85 85.4477 85 86V95C85 103.284 78.2843 110 70 110C61.7157 110 55 103.284 55 95V86C55 85.4477 54.5523 85 54 85H45C36.7157 85 30 78.2843 30 70C30 61.7157 36.7157 55 45 55H54C54.5523 55 55 54.5523 55 54V45C55 36.7157 61.7157 30 70 30Z" fill="#FEFCF9"/>
</svg>
