<svg width="140" height="140" viewBox="0 0 140 140" fill="none" xmlns="http://www.w3.org/2000/svg">
<path d="M68.9999 30.5773C69.6187 30.2201 70.3811 30.2201 70.9999 30.5773L103.641 49.4226C104.26 49.7799 104.641 50.4402 104.641 51.1547V88.8453C104.641 89.5598 104.26 90.2201 103.641 90.5773L70.9999 109.423C70.3811 109.78 69.6187 109.78 68.9999 109.423L36.3589 90.5773C35.7401 90.2201 35.3589 89.5598 35.3589 88.8453V51.1547C35.3589 50.4402 35.7401 49.7799 36.3589 49.4226L68.9999 30.5773Z" fill="#F79898"/>
<g opacity="0.5">
<circle cx="100.658" cy="59.0981" r="3" transform="rotate(60 100.658 59.0981)" fill="black"/>
<circle cx="69.4808" cy="77.0981" r="3" transform="rotate(60 69.4808 77.0981)" fill="black"/>
<circle cx="92.8636" cy="63.5981" r="3" transform="rotate(60 92.8636 63.5981)" fill="black"/>
<circle cx="85.0694" cy="68.0981" r="3" transform="rotate(60 85.0694 68.0981)" fill="black"/>
<circle cx="77.2752" cy="72.5981" r="3" transform="rotate(60 77.2752 72.5981)" fill="black"/>
<circle cx="69.4808" cy="77.0981" r="3" transform="rotate(60 69.4808 77.0981)" fill="black"/>
<circle cx="53.8924" cy="86.0981" r="3" transform="rotate(60 53.8924 86.0981)" fill="black"/>
<circle cx="46.0982" cy="90.5981" r="3" transform="rotate(60 46.0982 90.5981)" fill="black"/>
<circle cx="97.3636" cy="71.3923" r="3" transform="rotate(60 97.3636 71.3923)" fill="black"/>
<circle cx="89.5694" cy="75.8923" r="3" transform="rotate(60 89.5694 75.8923)" fill="black"/>
<circle cx="81.7752" cy="80.3923" r="3" transform="rotate(60 81.7752 80.3923)" fill="black"/>
<circle cx="73.9808" cy="84.8923" r="3" transform="rotate(60 73.9808 84.8923)" fill="black"/>
<circle cx="66.1866" cy="89.3923" r="3" transform="rotate(60 66.1866 89.3923)" fill="black"/>
<circle cx="61.6866" cy="81.5981" r="3" transform="rotate(60 61.6866 81.5981)" fill="black"/>
<circle cx="58.3924" cy="93.8923" r="3" transform="rotate(60 58.3924 93.8923)" fill="black"/>
<path d="M48.0544 96.8019C48.4762 96.1273 49.1487 95.6478 49.924 95.469C50.6993 95.2902 51.5139 95.4267 52.1886 95.8485C52.8632 96.2703 53.3427 96.9428 53.5215 97.7181C53.7003 98.4934 53.5638 99.308 53.142 99.9826L50.5982 98.3923L48.0544 96.8019Z" fill="black"/>
<path d="M101.901 82.1863C101.105 82.1961 100.338 81.8895 99.7686 81.3338C99.1991 80.7782 98.8736 80.0191 98.8638 79.2235C98.854 78.4279 99.1607 77.661 99.7163 77.0915C100.272 76.522 101.031 76.1966 101.827 76.1868L101.864 79.1865L101.901 82.1863Z" fill="black"/>
<circle cx="94.0694" cy="83.6865" r="3" transform="rotate(60 94.0694 83.6865)" fill="black"/>
<circle cx="86.2752" cy="88.1865" r="3" transform="rotate(60 86.2752 88.1865)" fill="black"/>
<circle cx="78.4808" cy="92.6865" r="3" transform="rotate(60 78.4808 92.6865)" fill="black"/>
<circle cx="70.6866" cy="97.1865" r="3" transform="rotate(60 70.6866 97.1865)" fill="black"/>
<circle cx="62.8924" cy="101.687" r="3" transform="rotate(60 62.8924 101.687)" fill="black"/>
<path d="M95.9713 92.9808C95.7743 92.6396 95.6465 92.2629 95.5951 91.8723C95.5436 91.4817 95.5697 91.0849 95.6716 90.7043C95.7736 90.3238 95.9495 89.967 96.1893 89.6545C96.4292 89.3419 96.7282 89.0797 97.0694 88.8827C97.4106 88.6857 97.7872 88.5579 98.1778 88.5064C98.5684 88.455 98.9653 88.481 99.3459 88.583C99.7264 88.685 100.083 88.8609 100.396 89.1007C100.708 89.3405 100.97 89.6396 101.167 89.9808L98.5694 91.4808L95.9713 92.9808Z" fill="black"/>
<path d="M93.3733 94.4808C92.9755 93.7917 92.3202 93.2889 91.5517 93.083C90.7831 92.8771 89.9643 92.9849 89.2752 93.3827C88.5862 93.7805 88.0834 94.4358 87.8774 95.2043C87.6715 95.9728 87.7793 96.7917 88.1771 97.4808L90.7752 95.9808L93.3733 94.4808Z" fill="black"/>
<path d="M85.5789 98.9808C85.181 98.2917 84.5258 97.7889 83.7572 97.583C82.9887 97.3771 82.1698 97.4849 81.4808 97.8827C80.7917 98.2805 80.2889 98.9358 80.083 99.7043C79.8771 100.473 79.9849 101.292 80.3827 101.981L82.9808 100.481L85.5789 98.9808Z" fill="black"/>
<path d="M72.5885 106.481C72.3915 106.14 72.2637 105.763 72.2123 105.372C72.1608 104.982 72.1868 104.585 72.2888 104.204C72.3908 103.824 72.5667 103.467 72.8065 103.154C73.0464 102.842 73.3454 102.58 73.6866 102.383C74.0278 102.186 74.4044 102.058 74.795 102.006C75.1856 101.955 75.5825 101.981 75.9631 102.083C76.3436 102.185 76.7003 102.361 77.0129 102.601C77.3254 102.841 77.5877 103.14 77.7847 103.481L75.1866 104.981L72.5885 106.481Z" fill="black"/>
</g>
<path fill-rule="evenodd" clip-rule="evenodd" d="M70.499 33.4667C70.1901 33.2888 69.8099 33.2888 69.5009 33.4667L38.532 51.3012C38.2221 51.4796 38.0311 51.8101 38.0311 52.1677V87.8323C38.0311 88.1899 38.2221 88.5204 38.532 88.6988L69.5009 106.533C69.8099 106.711 70.1901 106.711 70.499 106.533L101.468 88.6988C101.778 88.5204 101.969 88.1899 101.969 87.8323V52.1677C101.969 51.8101 101.778 51.4796 101.468 51.3012L70.499 33.4667ZM71.0104 30.27C70.3851 29.91 69.6148 29.91 68.9896 30.27L36.0104 49.2622C35.3851 49.6223 35 50.2877 35 51.0078V88.9922C35 89.7123 35.3851 90.3777 36.0104 90.7378L68.9896 109.73C69.6148 110.09 70.3851 110.09 71.0104 109.73L103.99 90.7378C104.615 90.3777 105 89.7123 105 88.9922V51.0078C105 50.2877 104.615 49.6223 103.99 49.2622L71.0104 30.27Z" fill="#FEFCF9"/>
<path opacity="0.1" fill-rule="evenodd" clip-rule="evenodd" d="M71.0104 30.27C70.3851 29.91 69.6148 29.91 68.9896 30.27L36.0104 49.2622C35.3851 49.6223 35 50.2877 35 51.0078V88.9922C35 89.4659 35.1667 89.916 35.4588 90.271L104.837 50.2153C104.668 49.8209 104.374 49.4838 103.99 49.2622L71.0104 30.27Z" fill="#FEFCF9"/>
</svg>
