<svg width="140" height="140" viewBox="0 0 140 140" fill="none" xmlns="http://www.w3.org/2000/svg">
<path d="M68.9999 30.5773C69.6187 30.2201 70.3811 30.2201 70.9999 30.5773L103.641 49.4226C104.26 49.7799 104.641 50.4402 104.641 51.1547V88.8453C104.641 89.5598 104.26 90.2201 103.641 90.5773L70.9999 109.423C70.3811 109.78 69.6187 109.78 68.9999 109.423L36.3589 90.5773C35.7401 90.2201 35.3589 89.5598 35.3589 88.8453V51.1547C35.3589 50.4402 35.7401 49.7799 36.3589 49.4226L68.9999 30.5773Z" fill="#F79898"/>
<g opacity="0.5">
<path d="M97 54.7463L100 53V92H97V54.7463Z" fill="black"/>
<path d="M90 58.7766L93 57.0458V96H90V58.7766Z" fill="black"/>
<path d="M83 62.8246L86 61.0919V100H83V62.8246Z" fill="black"/>
<path d="M76 66.8596L79 65.1367V104H76V66.8596Z" fill="black"/>
<path d="M69 70.9046L72 69.1705V109H69V70.9046Z" fill="black"/>
<path d="M62 74.9493L65 73.2109V105H62V74.9493Z" fill="black"/>
<path d="M55 79L58 77.2617V101H55V79Z" fill="black"/>
<path d="M48 83.0329L51 81.2946V97H48V83.0329Z" fill="black"/>
<path d="M41 87.0692L44 85.3399V93H41V87.0692Z" fill="black"/>
</g>
<path fill-rule="evenodd" clip-rule="evenodd" d="M70.499 33.4667C70.1901 33.2888 69.8099 33.2888 69.5009 33.4667L38.532 51.3012C38.2221 51.4796 38.0311 51.8101 38.0311 52.1677V87.8323C38.0311 88.1899 38.2221 88.5204 38.532 88.6988L69.5009 106.533C69.8099 106.711 70.1901 106.711 70.499 106.533L101.468 88.6988C101.778 88.5204 101.969 88.1899 101.969 87.8323V52.1677C101.969 51.8101 101.778 51.4796 101.468 51.3012L70.499 33.4667ZM71.0104 30.27C70.3851 29.91 69.6148 29.91 68.9896 30.27L36.0104 49.2622C35.3851 49.6223 35 50.2877 35 51.0078V88.9922C35 89.7123 35.3851 90.3777 36.0104 90.7378L68.9896 109.73C69.6148 110.09 70.3851 110.09 71.0104 109.73L103.99 90.7378C104.615 90.3777 105 89.7123 105 88.9922V51.0078C105 50.2877 104.615 49.6223 103.99 49.2622L71.0104 30.27Z" fill="#FEFCF9"/>
<path opacity="0.1" fill-rule="evenodd" clip-rule="evenodd" d="M71.0104 30.27C70.3851 29.91 69.6148 29.91 68.9896 30.27L36.0104 49.2622C35.3851 49.6223 35 50.2877 35 51.0078V88.9922C35 89.4659 35.1667 89.916 35.4588 90.271L104.837 50.2153C104.668 49.8209 104.374 49.4838 103.99 49.2622L71.0104 30.27Z" fill="#FEFCF9"/>
</svg>
