<svg width="140" height="140" viewBox="0 0 140 140" fill="none" xmlns="http://www.w3.org/2000/svg">
<path d="M68.891 31.4142C69.672 30.6332 70.9383 30.6332 71.7194 31.4142L109.196 68.8909C109.977 69.6719 109.977 70.9383 109.196 71.7193L71.7194 109.196C70.9383 109.977 69.672 109.977 68.891 109.196L31.4143 71.7193C30.6333 70.9383 30.6333 69.6719 31.4143 68.8909L68.891 31.4142Z" fill="#8E74DA"/>
<path opacity="0.1" d="M68.891 35.6569C69.672 34.8758 70.8224 34.7599 71.4604 35.3979L90.8113 54.7488L46.0843 82.1467L35.398 71.4604C34.76 70.8224 34.8759 69.672 35.6569 68.8909L68.891 35.6569Z" fill="#FEFCF9"/>
<path fill-rule="evenodd" clip-rule="evenodd" d="M71.7194 35.6569C70.9383 34.8758 69.672 34.8758 68.891 35.6569L35.6569 68.8909C34.8759 69.6719 34.8759 70.9383 35.6569 71.7193L68.891 104.953C69.672 105.734 70.9383 105.734 71.7194 104.953L104.953 71.7193C105.734 70.9383 105.734 69.6719 104.953 68.8909L71.7194 35.6569ZM71.7194 31.4142C70.9383 30.6332 69.672 30.6332 68.891 31.4142L31.4143 68.8909C30.6333 69.6719 30.6333 70.9383 31.4143 71.7193L68.891 109.196C69.672 109.977 70.9383 109.977 71.7194 109.196L109.196 71.7193C109.977 70.9383 109.977 69.6719 109.196 68.8909L71.7194 31.4142Z" fill="#FEFCF9"/>
</svg>
