<svg width="140" height="140" viewBox="0 0 140 140" fill="none" xmlns="http://www.w3.org/2000/svg">
<path d="M68.891 31.4142C69.672 30.6332 70.9383 30.6332 71.7194 31.4142L109.196 68.8909C109.977 69.6719 109.977 70.9383 109.196 71.7193L71.7194 109.196C70.9383 109.977 69.672 109.977 68.891 109.196L31.4143 71.7193C30.6333 70.9383 30.6333 69.6719 31.4143 68.8909L68.891 31.4142Z" fill="#8E74DA"/>
<g opacity="0.5">
<circle cx="67.0318" cy="75.5033" r="3" transform="rotate(58.4892 67.0318 75.5033)" fill="black"/>
<circle cx="90.0504" cy="61.3915" r="3" transform="rotate(58.4892 90.0504 61.3915)" fill="black"/>
<circle cx="82.3775" cy="66.0955" r="3" transform="rotate(58.4892 82.3775 66.0955)" fill="black"/>
<circle cx="74.7047" cy="70.7994" r="3" transform="rotate(58.4892 74.7047 70.7994)" fill="black"/>
<circle cx="67.0318" cy="75.5033" r="3" transform="rotate(58.4892 67.0318 75.5033)" fill="black"/>
<circle cx="51.6859" cy="84.9112" r="3" transform="rotate(58.4892 51.6859 84.9112)" fill="black"/>
<path d="M104.581 66.4487C104.307 66.7315 103.98 66.9576 103.618 67.114C103.256 67.2704 102.868 67.354 102.474 67.3601C102.08 67.3662 101.688 67.2947 101.322 67.1496C100.956 67.0045 100.622 66.7887 100.339 66.5145C100.056 66.2402 99.83 65.913 99.6736 65.5514C99.5172 65.1898 99.4336 64.8009 99.4275 64.407C99.4213 64.0131 99.4929 63.6218 99.638 63.2556C99.7831 62.8893 99.9989 62.5552 100.273 62.2723L102.427 64.3605L104.581 66.4487Z" fill="black"/>
<circle cx="94.7542" cy="69.0644" r="3" transform="rotate(58.4892 94.7542 69.0644)" fill="black"/>
<circle cx="87.0814" cy="73.7684" r="3" transform="rotate(58.4892 87.0814 73.7684)" fill="black"/>
<circle cx="79.4085" cy="78.4723" r="3" transform="rotate(58.4892 79.4085 78.4723)" fill="black"/>
<circle cx="71.7357" cy="83.1762" r="3" transform="rotate(58.4892 71.7357 83.1762)" fill="black"/>
<circle cx="64.0628" cy="87.8801" r="3" transform="rotate(58.4892 64.0628 87.8801)" fill="black"/>
<circle cx="59.3587" cy="80.2073" r="3" transform="rotate(58.4892 59.3587 80.2073)" fill="black"/>
<path d="M58.5329 94.6836C58.8086 94.4022 59.0262 94.0693 59.1732 93.7038C59.3202 93.3383 59.3939 92.9474 59.3898 92.5534C59.3858 92.1595 59.3042 91.7702 59.1498 91.4078C58.9953 91.0454 58.771 90.7169 58.4895 90.4412C58.2081 90.1655 57.8752 89.9479 57.5097 89.8009C57.1442 89.6538 56.7533 89.5802 56.3594 89.5842C55.9654 89.5882 55.5761 89.6698 55.2137 89.8243C54.8513 89.9788 54.5228 90.2031 54.2471 90.4845L56.39 92.5841L58.5329 94.6836Z" fill="black"/>
<path d="M105.6 74.6134C105.256 74.4091 104.956 74.1381 104.718 73.8162C104.481 73.4943 104.31 73.1281 104.215 72.7391C104.121 72.3501 104.106 71.9462 104.17 71.5511C104.235 71.1561 104.377 70.778 104.59 70.4389C104.803 70.0999 105.081 69.8069 105.409 69.5771C105.736 69.3473 106.107 69.1854 106.498 69.1009C106.889 69.0165 107.293 69.0112 107.687 69.0853C108.08 69.1594 108.455 69.3115 108.788 69.5325L107.131 72.0334L105.6 74.6134Z" fill="black"/>
<circle cx="99.4581" cy="76.7373" r="3" transform="rotate(58.4892 99.4581 76.7373)" fill="black"/>
<circle cx="91.7853" cy="81.4412" r="3" transform="rotate(58.4892 91.7853 81.4412)" fill="black"/>
<circle cx="84.1124" cy="86.1452" r="3" transform="rotate(58.4892 84.1124 86.1452)" fill="black"/>
<circle cx="76.4396" cy="90.8491" r="3" transform="rotate(58.4892 76.4396 90.8491)" fill="black"/>
<circle cx="68.7667" cy="95.553" r="3" transform="rotate(58.4892 68.7667 95.553)" fill="black"/>
<path d="M63.1466 102.445C63.4339 102.175 63.6653 101.852 63.8276 101.493C63.9898 101.134 64.0798 100.746 64.0923 100.352C64.1049 99.9586 64.0397 99.5662 63.9006 99.1976C63.7615 98.8291 63.5511 98.4915 63.2816 98.2042C63.012 97.9169 62.6885 97.6855 62.3295 97.5232C61.9705 97.361 61.583 97.271 61.1893 97.2585C60.7955 97.2459 60.4031 97.3111 60.0345 97.4502C59.6659 97.5893 59.3284 97.7997 59.0411 98.0692L61.0938 100.257L63.1466 102.445Z" fill="black"/>
<path d="M78.9723 100.592C78.4232 100.016 78.1253 99.2461 78.1443 98.4507C78.1632 97.6553 78.4973 96.8999 79.0731 96.3508C79.6489 95.8018 80.4193 95.5039 81.2147 95.5228C82.0101 95.5417 82.7655 95.8758 83.3145 96.4517L81.1434 98.522L78.9723 100.592Z" fill="black"/>
<path d="M72.2244 105.955C71.7951 105.759 71.4181 105.464 71.124 105.095C70.83 104.726 70.6272 104.293 70.5321 103.83C70.437 103.368 70.4523 102.89 70.5768 102.435C70.7012 101.979 70.9313 101.56 71.2484 101.21C71.5654 100.861 71.9605 100.591 72.4015 100.423C72.8424 100.255 73.3168 100.193 73.7862 100.243C74.2555 100.292 74.7065 100.452 75.1025 100.709C75.4985 100.965 75.8283 101.312 76.0652 101.72L73.4706 103.226L72.2244 105.955Z" fill="black"/>
</g>
<path opacity="0.1" d="M68.891 35.6569C69.672 34.8758 70.8224 34.7599 71.4604 35.3979L90.8113 54.7488L46.0843 82.1467L35.398 71.4604C34.76 70.8224 34.8759 69.672 35.6569 68.8909L68.891 35.6569Z" fill="#FEFCF9"/>
<path fill-rule="evenodd" clip-rule="evenodd" d="M71.7194 35.6569C70.9383 34.8758 69.672 34.8758 68.891 35.6569L35.6569 68.8909C34.8759 69.6719 34.8759 70.9383 35.6569 71.7193L68.891 104.953C69.672 105.734 70.9383 105.734 71.7194 104.953L104.953 71.7193C105.734 70.9383 105.734 69.6719 104.953 68.8909L71.7194 35.6569ZM71.7194 31.4142C70.9383 30.6332 69.672 30.6332 68.891 31.4142L31.4143 68.8909C30.6333 69.6719 30.6333 70.9383 31.4143 71.7193L68.891 109.196C69.672 109.977 70.9383 109.977 71.7194 109.196L109.196 71.7193C109.977 70.9383 109.977 69.6719 109.196 68.8909L71.7194 31.4142Z" fill="#FEFCF9"/>
</svg>
