<svg width="140" height="140" viewBox="0 0 140 140" fill="none" xmlns="http://www.w3.org/2000/svg">
<path d="M71.7194 109.196C70.9383 109.977 69.672 109.977 68.891 109.196L31.4143 71.7192C30.6333 70.9382 30.6333 69.6719 31.4143 68.8908L68.891 31.4141C69.672 30.6331 70.9383 30.6331 71.7194 31.4141L109.196 68.8908C109.977 69.6719 109.977 70.9382 109.196 71.7192L71.7194 109.196Z" fill="#8E74DA"/>
<g opacity="0.5">
<path d="M54.3035 50.1429L52.7344 47.5859L73.4027 34.9025L74.9718 37.4595L54.3035 50.1429Z" fill="black"/>
<path d="M33.8574 70.903L32.2883 68.3461L78.7928 39.8079L80.3619 42.3648L33.8574 70.903Z" fill="black"/>
<path d="M37.5186 76.8691L35.9495 74.3121L83.6902 45.0153L85.2593 47.5722L37.5186 76.8691Z" fill="black"/>
<path d="M42.6792 81.9155L41.1101 79.3585L88.6123 50.2081L90.1814 52.765L42.6792 81.9155Z" fill="black"/>
<path d="M47.8787 86.9374L46.3096 84.3804L94.0702 55.0714L95.6393 57.6283L47.8787 86.9374Z" fill="black"/>
</g>
<path opacity="0.1" d="M71.7194 104.953C70.9383 105.734 69.7879 105.85 69.1499 105.212L49.7991 85.8613L94.5261 58.4634L105.212 69.1497C105.85 69.7878 105.734 70.9382 104.953 71.7192L71.7194 104.953Z" fill="#FEFCF9"/>
<path fill-rule="evenodd" clip-rule="evenodd" d="M68.891 104.953C69.672 105.734 70.9383 105.734 71.7194 104.953L104.953 71.7192C105.734 70.9382 105.734 69.6719 104.953 68.8908L71.7194 35.6568C70.9383 34.8757 69.672 34.8757 68.891 35.6568L35.6569 68.8908C34.8759 69.6719 34.8759 70.9382 35.6569 71.7192L68.891 104.953ZM68.891 109.196C69.672 109.977 70.9383 109.977 71.7194 109.196L109.196 71.7192C109.977 70.9382 109.977 69.6719 109.196 68.8908L71.7194 31.4141C70.9383 30.6331 69.672 30.6331 68.891 31.4141L31.4143 68.8908C30.6333 69.6719 30.6333 70.9382 31.4143 71.7192L68.891 109.196Z" fill="#FEFCF9"/>
</svg>
