<svg width="272" height="72" viewBox="0 0 272 72" fill="none" xmlns="http://www.w3.org/2000/svg">
<g clip-path="url(#clip0_363_15570)">
<g clip-path="url(#clip1_363_15570)">
<path d="M125.341 39.8602C129.457 34.6995 134.521 34.278 133.337 28.4341C139.593 25.9644 151.561 34.6609 156.928 38.6883C161.427 42.0647 159.727 44.8175 161.898 46.7706C162.688 54.974 153.078 67.4977 153.078 67.4977C153.078 67.4977 132.448 76.873 114.681 68.279C117.741 59.1967 119.405 47.304 125.341 39.8602Z" fill="#315F68"/>
<path d="M125.341 39.8603C129.457 34.6996 155.122 62.3062 153.938 56.4624C158.083 57.9273 157.14 59.8805 157.14 61.5407C155.037 65.0171 153.078 67.4978 153.078 67.4978C153.078 67.4978 132.448 76.8731 114.681 68.2791C117.741 59.1968 119.405 47.3041 125.341 39.8603Z" fill="#154A55"/>
<path d="M133.337 28.4342C140.937 37.9072 121.591 47.7707 114.681 68.2791C111.685 64.3968 108.167 41.9112 114.681 38.2978C121.394 34.0984 124.827 30.1397 133.337 28.4342Z" fill="#2E5158"/>
<path d="M117.741 42.3995C119.814 40.4463 127.758 33.8 133.929 31.364C140.185 28.8943 150.088 35.954 154.953 39.079C163.944 50.1312 159.912 54.2995 149.524 64.0798C139.639 73.3869 115.569 66.0329 115.569 64.2751C115.569 54.7931 113.496 49.0403 117.741 42.3995Z" fill="#406D76"/>
<path d="M134.719 31.1687C134.719 31.1687 133.483 29.4661 133.337 28.4342C133.922 28.7438 135.311 30.1921 135.41 30.9733C135.015 31.071 134.719 31.1687 134.719 31.1687Z" fill="#3C948F"/>
<path d="M115.273 44.7433C115.767 42.6924 130.408 31.3965 135.409 30.9733C130.178 33.5776 118.629 41.3643 116.26 45.0362C114.312 48.0558 115.273 59.0015 115.865 64.1774C116.11 65.3375 117.642 65.5447 118.728 66.033C118.728 66.033 117.247 65.8377 116.162 65.3494C115.668 64.9587 114.681 68.2791 114.681 68.2791C114.32 67.7893 115.522 66.6398 115.471 64.0798C115.359 58.474 113.804 50.8478 115.273 44.7433Z" fill="#3F908C"/>
<path d="M157.125 61.7358C157.125 54.116 153.769 61.0523 149.228 64.3726C150.314 63.3961 153.966 58.9038 156.927 55.974C160.041 52.8936 159.889 47.9659 159.889 47.9659C159.889 47.9659 160.102 50.0068 159.889 51.2863C159.426 54.0683 156.434 57.2435 156.434 57.2435C157.138 59.0477 158.112 58.9037 157.125 61.7358Z" fill="#3F908C"/>
</g>
<path d="M129.768 43.839C129.768 43.5631 129.994 43.3395 130.273 43.3395L142.727 43.3395C143.006 43.3395 143.232 43.5631 143.232 43.839V56.161C143.232 56.4369 143.006 56.6606 142.727 56.6606H130.273C129.994 56.6606 129.768 56.4369 129.768 56.161V43.839Z" fill="#6BC6D0"/>
<path opacity="0.1" d="M129.972 44.3663C129.972 43.9107 130.341 43.5413 130.797 43.5413H134.182L139.356 56.6606H129.972V44.3663Z" fill="#FEFCF9"/>
<path fill-rule="evenodd" clip-rule="evenodd" d="M130.375 43.7431C130.265 43.7431 130.176 43.8312 130.176 43.9399V56.2619C130.176 56.3706 130.265 56.4587 130.375 56.4587H142.829C142.939 56.4587 143.028 56.3706 143.028 56.2619V43.9399C143.028 43.8312 142.939 43.7431 142.829 43.7431H130.375ZM129.564 43.9399C129.564 43.4968 129.927 43.1376 130.375 43.1376H142.829C143.277 43.1376 143.64 43.4968 143.64 43.9399V56.2619C143.64 56.705 143.277 57.0642 142.829 57.0642H130.375C129.927 57.0642 129.564 56.705 129.564 56.2619V43.9399Z" fill="#FEFCF9"/>
</g>
<g clip-path="url(#clip2_363_15570)">
<g clip-path="url(#clip3_363_15570)">
<path d="M180.341 39.8602C184.457 34.6995 189.521 34.278 188.337 28.4341C194.593 25.9644 206.561 34.6609 211.928 38.6883C216.427 42.0647 214.727 44.8175 216.898 46.7706C217.688 54.974 208.078 67.4977 208.078 67.4977C208.078 67.4977 187.448 76.873 169.681 68.279C172.741 59.1967 174.405 47.304 180.341 39.8602Z" fill="#315F68"/>
<path d="M180.341 39.8603C184.457 34.6996 210.122 62.3062 208.938 56.4624C213.083 57.9273 212.14 59.8805 212.14 61.5407C210.037 65.0171 208.078 67.4978 208.078 67.4978C208.078 67.4978 187.448 76.8731 169.681 68.2791C172.741 59.1968 174.405 47.3041 180.341 39.8603Z" fill="#154A55"/>
<path d="M188.337 28.4342C195.937 37.9072 176.591 47.7707 169.681 68.2791C166.685 64.3968 163.167 41.9112 169.681 38.2978C176.394 34.0984 179.827 30.1397 188.337 28.4342Z" fill="#2E5158"/>
<path d="M172.741 42.3995C174.814 40.4463 182.758 33.8 188.929 31.364C195.185 28.8943 205.088 35.954 209.953 39.079C218.944 50.1312 214.912 54.2995 204.524 64.0798C194.639 73.3869 170.569 66.0329 170.569 64.2751C170.569 54.7931 168.496 49.0403 172.741 42.3995Z" fill="#406D76"/>
<path d="M189.719 31.1687C189.719 31.1687 188.483 29.4661 188.337 28.4342C188.922 28.7438 190.311 30.1921 190.41 30.9733C190.015 31.071 189.719 31.1687 189.719 31.1687Z" fill="#3C948F"/>
<path d="M170.273 44.7433C170.767 42.6924 185.408 31.3965 190.409 30.9733C185.178 33.5776 173.629 41.3643 171.26 45.0362C169.312 48.0558 170.273 59.0015 170.865 64.1774C171.11 65.3375 172.642 65.5447 173.728 66.033C173.728 66.033 172.247 65.8377 171.162 65.3494C170.668 64.9587 169.681 68.2791 169.681 68.2791C169.32 67.7893 170.522 66.6398 170.471 64.0798C170.359 58.474 168.804 50.8478 170.273 44.7433Z" fill="#3F908C"/>
<path d="M212.125 61.7358C212.125 54.116 208.769 61.0523 204.228 64.3726C205.314 63.3961 208.966 58.9038 211.927 55.974C215.041 52.8936 214.889 47.9659 214.889 47.9659C214.889 47.9659 215.102 50.0068 214.889 51.2863C214.426 54.0683 211.434 57.2435 211.434 57.2435C212.138 59.0477 213.112 58.9037 212.125 61.7358Z" fill="#3F908C"/>
</g>
<path d="M184.768 43.839C184.768 43.5631 184.994 43.3395 185.273 43.3395L197.727 43.3395C198.006 43.3395 198.232 43.5631 198.232 43.839V56.161C198.232 56.4369 198.006 56.6606 197.727 56.6606H185.273C184.994 56.6606 184.768 56.4369 184.768 56.161V43.839Z" fill="#6BC6D0"/>
<path opacity="0.1" d="M184.972 44.3663C184.972 43.9107 185.341 43.5413 185.797 43.5413H189.182L194.356 56.6606H184.972V44.3663Z" fill="#FEFCF9"/>
<path fill-rule="evenodd" clip-rule="evenodd" d="M185.375 43.7431C185.265 43.7431 185.176 43.8312 185.176 43.9399V56.2619C185.176 56.3706 185.265 56.4587 185.375 56.4587H197.829C197.939 56.4587 198.028 56.3706 198.028 56.2619V43.9399C198.028 43.8312 197.939 43.7431 197.829 43.7431H185.375ZM184.564 43.9399C184.564 43.4968 184.927 43.1376 185.375 43.1376H197.829C198.277 43.1376 198.64 43.4968 198.64 43.9399V56.2619C198.64 56.705 198.277 57.0642 197.829 57.0642H185.375C184.927 57.0642 184.564 56.705 184.564 56.2619V43.9399Z" fill="#FEFCF9"/>
</g>
<g opacity="0.5" clip-path="url(#clip4_363_15570)">
<g clip-path="url(#clip5_363_15570)">
<path d="M235.341 39.8602C239.457 34.6995 244.521 34.278 243.337 28.4341C249.593 25.9644 261.561 34.6609 266.928 38.6883C271.427 42.0647 269.727 44.8175 271.898 46.7706C272.688 54.974 263.078 67.4977 263.078 67.4977C263.078 67.4977 242.448 76.873 224.681 68.279C227.741 59.1967 229.405 47.304 235.341 39.8602Z" fill="#315F68"/>
<path d="M235.341 39.8603C239.457 34.6996 265.122 62.3062 263.938 56.4624C268.083 57.9273 267.14 59.8805 267.14 61.5407C265.037 65.0171 263.078 67.4978 263.078 67.4978C263.078 67.4978 242.448 76.8731 224.681 68.2791C227.741 59.1968 229.405 47.3041 235.341 39.8603Z" fill="#154A55"/>
<path d="M243.337 28.4342C250.937 37.9072 231.591 47.7707 224.681 68.2791C221.685 64.3968 218.167 41.9112 224.681 38.2978C231.394 34.0984 234.827 30.1397 243.337 28.4342Z" fill="#2E5158"/>
<path d="M227.741 42.3995C229.814 40.4463 237.758 33.8 243.929 31.364C250.185 28.8943 260.088 35.954 264.953 39.079C273.944 50.1312 269.912 54.2995 259.524 64.0798C249.639 73.3869 225.569 66.0329 225.569 64.2751C225.569 54.7931 223.496 49.0403 227.741 42.3995Z" fill="#406D76"/>
<path d="M244.719 31.1687C244.719 31.1687 243.483 29.4661 243.337 28.4342C243.922 28.7438 245.311 30.1921 245.41 30.9733C245.015 31.071 244.719 31.1687 244.719 31.1687Z" fill="#3C948F"/>
<path d="M225.273 44.7433C225.767 42.6924 240.408 31.3965 245.409 30.9733C240.178 33.5776 228.629 41.3643 226.26 45.0362C224.312 48.0558 225.273 59.0015 225.865 64.1774C226.11 65.3375 227.642 65.5447 228.728 66.033C228.728 66.033 227.247 65.8377 226.162 65.3494C225.668 64.9587 224.681 68.2791 224.681 68.2791C224.32 67.7893 225.522 66.6398 225.471 64.0798C225.359 58.474 223.804 50.8478 225.273 44.7433Z" fill="#3F908C"/>
<path d="M267.125 61.7358C267.125 54.116 263.769 61.0523 259.228 64.3726C260.314 63.3961 263.966 58.9038 266.927 55.974C270.041 52.8936 269.889 47.9659 269.889 47.9659C269.889 47.9659 270.102 50.0068 269.889 51.2863C269.426 54.0683 266.434 57.2435 266.434 57.2435C267.138 59.0477 268.112 58.9037 267.125 61.7358Z" fill="#3F908C"/>
</g>
<path d="M246.274 42.2121C246.433 42.0544 246.691 42.0544 246.851 42.2121L254.496 49.7762C254.655 49.9338 254.655 50.1894 254.496 50.347L246.851 57.9111C246.691 58.0688 246.433 58.0688 246.274 57.9111L238.629 50.347C238.469 50.1894 238.469 49.9338 238.629 49.7762L246.274 42.2121Z" fill="#8E74DA"/>
<path opacity="0.1" d="M246.274 43.0684C246.433 42.9108 246.668 42.8874 246.798 43.0161L250.745 46.9218L241.621 52.4517L239.441 50.2948C239.311 50.166 239.335 49.9338 239.494 49.7762L246.274 43.0684Z" fill="#FEFCF9"/>
<path fill-rule="evenodd" clip-rule="evenodd" d="M246.851 43.0684C246.691 42.9107 246.433 42.9107 246.274 43.0684L239.494 49.7762C239.335 49.9338 239.335 50.1894 239.494 50.347L246.274 57.0548C246.433 57.2125 246.691 57.2125 246.851 57.0548L253.63 50.347C253.79 50.1894 253.79 49.9338 253.63 49.7762L246.851 43.0684ZM246.851 42.2121C246.691 42.0544 246.433 42.0544 246.274 42.2121L238.629 49.7762C238.469 49.9338 238.469 50.1894 238.629 50.347L246.274 57.9111C246.433 58.0688 246.691 58.0688 246.851 57.9111L254.496 50.347C254.655 50.1894 254.655 49.9338 254.496 49.7762L246.851 42.2121Z" fill="#FEFCF9"/>
</g>
<g opacity="0.5" clip-path="url(#clip6_363_15570)">
<g clip-path="url(#clip7_363_15570)">
<path d="M69.6225 39.8602C73.8188 34.6995 78.9823 34.278 77.7746 28.4341C84.1537 25.9644 96.3558 34.6609 101.828 38.6883C106.416 42.0647 104.682 44.8175 106.896 46.7706C107.701 54.974 97.903 67.4977 97.903 67.4977C97.903 67.4977 76.8688 76.873 58.7532 68.279C61.8731 59.1967 63.5698 47.304 69.6225 39.8602Z" fill="#315F68"/>
<path d="M69.6225 39.8603C73.8188 34.6996 99.9871 62.3062 98.7793 56.4624C103.006 57.9273 102.044 59.8805 102.044 61.5407C99.9003 65.0171 97.903 67.4978 97.903 67.4978C97.903 67.4978 76.8688 76.8731 58.7532 68.2791C61.8731 59.1968 63.5698 47.3041 69.6225 39.8603Z" fill="#154A55"/>
<path d="M77.7746 28.4342C85.524 37.9072 65.7982 47.7707 58.7532 68.2791C55.698 64.3968 52.1117 41.9112 58.7532 38.2978C65.5978 34.0984 69.0982 30.1397 77.7746 28.4342Z" fill="#2E5158"/>
<path d="M61.8732 42.3995C63.9867 40.4463 72.0864 33.8 78.3785 31.364C84.7577 28.8943 94.8544 35.954 99.8153 39.079C108.983 50.1312 104.872 54.2995 94.28 64.0798C84.201 73.3869 59.6591 66.0329 59.6591 64.2751C59.659 54.7931 57.5456 49.0403 61.8732 42.3995Z" fill="#406D76"/>
<path d="M79.1836 31.1687C79.1836 31.1687 77.9237 29.4661 77.7747 28.4342C78.3711 28.7438 79.7875 30.1921 79.8881 30.9733C79.4856 31.071 79.1836 31.1687 79.1836 31.1687Z" fill="#3C948F"/>
<path d="M59.3572 44.7433C59.8605 42.6924 74.789 31.3965 79.8883 30.9733C74.5542 33.5776 62.7791 41.3643 60.3637 45.0362C58.3774 48.0558 59.3572 59.0015 59.9611 64.1774C60.2105 65.3375 61.7726 65.5447 62.8797 66.033C62.8797 66.033 61.3701 65.8377 60.263 65.3494C59.7598 64.9587 58.7534 68.2791 58.7534 68.2791C58.3853 67.7893 59.6106 66.6398 59.5585 64.0798C59.4444 58.474 57.8593 50.8478 59.3572 44.7433Z" fill="#3F908C"/>
<path d="M102.029 61.7358C102.029 54.116 98.6075 61.0523 93.978 64.3726C95.0851 63.3961 98.8088 58.9038 101.828 55.974C105.002 52.8936 104.847 47.9659 104.847 47.9659C104.847 47.9659 105.064 50.0068 104.847 51.2863C104.375 54.0683 101.325 57.2435 101.325 57.2435C102.042 59.0477 103.036 58.9037 102.029 61.7358Z" fill="#3F908C"/>
</g>
<path fill-rule="evenodd" clip-rule="evenodd" d="M84.539 53.4341L84.6006 53.491C85.6802 54.4876 87.4306 54.4876 88.5102 53.491C89.5454 52.5354 89.588 51.0104 88.6377 50.0078C89.573 48.9958 89.5228 47.4732 88.4859 46.516C87.4901 45.5968 85.9291 45.5174 84.8358 46.2778C85.6194 45.2169 85.5376 43.7021 84.5903 42.7359C83.6039 41.7298 82.0348 41.681 80.9919 42.5886C79.9587 41.6664 78.387 41.7078 77.4022 42.7123C76.4262 43.7078 76.3777 45.2911 77.2566 46.3451C76.1603 45.5136 74.5381 45.5705 73.5139 46.516C72.477 47.4732 72.4268 48.9958 73.3621 50.0078C72.4118 51.0104 72.4544 52.5354 73.4896 53.491C74.5157 54.4383 76.1478 54.4852 77.2339 53.6318C76.3765 54.6956 76.4351 56.2701 77.4096 57.2641C78.396 58.2703 79.9652 58.319 81.0081 57.4115C82.0413 58.3336 83.6129 58.2922 84.5977 57.2877C85.6248 56.2401 85.6248 54.5416 84.5977 53.494L84.539 53.4341Z" fill="#00B594"/>
<g opacity="0.5">
<circle cx="0.614822" cy="0.614822" r="0.614822" transform="matrix(0.717663 0.696391 -0.717663 0.696391 86.1565 45.7615)" fill="black"/>
<circle cx="0.614822" cy="0.614822" r="0.614822" transform="matrix(0.717662 0.696391 -0.717662 0.696391 80.8616 50.8994)" fill="black"/>
<circle cx="0.614822" cy="0.614822" r="0.614822" transform="matrix(0.717662 0.696391 -0.717662 0.696391 84.8328 47.046)" fill="black"/>
<circle cx="0.614822" cy="0.614822" r="0.614822" transform="matrix(0.717663 0.696391 -0.717663 0.696391 83.509 48.3304)" fill="black"/>
<circle cx="0.614822" cy="0.614822" r="0.614822" transform="matrix(0.717663 0.696391 -0.717663 0.696391 82.1853 49.6149)" fill="black"/>
<circle cx="0.614822" cy="0.614822" r="0.614822" transform="matrix(0.717662 0.696391 -0.717662 0.696391 80.8616 50.8994)" fill="black"/>
<circle cx="0.614822" cy="0.614822" r="0.614822" transform="matrix(0.717663 0.696391 -0.717663 0.696391 78.2141 53.4683)" fill="black"/>
<path d="M76.824 55.007C76.9055 54.9985 76.9879 55.0057 77.0665 55.0281C77.1451 55.0505 77.2184 55.0877 77.2822 55.1376C77.346 55.1876 77.3991 55.2492 77.4383 55.319C77.4776 55.3887 77.5023 55.4654 77.5111 55.5444C77.5198 55.6235 77.5124 55.7034 77.4893 55.7797C77.4662 55.856 77.4279 55.9272 77.3764 55.9891C77.325 56.051 77.2615 56.1024 77.1896 56.1405C77.1177 56.1786 77.0387 56.2026 76.9572 56.2111L76.8906 55.6091L76.824 55.007Z" fill="black"/>
<circle cx="0.614822" cy="0.614822" r="0.614822" transform="matrix(0.717662 0.696391 -0.717662 0.696391 87.4802 47.046)" fill="black"/>
<circle cx="0.614822" cy="0.614822" r="0.614822" transform="matrix(0.717663 0.696391 -0.717663 0.696391 86.1565 48.3304)" fill="black"/>
<circle cx="0.614822" cy="0.614822" r="0.614822" transform="matrix(0.717663 0.696391 -0.717663 0.696391 84.8328 49.6149)" fill="black"/>
<circle cx="0.614822" cy="0.614822" r="0.614822" transform="matrix(0.717662 0.696391 -0.717662 0.696391 83.509 50.8994)" fill="black"/>
<circle cx="0.614822" cy="0.614822" r="0.614822" transform="matrix(0.717663 0.696391 -0.717663 0.696391 82.1853 52.1838)" fill="black"/>
<circle cx="0.614822" cy="0.614822" r="0.614822" transform="matrix(0.717663 0.696391 -0.717663 0.696391 80.8616 53.4683)" fill="black"/>
<circle cx="0.614822" cy="0.614822" r="0.614822" transform="matrix(0.717663 0.696391 -0.717663 0.696391 79.5378 52.1838)" fill="black"/>
<circle cx="0.614822" cy="0.614822" r="0.614822" transform="matrix(0.717663 0.696391 -0.717663 0.696391 79.5378 54.7527)" fill="black"/>
<circle cx="0.614822" cy="0.614822" r="0.614822" transform="matrix(0.717663 0.696391 -0.717663 0.696391 78.2141 56.0372)" fill="black"/>
<path d="M88.6239 49.7665C88.5374 49.7412 88.4575 49.6979 88.3898 49.6397C88.3222 49.5815 88.2684 49.5097 88.2322 49.4293C88.196 49.3488 88.1782 49.2618 88.1801 49.174C88.182 49.0863 88.2035 49 88.2432 48.9212C88.2828 48.8423 88.3397 48.7728 88.4098 48.7173C88.4799 48.6619 88.5616 48.6219 88.6492 48.6002C88.7368 48.5784 88.8282 48.5754 88.9172 48.5913C89.0061 48.6072 89.0904 48.6417 89.1642 48.6924L88.804 49.1868L88.6239 49.7665Z" fill="black"/>
<circle cx="0.614822" cy="0.614822" r="0.614822" transform="matrix(0.717663 0.696391 -0.717663 0.696391 87.4802 49.6149)" fill="black"/>
<circle cx="0.614822" cy="0.614822" r="0.614822" transform="matrix(0.717662 0.696391 -0.717662 0.696391 86.1565 50.8994)" fill="black"/>
<path d="M85.274 53.4683C85.3511 53.3935 85.4067 53.3003 85.4352 53.1981C85.4636 53.0959 85.464 52.9883 85.4362 52.8859C85.4084 52.7835 85.3534 52.69 85.2768 52.6147C85.2001 52.5394 85.1045 52.4849 84.9993 52.4566C84.8942 52.4284 84.7833 52.4273 84.6776 52.4537C84.572 52.48 84.4753 52.5327 84.3971 52.6066C84.319 52.6805 84.2623 52.773 84.2325 52.8748C84.2027 52.9767 84.2009 53.0843 84.2274 53.187L84.8328 53.0402L85.274 53.4683Z" fill="black"/>
<circle cx="0.614822" cy="0.614822" r="0.614822" transform="matrix(0.717663 0.696391 -0.717663 0.696391 83.509 53.4683)" fill="black"/>
<circle cx="0.614822" cy="0.614822" r="0.614822" transform="matrix(0.717663 0.696391 -0.717663 0.696391 82.1853 54.7527)" fill="black"/>
<path d="M81.3028 57.3217C81.3946 57.2326 81.4555 57.118 81.477 56.9937C81.4985 56.8695 81.4795 56.7418 81.4226 56.6286C81.3658 56.5153 81.274 56.422 81.16 56.3618C81.046 56.3015 80.9154 56.2773 80.7865 56.2924C80.6577 56.3076 80.5368 56.3614 80.4409 56.4463C80.345 56.5312 80.2788 56.643 80.2515 56.7662C80.2242 56.8894 80.2372 57.0177 80.2886 57.1334C80.34 57.2491 80.4274 57.3463 80.5384 57.4115L80.8616 56.8935L81.3028 57.3217Z" fill="black"/>
<path d="M88.9774 52.3373C88.8789 52.365 88.7748 52.3687 88.6744 52.348C88.574 52.3273 88.4804 52.2829 88.402 52.2188C88.3235 52.1546 88.2625 52.0727 88.2244 51.9802C88.1864 51.8877 88.1724 51.7876 88.1838 51.6886C88.1952 51.5896 88.2315 51.4949 88.2896 51.4129C88.3477 51.3308 88.4258 51.2639 88.5169 51.218C88.608 51.1722 88.7093 51.1489 88.8119 51.1502C88.9145 51.1515 89.0153 51.1773 89.1051 51.2254L88.804 51.7557L88.9774 52.3373Z" fill="black"/>
<circle cx="0.614822" cy="0.614822" r="0.614822" transform="matrix(0.717663 0.696391 -0.717663 0.696391 87.4802 52.1838)" fill="black"/>
<path d="M84.9258 56.2078C84.831 56.2217 84.7343 56.2142 84.643 56.1859C84.5517 56.1576 84.4684 56.1093 84.3995 56.0448C84.3305 55.9802 84.2778 55.9011 84.2455 55.8136C84.2131 55.7261 84.2019 55.6326 84.2128 55.5402C84.2237 55.4478 84.2564 55.3591 84.3083 55.281C84.3602 55.2029 84.43 55.1374 84.5121 55.0896C84.5943 55.0418 84.6868 55.0131 84.7823 55.0055C84.8777 54.998 84.9737 55.0119 85.0628 55.0462L84.8328 55.6091L84.9258 56.2078Z" fill="black"/>
<circle cx="0.614822" cy="0.614822" r="0.614822" transform="matrix(0.717663 0.696391 -0.717663 0.696391 83.509 56.0372)" fill="black"/>
</g>
<path opacity="0.1" fill-rule="evenodd" clip-rule="evenodd" d="M77.2116 53.6492L84.8967 46.1919C85.6144 45.1364 85.5123 43.6763 84.5903 42.7359C83.6039 41.7298 82.0348 41.681 80.9919 42.5886C79.9587 41.6664 78.387 41.7078 77.4022 42.7123C76.4262 43.7078 76.3777 45.2911 77.2566 46.3451C76.1603 45.5136 74.5381 45.5705 73.5139 46.516C72.477 47.4732 72.4268 48.9958 73.3621 50.0078C72.4118 51.0104 72.4544 52.5354 73.4896 53.491C74.5087 54.4318 76.1255 54.4845 77.2116 53.6492Z" fill="#FEFCF9"/>
<path fill-rule="evenodd" clip-rule="evenodd" d="M84.0978 53.006C84.3372 52.7737 84.7238 52.769 84.9691 52.9954L85.0307 53.0523C85.8694 53.8265 87.2414 53.8265 88.0801 53.0523C88.8682 52.3248 88.8985 51.1774 88.1784 50.4177C87.9608 50.1881 87.9586 49.8357 88.1732 49.6035C88.8836 48.8349 88.8477 47.6857 88.0558 46.9547C87.2822 46.2406 86.055 46.1749 85.1993 46.77C84.951 46.9426 84.6105 46.9156 84.3945 46.706C84.1786 46.4964 84.1507 46.166 84.3286 45.9251C84.9419 45.0948 84.8741 43.9039 84.1382 43.1533C83.3849 42.3849 82.2006 42.35 81.4085 43.0394C81.1692 43.2476 80.806 43.2454 80.5694 43.0342C79.7865 42.3355 78.6041 42.3649 77.8543 43.1297C77.0973 43.9018 77.0571 45.1433 77.7417 45.9642C77.9413 46.2035 77.924 46.5501 77.7016 46.7696C77.4791 46.9892 77.1223 47.0118 76.8723 46.8221C76.0157 46.1724 74.7403 46.2196 73.944 46.9547C73.1521 47.6857 73.1162 48.8349 73.8266 49.6035C74.0413 49.8357 74.039 50.1881 73.8214 50.4177C73.1013 51.1774 73.1316 52.3248 73.9197 53.0523C74.7156 53.787 75.9953 53.8259 76.8413 53.1613C77.0879 52.9675 77.4451 52.9842 77.6714 53.2001C77.8977 53.416 77.921 53.7623 77.7255 54.0049C77.0555 54.8361 77.1041 56.074 77.8617 56.8468C78.6151 57.6152 79.7993 57.65 80.5915 56.9607C80.8308 56.7525 81.1939 56.7547 81.4305 56.9658C82.2134 57.6646 83.3958 57.6351 84.1456 56.8704C84.9435 56.0566 84.9435 54.7252 84.1456 53.9114L84.0869 53.8515C83.8535 53.6135 83.8584 53.2383 84.0978 53.006ZM84.539 53.4341L84.5977 53.494C84.9122 53.8148 85.1304 54.1966 85.2523 54.6021C85.5285 55.5208 85.3103 56.5609 84.5977 57.2877C83.6129 58.2922 82.0413 58.3336 81.0081 57.4115C79.9652 58.319 78.396 58.2703 77.4096 57.2641C76.7044 56.5448 76.4788 55.5214 76.733 54.6076C76.8301 54.2587 76.997 53.9258 77.2339 53.6318C76.9348 53.8668 76.5943 54.0336 76.2365 54.132C75.2949 54.3911 74.2332 54.1774 73.4896 53.491C72.4544 52.5354 72.4118 51.0104 73.3621 50.0078C72.4268 48.9958 72.477 47.4732 73.5139 46.516C74.2552 45.8317 75.3098 45.6128 76.2515 45.8594C76.6109 45.9535 76.9538 46.1154 77.2566 46.3451C77.0146 46.0549 76.843 45.7247 76.7416 45.3776C76.4747 44.4639 76.6949 43.4338 77.4022 42.7123C78.387 41.7078 79.9587 41.6664 80.9919 42.5886C82.0348 41.681 83.6039 41.7298 84.5903 42.7359C85.2904 43.45 85.5178 44.4637 85.2724 45.3724C85.1858 45.6933 85.0402 46.001 84.8358 46.2778C85.1211 46.0794 85.4382 45.9382 85.7688 45.8541C86.7053 45.616 87.75 45.8366 88.4859 46.516C89.5228 47.4732 89.573 48.9958 88.6377 50.0078C89.588 51.0104 89.5454 52.5354 88.5102 53.491C87.7612 54.1824 86.6894 54.3942 85.7427 54.1263C85.3248 54.008 84.9314 53.7963 84.6008 53.4912C84.6007 53.4911 84.6007 53.4911 84.6006 53.491L84.539 53.4341Z" fill="#FEFCF9"/>
</g>
<path d="M192 22.5V12C192 6.47715 187.523 2 182 2H146.5C140.977 2 136.5 6.47715 136.5 12V22.5M136.5 22.5L132 18M136.5 22.5L141 18" stroke="#FEFCF9" stroke-width="2" stroke-linecap="round" stroke-linejoin="round"/>
<g opacity="0.5" clip-path="url(#clip8_363_15570)">
<g clip-path="url(#clip9_363_15570)">
<path d="M14.3415 39.8602C18.457 34.6995 23.5212 34.278 22.3367 28.4341C28.5933 25.9644 40.5606 34.6609 45.9277 38.6883C50.4272 42.0647 48.7265 44.8175 50.8981 46.7706C51.6877 54.974 42.0781 67.4977 42.0781 67.4977C42.0781 67.4977 21.4484 76.873 3.68115 68.279C6.74106 59.1967 8.40513 47.304 14.3415 39.8602Z" fill="#315F68"/>
<path d="M14.3415 39.8603C18.457 34.6996 44.1221 62.3062 42.9376 56.4624C47.0833 57.9273 46.1396 59.8805 46.1396 61.5407C44.0369 65.0171 42.0781 67.4978 42.0781 67.4978C42.0781 67.4978 21.4484 76.8731 3.68115 68.2791C6.74106 59.1968 8.40513 47.3041 14.3415 39.8603Z" fill="#154A55"/>
<path d="M22.3366 28.4342C29.937 37.9072 10.5905 47.7707 3.68104 68.2791C0.684552 64.3968 -2.83275 41.9112 3.68102 38.2978C10.394 34.0984 13.8271 30.1397 22.3366 28.4342Z" fill="#2E5158"/>
<path d="M6.7409 42.3995C8.81374 40.4463 16.7577 33.8 22.9288 31.364C29.1853 28.8943 39.0878 35.954 43.9534 39.079C52.9444 50.1312 48.9123 54.2995 38.5245 64.0798C28.6392 73.3869 4.56936 66.0329 4.56935 64.2751C4.56929 54.7931 2.4965 49.0403 6.7409 42.3995Z" fill="#406D76"/>
<path d="M23.7186 31.1687C23.7186 31.1687 22.4829 29.4661 22.3367 28.4342C22.9216 28.7438 24.3108 30.1921 24.4095 30.9733C24.0147 31.071 23.7186 31.1687 23.7186 31.1687Z" fill="#3C948F"/>
<path d="M4.27326 44.7433C4.76681 42.6924 19.4083 31.3965 24.4094 30.9733C19.178 33.5776 7.62929 41.3643 5.26033 45.0362C3.3123 48.0558 4.27324 59.0015 4.86548 64.1774C5.11007 65.3375 6.6422 65.5447 7.72798 66.033C7.72798 66.033 6.24737 65.8377 5.1616 65.3494C4.66807 64.9587 3.68104 68.2791 3.68104 68.2791C3.32001 67.7893 4.52176 66.6398 4.47065 64.0798C4.35873 58.474 2.80415 50.8478 4.27326 44.7433Z" fill="#3F908C"/>
<path d="M46.1249 61.7358C46.1249 54.116 42.7688 61.0523 38.2284 64.3726C39.3142 63.3961 42.9663 58.9038 45.9275 55.974C49.0408 52.8936 48.8887 47.9659 48.8887 47.9659C48.8887 47.9659 49.1016 50.0068 48.8887 51.2863C48.4258 54.0683 45.4339 57.2435 45.4339 57.2435C46.1375 59.0477 47.112 58.9037 46.1249 61.7358Z" fill="#3F908C"/>
</g>
<path fill-rule="evenodd" clip-rule="evenodd" d="M26.9821 55.8515C28.207 57.0634 30.1929 57.0634 31.4178 55.8515C32.6427 54.6396 32.6427 52.6748 31.4178 51.4629L30.0873 50.1466C30.0055 50.0656 30.0055 49.9344 30.0873 49.8535L31.4178 48.5371C32.6427 47.3253 32.6427 45.3604 31.4178 44.1485C30.1929 42.9367 28.207 42.9367 26.9821 44.1485L25.6517 45.4649C25.5699 45.5458 25.4372 45.5458 25.3554 45.4649L24.025 44.1485C22.8001 42.9367 20.8142 42.9367 19.5893 44.1485C18.3644 45.3604 18.3644 47.3253 19.5893 48.5371L20.9198 49.8535C21.0016 49.9344 21.0016 50.0656 20.9198 50.1466L19.5893 51.4629C18.3644 52.6748 18.3644 54.6396 19.5893 55.8515C20.8142 57.0634 22.8001 57.0634 24.025 55.8515L25.3554 54.5352C25.4372 54.4542 25.5699 54.4542 25.6517 54.5352L26.9821 55.8515Z" fill="#EFBF45"/>
<path opacity="0.1" fill-rule="evenodd" clip-rule="evenodd" d="M21.1617 50H29.817C29.817 49.9494 29.8365 49.8987 29.8757 49.86L31.1488 48.6024C32.321 47.4446 32.321 45.5675 31.1488 44.4097C29.9767 43.2519 28.0763 43.2519 26.9042 44.4097L25.631 45.6673C25.5528 45.7446 25.4259 45.7446 25.3476 45.6673L24.0744 44.4097C22.9023 43.2519 21.0019 43.2519 19.8298 44.4097C18.6577 45.5675 18.7007 47.4071 19.8728 48.5649L21.1302 49.8002C21.1694 49.8389 21.1617 49.9494 21.1617 50Z" fill="#FEFCF9"/>
<path fill-rule="evenodd" clip-rule="evenodd" d="M27.4078 55.4198C28.3936 56.3953 29.9921 56.3953 30.978 55.4198C31.9638 54.4444 31.9638 52.863 30.978 51.8876L29.6475 50.5712C29.3267 50.2538 29.3267 49.7392 29.6475 49.4218L30.978 48.1055C31.9638 47.1301 31.9638 45.5486 30.978 44.5732C29.9921 43.5978 28.3937 43.5978 27.4078 44.5732L26.0773 45.8895C25.7565 46.2069 25.2364 46.2069 24.9156 45.8895L23.5852 44.5732C22.5993 43.5978 21.0008 43.5978 20.015 44.5732C19.0291 45.5486 19.0291 47.1301 20.015 48.1055L21.3454 49.4218C21.6662 49.7392 21.6662 50.2538 21.3454 50.5712L20.015 51.8875C19.0291 52.863 19.0291 54.4444 20.015 55.4198C21.0009 56.3953 22.5993 56.3953 23.5852 55.4198L24.9156 54.1035C25.2364 53.7861 25.7565 53.7861 26.0773 54.1035L27.4078 55.4198ZM31.4107 55.848C30.1858 57.0599 28.1999 57.0599 26.975 55.848L25.6446 54.5317C25.5628 54.4507 25.4302 54.4507 25.3484 54.5317L24.0179 55.848C22.793 57.0599 20.8071 57.0599 19.5822 55.848C18.3574 54.6361 18.3574 52.6713 19.5822 51.4594L20.9127 50.1431C20.9945 50.0621 20.9945 49.9309 20.9127 49.85L19.5822 48.5337C18.3573 47.3218 18.3573 45.3569 19.5822 44.1451C20.8071 42.9332 22.793 42.9332 24.0179 44.1451L25.3484 45.4614C25.4302 45.5423 25.5628 45.5423 25.6446 45.4614L26.975 44.1451C28.1999 42.9332 30.1858 42.9332 31.4107 44.1451C32.6356 45.3569 32.6356 47.3218 31.4107 48.5337L30.0803 49.85C29.9985 49.9309 29.9985 50.0621 30.0803 50.1431L31.4107 51.4594C32.6356 52.6713 32.6356 54.6361 31.4107 55.848Z" fill="#FEFCF9"/>
</g>
<defs>
<clipPath id="clip0_363_15570">
<rect width="51" height="44" fill="white" transform="translate(111 28)"/>
</clipPath>
<clipPath id="clip1_363_15570">
<rect width="51" height="44" fill="white" transform="translate(111 28)"/>
</clipPath>
<clipPath id="clip2_363_15570">
<rect width="51" height="44" fill="white" transform="translate(166 28)"/>
</clipPath>
<clipPath id="clip3_363_15570">
<rect width="51" height="44" fill="white" transform="translate(166 28)"/>
</clipPath>
<clipPath id="clip4_363_15570">
<rect width="51" height="44" fill="white" transform="translate(221 28)"/>
</clipPath>
<clipPath id="clip5_363_15570">
<rect width="51" height="44" fill="white" transform="translate(221 28)"/>
</clipPath>
<clipPath id="clip6_363_15570">
<rect width="52" height="44" fill="white" transform="translate(55 28)"/>
</clipPath>
<clipPath id="clip7_363_15570">
<rect width="52" height="44" fill="white" transform="translate(55 28)"/>
</clipPath>
<clipPath id="clip8_363_15570">
<rect width="51" height="44" fill="white" transform="translate(0 28)"/>
</clipPath>
<clipPath id="clip9_363_15570">
<rect width="51" height="44" fill="white" transform="translate(0 28)"/>
</clipPath>
</defs>
</svg>
