<svg width="272" height="72" viewBox="0 0 272 72" fill="none" xmlns="http://www.w3.org/2000/svg">
<g opacity="0.5" clip-path="url(#clip0_363_15583)">
<g clip-path="url(#clip1_363_15583)">
<path d="M125.341 39.8602C129.457 34.6995 134.521 34.278 133.337 28.4341C139.593 25.9644 151.561 34.6609 156.928 38.6883C161.427 42.0647 159.727 44.8175 161.898 46.7706C162.688 54.974 153.078 67.4977 153.078 67.4977C153.078 67.4977 132.448 76.873 114.681 68.279C117.741 59.1967 119.405 47.304 125.341 39.8602Z" fill="#315F68"/>
<path d="M125.341 39.8603C129.457 34.6996 155.122 62.3062 153.938 56.4624C158.083 57.9273 157.14 59.8805 157.14 61.5407C155.037 65.0171 153.078 67.4978 153.078 67.4978C153.078 67.4978 132.448 76.8731 114.681 68.2791C117.741 59.1968 119.405 47.3041 125.341 39.8603Z" fill="#154A55"/>
<path d="M133.337 28.4342C140.937 37.9072 121.591 47.7707 114.681 68.2791C111.685 64.3968 108.167 41.9112 114.681 38.2978C121.394 34.0984 124.827 30.1397 133.337 28.4342Z" fill="#2E5158"/>
<path d="M117.741 42.3995C119.814 40.4463 127.758 33.8 133.929 31.364C140.185 28.8943 150.088 35.954 154.953 39.079C163.944 50.1312 159.912 54.2995 149.524 64.0798C139.639 73.3869 115.569 66.0329 115.569 64.2751C115.569 54.7931 113.496 49.0403 117.741 42.3995Z" fill="#406D76"/>
<path d="M134.719 31.1687C134.719 31.1687 133.483 29.4661 133.337 28.4342C133.922 28.7438 135.311 30.1921 135.41 30.9733C135.015 31.071 134.719 31.1687 134.719 31.1687Z" fill="#3C948F"/>
<path d="M115.273 44.7433C115.767 42.6924 130.408 31.3965 135.409 30.9733C130.178 33.5776 118.629 41.3643 116.26 45.0362C114.312 48.0558 115.273 59.0015 115.865 64.1774C116.11 65.3375 117.642 65.5447 118.728 66.033C118.728 66.033 117.247 65.8377 116.162 65.3494C115.668 64.9587 114.681 68.2791 114.681 68.2791C114.32 67.7893 115.522 66.6398 115.471 64.0798C115.359 58.474 113.804 50.8478 115.273 44.7433Z" fill="#3F908C"/>
<path d="M157.125 61.7358C157.125 54.116 153.769 61.0523 149.228 64.3726C150.314 63.3961 153.966 58.9038 156.927 55.974C160.041 52.8936 159.889 47.9659 159.889 47.9659C159.889 47.9659 160.102 50.0068 159.889 51.2863C159.426 54.0683 156.434 57.2435 156.434 57.2435C157.138 59.0477 158.112 58.9037 157.125 61.7358Z" fill="#3F908C"/>
</g>
<path fill-rule="evenodd" clip-rule="evenodd" d="M139.56 44.9542C139.56 43.2821 138.19 41.9266 136.5 41.9266C134.81 41.9266 133.44 43.2821 133.44 44.9542V46.7707C133.44 46.8821 133.349 46.9725 133.236 46.9725H131.4C129.71 46.9725 128.34 48.328 128.34 50C128.34 51.6721 129.71 53.0276 131.4 53.0276H133.236C133.349 53.0276 133.44 53.1179 133.44 53.2294V55.0459C133.44 56.718 134.81 58.0734 136.5 58.0734C138.19 58.0734 139.56 56.718 139.56 55.0459V53.2294C139.56 53.1179 139.651 53.0276 139.764 53.0276H141.6C143.29 53.0276 144.66 51.6721 144.66 50C144.66 48.328 143.29 46.9725 141.6 46.9725H139.764C139.651 46.9725 139.56 46.8821 139.56 46.7707V44.9542Z" fill="#8E74DA"/>
<path opacity="0.1" fill-rule="evenodd" clip-rule="evenodd" d="M136.5 42.5321C135.148 42.5321 134.052 43.6165 134.052 44.9541V46.8015C134.052 47.0734 133.644 47.578 133.282 47.578H131.4C130.048 47.578 128.952 48.6624 128.952 50C128.952 51.3376 130.048 52.422 131.4 52.422H133.236C133.644 52.422 134.052 52.8257 134.052 53.2294V55.0459C134.052 56.3835 135.148 57.4679 136.5 57.4679V42.5321Z" fill="#FEFCF9"/>
<path fill-rule="evenodd" clip-rule="evenodd" d="M138.948 44.9542C138.948 43.6165 137.852 42.5321 136.5 42.5321C135.148 42.5321 134.052 43.6165 134.052 44.9542V46.7707C134.052 47.2166 133.687 47.578 133.236 47.578H131.4C130.048 47.578 128.952 48.6624 128.952 50C128.952 51.3377 130.048 52.422 131.4 52.422H133.236C133.687 52.422 134.052 52.7835 134.052 53.2294V55.0459C134.052 56.3835 135.148 57.4679 136.5 57.4679C137.852 57.4679 138.948 56.3835 138.948 55.0459V53.2294C138.948 52.7835 139.313 52.422 139.764 52.422H141.6C142.952 52.422 144.048 51.3377 144.048 50C144.048 48.6624 142.952 47.578 141.6 47.578H139.764C139.313 47.578 138.948 47.2166 138.948 46.7707V44.9542ZM136.5 41.9266C138.19 41.9266 139.56 43.2821 139.56 44.9542V46.7707C139.56 46.8821 139.651 46.9725 139.764 46.9725H141.6C143.29 46.9725 144.66 48.328 144.66 50C144.66 51.6721 143.29 53.0276 141.6 53.0276H139.764C139.651 53.0276 139.56 53.1179 139.56 53.2294V55.0459C139.56 56.718 138.19 58.0734 136.5 58.0734C134.81 58.0734 133.44 56.718 133.44 55.0459V53.2294C133.44 53.1179 133.349 53.0276 133.236 53.0276H131.4C129.71 53.0276 128.34 51.6721 128.34 50C128.34 48.328 129.71 46.9725 131.4 46.9725H133.236C133.349 46.9725 133.44 46.8821 133.44 46.7707V44.9542C133.44 43.2821 134.81 41.9266 136.5 41.9266Z" fill="#FEFCF9"/>
</g>
<g clip-path="url(#clip2_363_15583)">
<g clip-path="url(#clip3_363_15583)">
<path d="M180.341 39.8602C184.457 34.6995 189.521 34.278 188.337 28.4341C194.593 25.9644 206.561 34.6609 211.928 38.6883C216.427 42.0647 214.727 44.8175 216.898 46.7706C217.688 54.974 208.078 67.4977 208.078 67.4977C208.078 67.4977 187.448 76.873 169.681 68.279C172.741 59.1967 174.405 47.304 180.341 39.8602Z" fill="#315F68"/>
<path d="M180.341 39.8603C184.457 34.6996 210.122 62.3062 208.938 56.4624C213.083 57.9273 212.14 59.8805 212.14 61.5407C210.037 65.0171 208.078 67.4978 208.078 67.4978C208.078 67.4978 187.448 76.8731 169.681 68.2791C172.741 59.1968 174.405 47.3041 180.341 39.8603Z" fill="#154A55"/>
<path d="M188.337 28.4342C195.937 37.9072 176.591 47.7707 169.681 68.2791C166.685 64.3968 163.167 41.9112 169.681 38.2978C176.394 34.0984 179.827 30.1397 188.337 28.4342Z" fill="#2E5158"/>
<path d="M172.741 42.3995C174.814 40.4463 182.758 33.8 188.929 31.364C195.185 28.8943 205.088 35.954 209.953 39.079C218.944 50.1312 214.912 54.2995 204.524 64.0798C194.639 73.3869 170.569 66.0329 170.569 64.2751C170.569 54.7931 168.496 49.0403 172.741 42.3995Z" fill="#406D76"/>
<path d="M189.719 31.1687C189.719 31.1687 188.483 29.4661 188.337 28.4342C188.922 28.7438 190.311 30.1921 190.41 30.9733C190.015 31.071 189.719 31.1687 189.719 31.1687Z" fill="#3C948F"/>
<path d="M170.273 44.7433C170.767 42.6924 185.408 31.3965 190.409 30.9733C185.178 33.5776 173.629 41.3643 171.26 45.0362C169.312 48.0558 170.273 59.0015 170.865 64.1774C171.11 65.3375 172.642 65.5447 173.728 66.033C173.728 66.033 172.247 65.8377 171.162 65.3494C170.668 64.9587 169.681 68.2791 169.681 68.2791C169.32 67.7893 170.522 66.6398 170.471 64.0798C170.359 58.474 168.804 50.8478 170.273 44.7433Z" fill="#3F908C"/>
<path d="M212.125 61.7358C212.125 54.116 208.769 61.0523 204.228 64.3726C205.314 63.3961 208.966 58.9038 211.927 55.974C215.041 52.8936 214.889 47.9659 214.889 47.9659C214.889 47.9659 215.102 50.0068 214.889 51.2863C214.426 54.0683 211.434 57.2435 211.434 57.2435C212.138 59.0477 213.112 58.9037 212.125 61.7358Z" fill="#3F908C"/>
</g>
<path d="M184.768 43.839C184.768 43.5631 184.994 43.3395 185.273 43.3395L197.727 43.3395C198.006 43.3395 198.232 43.5631 198.232 43.839V56.161C198.232 56.4369 198.006 56.6606 197.727 56.6606H185.273C184.994 56.6606 184.768 56.4369 184.768 56.161V43.839Z" fill="#6BC6D0"/>
<path opacity="0.1" d="M184.972 44.3663C184.972 43.9107 185.341 43.5413 185.797 43.5413H189.182L194.356 56.6606H184.972V44.3663Z" fill="#FEFCF9"/>
<path fill-rule="evenodd" clip-rule="evenodd" d="M185.375 43.7431C185.265 43.7431 185.176 43.8312 185.176 43.9399V56.2619C185.176 56.3706 185.265 56.4587 185.375 56.4587H197.829C197.939 56.4587 198.028 56.3706 198.028 56.2619V43.9399C198.028 43.8312 197.939 43.7431 197.829 43.7431H185.375ZM184.564 43.9399C184.564 43.4968 184.927 43.1376 185.375 43.1376H197.829C198.277 43.1376 198.64 43.4968 198.64 43.9399V56.2619C198.64 56.705 198.277 57.0642 197.829 57.0642H185.375C184.927 57.0642 184.564 56.705 184.564 56.2619V43.9399Z" fill="#FEFCF9"/>
</g>
<g opacity="0.5" clip-path="url(#clip4_363_15583)">
<g clip-path="url(#clip5_363_15583)">
<path d="M235.341 39.8602C239.457 34.6995 244.521 34.278 243.337 28.4341C249.593 25.9644 261.561 34.6609 266.928 38.6883C271.427 42.0647 269.727 44.8175 271.898 46.7706C272.688 54.974 263.078 67.4977 263.078 67.4977C263.078 67.4977 242.448 76.873 224.681 68.279C227.741 59.1967 229.405 47.304 235.341 39.8602Z" fill="#315F68"/>
<path d="M235.341 39.8603C239.457 34.6996 265.122 62.3062 263.938 56.4624C268.083 57.9273 267.14 59.8805 267.14 61.5407C265.037 65.0171 263.078 67.4978 263.078 67.4978C263.078 67.4978 242.448 76.8731 224.681 68.2791C227.741 59.1968 229.405 47.3041 235.341 39.8603Z" fill="#154A55"/>
<path d="M243.337 28.4342C250.937 37.9072 231.591 47.7707 224.681 68.2791C221.685 64.3968 218.167 41.9112 224.681 38.2978C231.394 34.0984 234.827 30.1397 243.337 28.4342Z" fill="#2E5158"/>
<path d="M227.741 42.3995C229.814 40.4463 237.758 33.8 243.929 31.364C250.185 28.8943 260.088 35.954 264.953 39.079C273.944 50.1312 269.912 54.2995 259.524 64.0798C249.639 73.3869 225.569 66.0329 225.569 64.2751C225.569 54.7931 223.496 49.0403 227.741 42.3995Z" fill="#406D76"/>
<path d="M244.719 31.1687C244.719 31.1687 243.483 29.4661 243.337 28.4342C243.922 28.7438 245.311 30.1921 245.41 30.9733C245.015 31.071 244.719 31.1687 244.719 31.1687Z" fill="#3C948F"/>
<path d="M225.273 44.7433C225.767 42.6924 240.408 31.3965 245.409 30.9733C240.178 33.5776 228.629 41.3643 226.26 45.0362C224.312 48.0558 225.273 59.0015 225.865 64.1774C226.11 65.3375 227.642 65.5447 228.728 66.033C228.728 66.033 227.247 65.8377 226.162 65.3494C225.668 64.9587 224.681 68.2791 224.681 68.2791C224.32 67.7893 225.522 66.6398 225.471 64.0798C225.359 58.474 223.804 50.8478 225.273 44.7433Z" fill="#3F908C"/>
<path d="M267.125 61.7358C267.125 54.116 263.769 61.0523 259.228 64.3726C260.314 63.3961 263.966 58.9038 266.927 55.974C270.041 52.8936 269.889 47.9659 269.889 47.9659C269.889 47.9659 270.102 50.0068 269.889 51.2863C269.426 54.0683 266.434 57.2435 266.434 57.2435C267.138 59.0477 268.112 58.9037 267.125 61.7358Z" fill="#3F908C"/>
</g>
<path fill-rule="evenodd" clip-rule="evenodd" d="M245.952 57.4366C246.275 57.7805 246.825 57.7804 247.148 57.4365L253.207 50.9797C255.144 48.9159 255.144 45.5697 253.207 43.5059C251.409 41.5897 248.574 41.453 246.627 43.0938C246.546 43.1625 246.425 43.1617 246.344 43.0921C244.414 41.4238 241.575 41.5467 239.779 43.4599C237.86 45.5043 237.86 48.8189 239.779 50.8632L245.952 57.4366Z" fill="#8E74DA"/>
<g opacity="0.5">
<path d="M248.043 42.4192C248.137 42.4757 248.213 42.5559 248.264 42.6516C248.316 42.7472 248.34 42.8547 248.335 42.9629C248.331 43.0711 248.296 43.176 248.237 43.2667C248.177 43.3574 248.093 43.4306 247.995 43.4786C247.897 43.5266 247.788 43.5477 247.679 43.5397C247.57 43.5316 247.465 43.4948 247.375 43.433C247.285 43.3712 247.213 43.2866 247.168 43.1882C247.122 43.0897 247.104 42.981 247.115 42.8732L247.724 42.9358L248.043 42.4192Z" fill="black"/>
<ellipse cx="247.724" cy="50.2019" rx="0.612" ry="0.605505" fill="black"/>
<ellipse cx="247.724" cy="44.7524" rx="0.612" ry="0.605505" fill="black"/>
<ellipse cx="247.724" cy="46.5689" rx="0.612" ry="0.605505" fill="black"/>
<ellipse cx="247.724" cy="48.3853" rx="0.612" ry="0.605505" fill="black"/>
<ellipse cx="247.724" cy="50.2019" rx="0.612" ry="0.605505" fill="black"/>
<ellipse cx="247.724" cy="53.8349" rx="0.612" ry="0.605504" fill="black"/>
<ellipse cx="247.724" cy="55.6514" rx="0.612" ry="0.605505" fill="black"/>
<ellipse cx="249.56" cy="42.9358" rx="0.612" ry="0.605505" fill="black"/>
<ellipse cx="249.56" cy="44.7524" rx="0.612" ry="0.605505" fill="black"/>
<ellipse cx="249.56" cy="46.5689" rx="0.612" ry="0.605505" fill="black"/>
<ellipse cx="249.56" cy="48.3853" rx="0.612" ry="0.605505" fill="black"/>
<ellipse cx="249.56" cy="50.2019" rx="0.612" ry="0.605505" fill="black"/>
<ellipse cx="249.56" cy="52.0184" rx="0.612" ry="0.605505" fill="black"/>
<ellipse cx="247.724" cy="52.0184" rx="0.612" ry="0.605505" fill="black"/>
<ellipse cx="249.56" cy="53.8349" rx="0.612" ry="0.605504" fill="black"/>
<path d="M251.975 42.7378C252.014 42.851 252.019 42.9732 251.988 43.0891C251.958 43.2049 251.893 43.3092 251.802 43.3887C251.712 43.4682 251.6 43.5193 251.48 43.5357C251.36 43.552 251.238 43.5328 251.129 43.4805C251.02 43.4281 250.929 43.345 250.868 43.2417C250.807 43.1383 250.778 43.0193 250.785 42.8998C250.792 42.7803 250.835 42.6655 250.908 42.5701C250.982 42.4746 251.082 42.4028 251.196 42.3636L251.396 42.9358L251.975 42.7378Z" fill="black"/>
<ellipse cx="251.396" cy="44.7524" rx="0.612" ry="0.605505" fill="black"/>
<ellipse cx="251.396" cy="46.5689" rx="0.612" ry="0.605505" fill="black"/>
<ellipse cx="251.396" cy="48.3853" rx="0.612" ry="0.605505" fill="black"/>
<ellipse cx="251.396" cy="50.2019" rx="0.612" ry="0.605505" fill="black"/>
<ellipse cx="251.396" cy="52.0184" rx="0.612" ry="0.605505" fill="black"/>
<ellipse cx="253.232" cy="44.7524" rx="0.612" ry="0.605505" fill="black"/>
<ellipse cx="253.232" cy="46.5689" rx="0.612" ry="0.605505" fill="black"/>
<ellipse cx="253.232" cy="48.3853" rx="0.612" ry="0.605505" fill="black"/>
<path d="M252.954 50.7414C252.875 50.7014 252.805 50.6448 252.75 50.5755C252.696 50.5061 252.657 50.4258 252.636 50.34C252.616 50.2542 252.615 50.1651 252.633 50.0789C252.651 49.9926 252.688 49.9113 252.741 49.8406C252.794 49.7699 252.862 49.7115 252.94 49.6695C253.019 49.6276 253.105 49.603 253.194 49.5975C253.283 49.5921 253.372 49.6059 253.455 49.638C253.538 49.67 253.613 49.7197 253.674 49.7833L253.232 50.2019L252.954 50.7414Z" fill="black"/>
</g>
<path opacity="0.1" fill-rule="evenodd" clip-rule="evenodd" d="M246.5 43.1444C246.445 43.1477 246.388 43.1303 246.344 43.0921C244.414 41.4238 241.575 41.5467 239.779 43.4599C237.86 45.5043 237.86 48.8189 239.779 50.8632L245.952 57.4366C246.101 57.5955 246.299 57.6809 246.5 57.693V43.1444Z" fill="#FEFCF9"/>
<path fill-rule="evenodd" clip-rule="evenodd" d="M246.699 57.0245L252.759 50.5677C254.478 48.7362 254.478 45.7494 252.759 43.9179C251.183 42.239 248.721 42.1246 247.024 43.5547C246.712 43.8181 246.25 43.8151 245.942 43.548C244.261 42.0955 241.798 42.1981 240.228 43.8719C238.527 45.6839 238.527 48.639 240.227 50.4511C240.227 50.4511 240.228 50.4512 240.228 50.4512L246.4 57.0245C246.481 57.1105 246.619 57.1104 246.699 57.0245ZM239.779 50.8632C237.86 48.8189 237.86 45.5043 239.779 43.4599C241.575 41.5467 244.414 41.4238 246.344 43.0921C246.425 43.1617 246.546 43.1625 246.627 43.0938C248.574 41.453 251.409 41.5897 253.207 43.5059C255.144 45.5697 255.144 48.9159 253.207 50.9797L247.148 57.4365C246.825 57.7804 246.275 57.7805 245.952 57.4366L239.779 50.8632Z" fill="#FEFCF9"/>
</g>
<g clip-path="url(#clip6_363_15583)">
<g clip-path="url(#clip7_363_15583)">
<path d="M69.6225 39.8602C73.8188 34.6995 78.9823 34.278 77.7746 28.4341C84.1537 25.9644 96.3558 34.6609 101.828 38.6883C106.416 42.0647 104.682 44.8175 106.896 46.7706C107.701 54.974 97.903 67.4977 97.903 67.4977C97.903 67.4977 76.8688 76.873 58.7532 68.279C61.8731 59.1967 63.5698 47.304 69.6225 39.8602Z" fill="#315F68"/>
<path d="M69.6225 39.8603C73.8188 34.6996 99.9871 62.3062 98.7793 56.4624C103.006 57.9273 102.044 59.8805 102.044 61.5407C99.9003 65.0171 97.903 67.4978 97.903 67.4978C97.903 67.4978 76.8688 76.8731 58.7532 68.2791C61.8731 59.1968 63.5698 47.3041 69.6225 39.8603Z" fill="#154A55"/>
<path d="M77.7746 28.4342C85.524 37.9072 65.7982 47.7707 58.7532 68.2791C55.698 64.3968 52.1117 41.9112 58.7532 38.2978C65.5978 34.0984 69.0982 30.1397 77.7746 28.4342Z" fill="#2E5158"/>
<path d="M61.8732 42.3995C63.9867 40.4463 72.0864 33.8 78.3785 31.364C84.7577 28.8943 94.8544 35.954 99.8153 39.079C108.983 50.1312 104.872 54.2995 94.28 64.0798C84.201 73.3869 59.6591 66.0329 59.6591 64.2751C59.659 54.7931 57.5456 49.0403 61.8732 42.3995Z" fill="#406D76"/>
<path d="M79.1836 31.1687C79.1836 31.1687 77.9237 29.4661 77.7747 28.4342C78.3711 28.7438 79.7875 30.1921 79.8881 30.9733C79.4856 31.071 79.1836 31.1687 79.1836 31.1687Z" fill="#3C948F"/>
<path d="M59.3572 44.7433C59.8605 42.6924 74.789 31.3965 79.8883 30.9733C74.5542 33.5776 62.7791 41.3643 60.3637 45.0362C58.3774 48.0558 59.3572 59.0015 59.9611 64.1774C60.2105 65.3375 61.7726 65.5447 62.8797 66.033C62.8797 66.033 61.3701 65.8377 60.263 65.3494C59.7598 64.9587 58.7534 68.2791 58.7534 68.2791C58.3853 67.7893 59.6106 66.6398 59.5585 64.0798C59.4444 58.474 57.8593 50.8478 59.3572 44.7433Z" fill="#3F908C"/>
<path d="M102.029 61.7358C102.029 54.116 98.6075 61.0523 93.978 64.3726C95.0851 63.3961 98.8088 58.9038 101.828 55.974C105.002 52.8936 104.847 47.9659 104.847 47.9659C104.847 47.9659 105.064 50.0068 104.847 51.2863C104.375 54.0683 101.325 57.2435 101.325 57.2435C102.042 59.0477 103.036 58.9037 102.029 61.7358Z" fill="#3F908C"/>
</g>
<path d="M89.3199 50C89.3199 54.4588 85.5949 58.0734 80.9999 58.0734C76.4049 58.0734 72.6799 54.4588 72.6799 50C72.6799 45.5412 76.4049 41.9266 80.9999 41.9266C85.5949 41.9266 89.3199 45.5412 89.3199 50Z" fill="#EFBF45"/>
<g opacity="0.5">
<path d="M87.2397 45.6046H87.8637V53.3824V54.1376H87.4477L87.3437 54.03L87.2397 53.9224V45.6046Z" fill="black"/>
<path d="M85.7839 44.1469H86.4079V52.0576V53.0922L85.7839 52.4678V44.1469Z" fill="black"/>
<path d="M84.3279 43.1668H84.9519V50.6634V51.6439L84.3279 51.0194V43.1668Z" fill="black"/>
<path d="M82.8718 42.5322H83.4958V49.3148V50.1901L82.8718 49.5674V42.5322Z" fill="black"/>
<path d="M81.4158 42.1285H82.0398V47.8402V48.7331L81.4158 48.1102V42.1285Z" fill="black"/>
<path d="M79.96 42.1285H80.584V46.5908V47.28L79.96 46.6611V42.1285Z" fill="black"/>
<path d="M78.5039 42.596H79.1279V45.4519V45.8254L78.5039 45.2122V42.596Z" fill="black"/>
<path d="M77.0479 42.9611H77.6719V44.2105V44.3739L77.0479 43.7526V42.9611Z" fill="black"/>
</g>
<path fill-rule="evenodd" clip-rule="evenodd" d="M80.9999 57.4679C85.2503 57.4679 88.6959 54.1244 88.6959 50C88.6959 45.8756 85.2503 42.5321 80.9999 42.5321C76.7495 42.5321 73.3039 45.8756 73.3039 50C73.3039 54.1244 76.7495 57.4679 80.9999 57.4679ZM80.9999 58.0734C85.5949 58.0734 89.3199 54.4588 89.3199 50C89.3199 45.5412 85.5949 41.9266 80.9999 41.9266C76.4049 41.9266 72.6799 45.5412 72.6799 50C72.6799 54.4588 76.4049 58.0734 80.9999 58.0734Z" fill="#FEFCF9"/>
<path opacity="0.1" d="M72.7615 50.6839C72.5226 47.6956 74.0887 44.8471 76.7359 43.4404L87.7599 54.4404L83.4959 57.6697L80.1083 57.6026C76.2456 57.5261 73.0694 54.535 72.7615 50.6839Z" fill="#FEFCF9"/>
</g>
<path d="M192 22.5V12C192 6.47715 187.523 2 182 2H90.5C84.9772 2 80.5 6.47715 80.5 12V22.5M80.5 22.5L76 18M80.5 22.5L85 18" stroke="#FEFCF9" stroke-width="2" stroke-linecap="round" stroke-linejoin="round"/>
<g opacity="0.5" clip-path="url(#clip8_363_15583)">
<g clip-path="url(#clip9_363_15583)">
<path d="M14.3415 39.8602C18.457 34.6995 23.5212 34.278 22.3367 28.4341C28.5933 25.9644 40.5606 34.6609 45.9277 38.6883C50.4272 42.0647 48.7265 44.8175 50.8981 46.7706C51.6877 54.974 42.0781 67.4977 42.0781 67.4977C42.0781 67.4977 21.4484 76.873 3.68115 68.279C6.74106 59.1967 8.40513 47.304 14.3415 39.8602Z" fill="#315F68"/>
<path d="M14.3415 39.8603C18.457 34.6996 44.1221 62.3062 42.9376 56.4624C47.0833 57.9273 46.1396 59.8805 46.1396 61.5407C44.0369 65.0171 42.0781 67.4978 42.0781 67.4978C42.0781 67.4978 21.4484 76.8731 3.68115 68.2791C6.74106 59.1968 8.40513 47.3041 14.3415 39.8603Z" fill="#154A55"/>
<path d="M22.3366 28.4342C29.937 37.9072 10.5905 47.7707 3.68104 68.2791C0.684552 64.3968 -2.83275 41.9112 3.68102 38.2978C10.394 34.0984 13.8271 30.1397 22.3366 28.4342Z" fill="#2E5158"/>
<path d="M6.7409 42.3995C8.81374 40.4463 16.7577 33.8 22.9288 31.364C29.1853 28.8943 39.0878 35.954 43.9534 39.079C52.9444 50.1312 48.9123 54.2995 38.5245 64.0798C28.6392 73.3869 4.56936 66.0329 4.56935 64.2751C4.56929 54.7931 2.4965 49.0403 6.7409 42.3995Z" fill="#406D76"/>
<path d="M23.7186 31.1687C23.7186 31.1687 22.4829 29.4661 22.3367 28.4342C22.9216 28.7438 24.3108 30.1921 24.4095 30.9733C24.0147 31.071 23.7186 31.1687 23.7186 31.1687Z" fill="#3C948F"/>
<path d="M4.27326 44.7433C4.76681 42.6924 19.4083 31.3965 24.4094 30.9733C19.178 33.5776 7.62929 41.3643 5.26033 45.0362C3.3123 48.0558 4.27324 59.0015 4.86548 64.1774C5.11007 65.3375 6.6422 65.5447 7.72798 66.033C7.72798 66.033 6.24737 65.8377 5.1616 65.3494C4.66807 64.9587 3.68104 68.2791 3.68104 68.2791C3.32001 67.7893 4.52176 66.6398 4.47065 64.0798C4.35873 58.474 2.80415 50.8478 4.27326 44.7433Z" fill="#3F908C"/>
<path d="M46.1249 61.7358C46.1249 54.116 42.7688 61.0523 38.2284 64.3726C39.3142 63.3961 42.9663 58.9038 45.9275 55.974C49.0408 52.8936 48.8887 47.9659 48.8887 47.9659C48.8887 47.9659 49.1016 50.0068 48.8887 51.2863C48.4258 54.0683 45.4339 57.2435 45.4339 57.2435C46.1375 59.0477 47.112 58.9037 46.1249 61.7358Z" fill="#3F908C"/>
</g>
<path d="M25.2738 42.2121C25.4331 42.0544 25.6914 42.0544 25.8508 42.2121L33.496 49.7762C33.6553 49.9338 33.6553 50.1894 33.496 50.347L25.8508 57.9111C25.6914 58.0688 25.4331 58.0688 25.2738 57.9111L17.6285 50.347C17.4692 50.1894 17.4692 49.9338 17.6285 49.7762L25.2738 42.2121Z" fill="#F79898"/>
<path opacity="0.1" d="M25.2738 43.0684C25.4331 42.9108 25.6678 42.8874 25.7979 43.0161L29.7455 46.9218L20.6212 52.4517L18.4412 50.2948C18.311 50.166 18.3347 49.9338 18.494 49.7762L25.2738 43.0684Z" fill="#FEFCF9"/>
<path fill-rule="evenodd" clip-rule="evenodd" d="M25.8508 43.0684C25.6914 42.9107 25.4331 42.9107 25.2738 43.0684L18.494 49.7762C18.3347 49.9338 18.3347 50.1894 18.494 50.347L25.2738 57.0548C25.4331 57.2125 25.6914 57.2125 25.8508 57.0548L32.6305 50.347C32.7898 50.1894 32.7898 49.9338 32.6305 49.7762L25.8508 43.0684ZM25.8508 42.2121C25.6914 42.0544 25.4331 42.0544 25.2738 42.2121L17.6285 49.7762C17.4692 49.9338 17.4692 50.1894 17.6285 50.347L25.2738 57.9111C25.4331 58.0688 25.6914 58.0688 25.8508 57.9111L33.496 50.347C33.6553 50.1894 33.6553 49.9338 33.496 49.7762L25.8508 42.2121Z" fill="#FEFCF9"/>
</g>
<defs>
<clipPath id="clip0_363_15583">
<rect width="51" height="44" fill="white" transform="translate(111 28)"/>
</clipPath>
<clipPath id="clip1_363_15583">
<rect width="51" height="44" fill="white" transform="translate(111 28)"/>
</clipPath>
<clipPath id="clip2_363_15583">
<rect width="51" height="44" fill="white" transform="translate(166 28)"/>
</clipPath>
<clipPath id="clip3_363_15583">
<rect width="51" height="44" fill="white" transform="translate(166 28)"/>
</clipPath>
<clipPath id="clip4_363_15583">
<rect width="51" height="44" fill="white" transform="translate(221 28)"/>
</clipPath>
<clipPath id="clip5_363_15583">
<rect width="51" height="44" fill="white" transform="translate(221 28)"/>
</clipPath>
<clipPath id="clip6_363_15583">
<rect width="52" height="44" fill="white" transform="translate(55 28)"/>
</clipPath>
<clipPath id="clip7_363_15583">
<rect width="52" height="44" fill="white" transform="translate(55 28)"/>
</clipPath>
<clipPath id="clip8_363_15583">
<rect width="51" height="44" fill="white" transform="translate(0 28)"/>
</clipPath>
<clipPath id="clip9_363_15583">
<rect width="51" height="44" fill="white" transform="translate(0 28)"/>
</clipPath>
</defs>
</svg>
