<svg width="272" height="72" viewBox="0 0 272 72" fill="none" xmlns="http://www.w3.org/2000/svg">
<g opacity="0.5" clip-path="url(#clip0_363_15556)">
<g clip-path="url(#clip1_363_15556)">
<path d="M125.341 39.8602C129.457 34.6995 134.521 34.278 133.337 28.4341C139.593 25.9644 151.561 34.6609 156.928 38.6883C161.427 42.0647 159.727 44.8175 161.898 46.7706C162.688 54.974 153.078 67.4977 153.078 67.4977C153.078 67.4977 132.448 76.873 114.681 68.279C117.741 59.1967 119.405 47.304 125.341 39.8602Z" fill="#315F68"/>
<path d="M125.341 39.8603C129.457 34.6996 155.122 62.3062 153.938 56.4624C158.083 57.9273 157.14 59.8805 157.14 61.5407C155.037 65.0171 153.078 67.4978 153.078 67.4978C153.078 67.4978 132.448 76.8731 114.681 68.2791C117.741 59.1968 119.405 47.3041 125.341 39.8603Z" fill="#154A55"/>
<path d="M133.337 28.4342C140.937 37.9072 121.591 47.7707 114.681 68.2791C111.685 64.3968 108.167 41.9112 114.681 38.2978C121.394 34.0984 124.827 30.1397 133.337 28.4342Z" fill="#2E5158"/>
<path d="M117.741 42.3995C119.814 40.4463 127.758 33.8 133.929 31.364C140.185 28.8943 150.088 35.954 154.953 39.079C163.944 50.1312 159.912 54.2995 149.524 64.0798C139.639 73.3869 115.569 66.0329 115.569 64.2751C115.569 54.7931 113.496 49.0403 117.741 42.3995Z" fill="#406D76"/>
<path d="M134.719 31.1687C134.719 31.1687 133.483 29.4661 133.337 28.4342C133.922 28.7438 135.311 30.1921 135.41 30.9733C135.015 31.071 134.719 31.1687 134.719 31.1687Z" fill="#3C948F"/>
<path d="M115.273 44.7433C115.767 42.6924 130.408 31.3965 135.409 30.9733C130.178 33.5776 118.629 41.3643 116.26 45.0362C114.312 48.0558 115.273 59.0015 115.865 64.1774C116.11 65.3375 117.642 65.5447 118.728 66.033C118.728 66.033 117.247 65.8377 116.162 65.3494C115.668 64.9587 114.681 68.2791 114.681 68.2791C114.32 67.7893 115.522 66.6398 115.471 64.0798C115.359 58.474 113.804 50.8478 115.273 44.7433Z" fill="#3F908C"/>
<path d="M157.125 61.7358C157.125 54.116 153.769 61.0523 149.228 64.3726C150.314 63.3961 153.966 58.9038 156.927 55.974C160.041 52.8936 159.889 47.9659 159.889 47.9659C159.889 47.9659 160.102 50.0068 159.889 51.2863C159.426 54.0683 156.434 57.2435 156.434 57.2435C157.138 59.0477 158.112 58.9037 157.125 61.7358Z" fill="#3F908C"/>
</g>
<path d="M135.956 43.2288C136.181 42.8381 136.819 42.8381 137.044 43.2288L144.594 56.289C144.799 56.6442 144.504 57.0642 144.049 57.0642H128.951C128.496 57.0642 128.201 56.6442 128.407 56.289L135.956 43.2288Z" fill="#EFBF45"/>
<g opacity="0.5">
<path d="M138.336 46.5688L138.948 47.6789V48.2844L138.336 48.878V46.5688Z" fill="black"/>
<path d="M136.908 44.2477L137.52 45.2661V49.6778L136.908 50.2794V44.2477Z" fill="black"/>
<path d="M135.48 45.2569L136.092 44.2262V51.0726L135.48 51.6762V45.2569Z" fill="black"/>
<path d="M134.052 47.7317L134.664 46.7005V52.4717L134.052 53.0751V47.7317Z" fill="black"/>
<path d="M132.624 49.9417L133.236 49.1927V53.8745L132.624 54.4671V49.9417Z" fill="black"/>
<path d="M131.196 52.6239L131.808 51.6147V55.2622L131.196 55.8695V52.6239Z" fill="black"/>
<path d="M129.768 54.6668L130.38 54.0367V56.4587H129.768V54.6668Z" fill="black"/>
</g>
<path fill-rule="evenodd" clip-rule="evenodd" d="M136.677 43.8492C136.598 43.7139 136.401 43.7139 136.323 43.8492L129.188 56.1565C129.11 56.291 129.209 56.4587 129.365 56.4587H143.634C143.791 56.4587 143.889 56.291 143.811 56.1565L136.677 43.8492ZM137.044 43.2288C136.818 42.8381 136.181 42.8381 135.955 43.2288L128.406 56.289C128.201 56.6442 128.496 57.0642 128.951 57.0642H144.049C144.504 57.0642 144.799 56.6442 144.593 56.289L137.044 43.2288Z" fill="#FEFCF9"/>
<path opacity="0.1" d="M139.458 47.7798L129.972 57.0642H143.947C144.402 57.0642 144.697 56.6442 144.491 56.289L139.458 47.7798Z" fill="#FEFCF9"/>
</g>
<g clip-path="url(#clip2_363_15556)">
<g clip-path="url(#clip3_363_15556)">
<path d="M180.341 39.8602C184.457 34.6995 189.521 34.278 188.337 28.4341C194.593 25.9644 206.561 34.6609 211.928 38.6883C216.427 42.0647 214.727 44.8175 216.898 46.7706C217.688 54.974 208.078 67.4977 208.078 67.4977C208.078 67.4977 187.448 76.873 169.681 68.279C172.741 59.1967 174.405 47.304 180.341 39.8602Z" fill="#315F68"/>
<path d="M180.341 39.8603C184.457 34.6996 210.122 62.3062 208.938 56.4624C213.083 57.9273 212.14 59.8805 212.14 61.5407C210.037 65.0171 208.078 67.4978 208.078 67.4978C208.078 67.4978 187.448 76.8731 169.681 68.2791C172.741 59.1968 174.405 47.3041 180.341 39.8603Z" fill="#154A55"/>
<path d="M188.337 28.4342C195.937 37.9072 176.591 47.7707 169.681 68.2791C166.685 64.3968 163.167 41.9112 169.681 38.2978C176.394 34.0984 179.827 30.1397 188.337 28.4342Z" fill="#2E5158"/>
<path d="M172.741 42.3995C174.814 40.4463 182.758 33.8 188.929 31.364C195.185 28.8943 205.088 35.954 209.953 39.079C218.944 50.1312 214.912 54.2995 204.524 64.0798C194.639 73.3869 170.569 66.0329 170.569 64.2751C170.569 54.7931 168.496 49.0403 172.741 42.3995Z" fill="#406D76"/>
<path d="M189.719 31.1687C189.719 31.1687 188.483 29.4661 188.337 28.4342C188.922 28.7438 190.311 30.1921 190.41 30.9733C190.015 31.071 189.719 31.1687 189.719 31.1687Z" fill="#3C948F"/>
<path d="M170.273 44.7433C170.767 42.6924 185.408 31.3965 190.409 30.9733C185.178 33.5776 173.629 41.3643 171.26 45.0362C169.312 48.0558 170.273 59.0015 170.865 64.1774C171.11 65.3375 172.642 65.5447 173.728 66.033C173.728 66.033 172.247 65.8377 171.162 65.3494C170.668 64.9587 169.681 68.2791 169.681 68.2791C169.32 67.7893 170.522 66.6398 170.471 64.0798C170.359 58.474 168.804 50.8478 170.273 44.7433Z" fill="#3F908C"/>
<path d="M212.125 61.7358C212.125 54.116 208.769 61.0523 204.228 64.3726C205.314 63.3961 208.966 58.9038 211.927 55.974C215.041 52.8936 214.889 47.9659 214.889 47.9659C214.889 47.9659 215.102 50.0068 214.889 51.2863C214.426 54.0683 211.434 57.2435 211.434 57.2435C212.138 59.0477 213.112 58.9037 212.125 61.7358Z" fill="#3F908C"/>
</g>
<path d="M199.66 50C199.66 54.4588 196.007 58.0734 191.5 58.0734C186.993 58.0734 183.34 54.4588 183.34 50C183.34 45.5412 186.993 41.9266 191.5 41.9266C196.007 41.9266 199.66 45.5412 199.66 50Z" fill="#00B594"/>
<path fill-rule="evenodd" clip-rule="evenodd" d="M191.5 57.4679C195.669 57.4679 199.048 54.1244 199.048 50C199.048 45.8756 195.669 42.5321 191.5 42.5321C187.331 42.5321 183.952 45.8756 183.952 50C183.952 54.1244 187.331 57.4679 191.5 57.4679ZM191.5 58.0734C196.007 58.0734 199.66 54.4588 199.66 50C199.66 45.5412 196.007 41.9266 191.5 41.9266C186.993 41.9266 183.34 45.5412 183.34 50C183.34 54.4588 186.993 58.0734 191.5 58.0734Z" fill="#FEFCF9"/>
<path opacity="0.1" d="M183.952 49.989C183.952 45.8767 187.286 42.5321 191.398 42.5321L193.948 57.4679H191.42C187.295 57.4679 183.952 54.1134 183.952 49.989Z" fill="#FEFCF9"/>
</g>
<g opacity="0.5" clip-path="url(#clip4_363_15556)">
<g clip-path="url(#clip5_363_15556)">
<path d="M235.341 39.8602C239.457 34.6995 244.521 34.278 243.337 28.4341C249.593 25.9644 261.561 34.6609 266.928 38.6883C271.427 42.0647 269.727 44.8175 271.898 46.7706C272.688 54.974 263.078 67.4977 263.078 67.4977C263.078 67.4977 242.448 76.873 224.681 68.279C227.741 59.1967 229.405 47.304 235.341 39.8602Z" fill="#315F68"/>
<path d="M235.341 39.8603C239.457 34.6996 265.122 62.3062 263.938 56.4624C268.083 57.9273 267.14 59.8805 267.14 61.5407C265.037 65.0171 263.078 67.4978 263.078 67.4978C263.078 67.4978 242.448 76.8731 224.681 68.2791C227.741 59.1968 229.405 47.3041 235.341 39.8603Z" fill="#154A55"/>
<path d="M243.337 28.4342C250.937 37.9072 231.591 47.7707 224.681 68.2791C221.685 64.3968 218.167 41.9112 224.681 38.2978C231.394 34.0984 234.827 30.1397 243.337 28.4342Z" fill="#2E5158"/>
<path d="M227.741 42.3995C229.814 40.4463 237.758 33.8 243.929 31.364C250.185 28.8943 260.088 35.954 264.953 39.079C273.944 50.1312 269.912 54.2995 259.524 64.0798C249.639 73.3869 225.569 66.0329 225.569 64.2751C225.569 54.7931 223.496 49.0403 227.741 42.3995Z" fill="#406D76"/>
<path d="M244.719 31.1687C244.719 31.1687 243.483 29.4661 243.337 28.4342C243.922 28.7438 245.311 30.1921 245.41 30.9733C245.015 31.071 244.719 31.1687 244.719 31.1687Z" fill="#3C948F"/>
<path d="M225.273 44.7433C225.767 42.6924 240.408 31.3965 245.409 30.9733C240.178 33.5776 228.629 41.3643 226.26 45.0362C224.312 48.0558 225.273 59.0015 225.865 64.1774C226.11 65.3375 227.642 65.5447 228.728 66.033C228.728 66.033 227.247 65.8377 226.162 65.3494C225.668 64.9587 224.681 68.2791 224.681 68.2791C224.32 67.7893 225.522 66.6398 225.471 64.0798C225.359 58.474 223.804 50.8478 225.273 44.7433Z" fill="#3F908C"/>
<path d="M267.125 61.7358C267.125 54.116 263.769 61.0523 259.228 64.3726C260.314 63.3961 263.966 58.9038 266.927 55.974C270.041 52.8936 269.889 47.9659 269.889 47.9659C269.889 47.9659 270.102 50.0068 269.889 51.2863C269.426 54.0683 266.434 57.2435 266.434 57.2435C267.138 59.0477 268.112 58.9037 267.125 61.7358Z" fill="#3F908C"/>
</g>
<path fill-rule="evenodd" clip-rule="evenodd" d="M247.975 55.848C249.2 57.0599 251.186 57.0599 252.411 55.848C253.636 54.6361 253.636 52.6713 252.411 51.4594L251.08 50.1431C250.998 50.0621 250.998 49.9309 251.08 49.85L252.411 48.5337C253.636 47.3218 253.636 45.3569 252.411 44.1451C251.186 42.9332 249.2 42.9332 247.975 44.1451L246.645 45.4614C246.563 45.5423 246.43 45.5423 246.348 45.4614L245.018 44.1451C243.793 42.9332 241.807 42.9332 240.582 44.1451C239.357 45.3569 239.357 47.3218 240.582 48.5337L241.913 49.85C241.994 49.9309 241.994 50.0621 241.913 50.1431L240.582 51.4594C239.357 52.6713 239.357 54.6361 240.582 55.848C241.807 57.0599 243.793 57.0599 245.018 55.848L246.348 54.5317C246.43 54.4507 246.563 54.4507 246.645 54.5317L247.975 55.848Z" fill="#EFBF45"/>
<g opacity="0.5">
<path d="M245.354 54.8441L245.276 55.4496L240.38 55.4496L240.38 54.8441L245.354 54.8441Z" fill="black"/>
<path d="M252.62 54.8441L252.62 55.4496L247.724 55.4496L247.608 54.8441L252.62 54.8441Z" fill="black"/>
<path d="M253.028 53.4312L253.028 54.0367L239.972 54.0367L239.972 53.4312L253.028 53.4312Z" fill="black"/>
<path d="M252.648 52.0184L252.648 52.6239L240.278 52.6239L240.597 52.0184L252.648 52.0184Z" fill="black"/>
<path d="M251.385 50.6055L251.464 51.211L241.529 51.211L241.641 50.6055L251.385 50.6055Z" fill="black"/>
</g>
<path opacity="0.1" fill-rule="evenodd" clip-rule="evenodd" d="M242.162 50H250.817C250.817 49.9494 250.837 49.8987 250.876 49.86L252.149 48.6024C253.321 47.4446 253.321 45.5675 252.149 44.4097C250.977 43.2519 249.076 43.2519 247.904 44.4097L246.631 45.6673C246.553 45.7446 246.426 45.7446 246.348 45.6673L245.074 44.4097C243.902 43.2519 242.002 43.2519 240.83 44.4097C239.658 45.5675 239.701 47.4071 240.873 48.5649L242.13 49.8002C242.169 49.8389 242.162 49.9494 242.162 50Z" fill="#FEFCF9"/>
<path fill-rule="evenodd" clip-rule="evenodd" d="M248.408 55.4198C249.394 56.3953 250.992 56.3953 251.978 55.4198C252.964 54.4444 252.964 52.863 251.978 51.8876L250.648 50.5712C250.327 50.2538 250.327 49.7392 250.648 49.4218L251.978 48.1055C252.964 47.1301 252.964 45.5486 251.978 44.5732C250.992 43.5978 249.394 43.5978 248.408 44.5732L247.077 45.8895C246.757 46.2069 246.236 46.2069 245.916 45.8895L244.585 44.5732C243.599 43.5978 242.001 43.5978 241.015 44.5732C240.029 45.5486 240.029 47.1301 241.015 48.1055L242.345 49.4218C242.666 49.7392 242.666 50.2538 242.345 50.5712L241.015 51.8875C240.029 52.863 240.029 54.4444 241.015 55.4198C242.001 56.3953 243.599 56.3953 244.585 55.4198L245.916 54.1035C246.236 53.7861 246.757 53.7861 247.077 54.1035L248.408 55.4198ZM252.411 55.848C251.186 57.0599 249.2 57.0599 247.975 55.848L246.645 54.5317C246.563 54.4507 246.43 54.4507 246.348 54.5317L245.018 55.848C243.793 57.0599 241.807 57.0599 240.582 55.848C239.357 54.6361 239.357 52.6713 240.582 51.4594L241.913 50.1431C241.994 50.0621 241.994 49.9309 241.913 49.85L240.582 48.5337C239.357 47.3218 239.357 45.3569 240.582 44.1451C241.807 42.9332 243.793 42.9332 245.018 44.1451L246.348 45.4614C246.43 45.5423 246.563 45.5423 246.645 45.4614L247.975 44.1451C249.2 42.9332 251.186 42.9332 252.411 44.1451C253.636 45.3569 253.636 47.3218 252.411 48.5337L251.08 49.85C250.998 49.9309 250.998 50.0621 251.08 50.1431L252.411 51.4594C253.636 52.6713 253.636 54.6361 252.411 55.848Z" fill="#FEFCF9"/>
</g>
<g opacity="0.5" clip-path="url(#clip6_363_15556)">
<g clip-path="url(#clip7_363_15556)">
<path d="M69.6225 39.8602C73.8188 34.6995 78.9823 34.278 77.7746 28.4341C84.1537 25.9644 96.3558 34.6609 101.828 38.6883C106.416 42.0647 104.682 44.8175 106.896 46.7706C107.701 54.974 97.903 67.4977 97.903 67.4977C97.903 67.4977 76.8688 76.873 58.7532 68.279C61.8731 59.1967 63.5698 47.304 69.6225 39.8602Z" fill="#315F68"/>
<path d="M69.6225 39.8603C73.8188 34.6996 99.9871 62.3062 98.7793 56.4624C103.006 57.9273 102.044 59.8805 102.044 61.5407C99.9003 65.0171 97.903 67.4978 97.903 67.4978C97.903 67.4978 76.8688 76.8731 58.7532 68.2791C61.8731 59.1968 63.5698 47.3041 69.6225 39.8603Z" fill="#154A55"/>
<path d="M77.7746 28.4342C85.524 37.9072 65.7982 47.7707 58.7532 68.2791C55.698 64.3968 52.1117 41.9112 58.7532 38.2978C65.5978 34.0984 69.0982 30.1397 77.7746 28.4342Z" fill="#2E5158"/>
<path d="M61.8732 42.3995C63.9867 40.4463 72.0864 33.8 78.3785 31.364C84.7577 28.8943 94.8544 35.954 99.8153 39.079C108.983 50.1312 104.872 54.2995 94.28 64.0798C84.201 73.3869 59.6591 66.0329 59.6591 64.2751C59.659 54.7931 57.5456 49.0403 61.8732 42.3995Z" fill="#406D76"/>
<path d="M79.1836 31.1687C79.1836 31.1687 77.9237 29.4661 77.7747 28.4342C78.3711 28.7438 79.7875 30.1921 79.8881 30.9733C79.4856 31.071 79.1836 31.1687 79.1836 31.1687Z" fill="#3C948F"/>
<path d="M59.3572 44.7433C59.8605 42.6924 74.789 31.3965 79.8883 30.9733C74.5542 33.5776 62.7791 41.3643 60.3637 45.0362C58.3774 48.0558 59.3572 59.0015 59.9611 64.1774C60.2105 65.3375 61.7726 65.5447 62.8797 66.033C62.8797 66.033 61.3701 65.8377 60.263 65.3494C59.7598 64.9587 58.7534 68.2791 58.7534 68.2791C58.3853 67.7893 59.6106 66.6398 59.5585 64.0798C59.4444 58.474 57.8593 50.8478 59.3572 44.7433Z" fill="#3F908C"/>
<path d="M102.029 61.7358C102.029 54.116 98.6075 61.0523 93.978 64.3726C95.0851 63.3961 98.8088 58.9038 101.828 55.974C105.002 52.8936 104.847 47.9659 104.847 47.9659C104.847 47.9659 105.064 50.0068 104.847 51.2863C104.375 54.0683 101.325 57.2435 101.325 57.2435C102.042 59.0477 103.036 58.9037 102.029 61.7358Z" fill="#3F908C"/>
</g>
<path d="M76.8399 46.5688C76.8399 44.3394 78.7024 42.5321 80.9999 42.5321C83.2974 42.5321 85.1599 44.3394 85.1599 46.5688C85.1599 47.8086 84.5839 48.9179 83.6774 49.6584C84.1379 49.4879 84.6377 49.3945 85.1599 49.3945C87.4574 49.3945 89.3199 51.2018 89.3199 53.4312C89.3199 55.6606 87.4574 57.4679 85.1599 57.4679C82.8624 57.4679 80.9999 55.8624 80.9999 53.633C80.9999 55.8624 79.1374 57.4679 76.8399 57.4679C74.5424 57.4679 72.6799 55.6606 72.6799 53.4312C72.6799 51.2018 74.5424 49.3945 76.8399 49.3945C77.3622 49.3945 77.8619 49.4879 78.3224 49.6584C77.4159 48.9179 76.8399 47.8086 76.8399 46.5688Z" fill="#00B594"/>
<g opacity="0.5">
<path d="M86.6584 49.9363C86.5893 50.044 86.4869 50.128 86.3659 50.1762C86.2449 50.2244 86.1114 50.2346 85.9841 50.2051C85.8569 50.1757 85.7423 50.1082 85.6568 50.0122C85.5712 49.9162 85.5189 49.7965 85.5073 49.67L86.1288 49.6161L86.6584 49.9363Z" fill="black"/>
<ellipse cx="0.610181" cy="0.619428" rx="0.610181" ry="0.619428" transform="matrix(0.511323 0.859388 -0.872418 0.488761 79.8723 52.4221)" fill="black"/>
<ellipse cx="0.610181" cy="0.619428" rx="0.610181" ry="0.619428" transform="matrix(0.511324 0.859388 -0.872418 0.488761 84.7358 49.6973)" fill="black"/>
<ellipse cx="0.610181" cy="0.619428" rx="0.610181" ry="0.619428" transform="matrix(0.511323 0.859388 -0.872418 0.488761 83.1147 50.6055)" fill="black"/>
<ellipse cx="0.610181" cy="0.619428" rx="0.610181" ry="0.619428" transform="matrix(0.511323 0.859388 -0.872418 0.488761 81.4937 51.5138)" fill="black"/>
<ellipse cx="0.610181" cy="0.619428" rx="0.610181" ry="0.619428" transform="matrix(0.511323 0.859388 -0.872418 0.488761 79.8723 52.4221)" fill="black"/>
<ellipse cx="0.610181" cy="0.619428" rx="0.610181" ry="0.619428" transform="matrix(0.511324 0.859388 -0.872418 0.488761 76.6299 54.2386)" fill="black"/>
<ellipse cx="0.610181" cy="0.619428" rx="0.610181" ry="0.619428" transform="matrix(0.511324 0.859388 -0.872418 0.488761 75.0088 55.1468)" fill="black"/>
<ellipse cx="0.610181" cy="0.619428" rx="0.610181" ry="0.619428" transform="matrix(0.511324 0.859388 -0.872418 0.488761 87.2932 50.3622)" fill="black"/>
<ellipse cx="0.610181" cy="0.619428" rx="0.610181" ry="0.619428" transform="matrix(0.511324 0.859388 -0.872418 0.488761 85.6719 51.2704)" fill="black"/>
<ellipse cx="0.610181" cy="0.619428" rx="0.610181" ry="0.619428" transform="matrix(0.511324 0.859388 -0.872418 0.488761 84.0508 52.1786)" fill="black"/>
<ellipse cx="0.610181" cy="0.619428" rx="0.610181" ry="0.619428" transform="matrix(0.511323 0.859388 -0.872418 0.488761 82.4294 53.0869)" fill="black"/>
<path d="M80.4184 55.4072C80.3393 55.3866 80.2651 55.3511 80.2001 55.3027C80.1351 55.2543 80.0805 55.1939 80.0395 55.1251C79.9986 55.0562 79.972 54.9802 79.9613 54.9013C79.9506 54.8225 79.956 54.7424 79.9772 54.6656C79.9984 54.5888 80.035 54.5168 80.0849 54.4537C80.1348 54.3906 80.197 54.3377 80.2679 54.2979C80.3389 54.2582 80.4173 54.2324 80.4985 54.222C80.5797 54.2116 80.6623 54.2169 80.7415 54.2374L80.5799 54.8223L80.4184 55.4072Z" fill="black"/>
<ellipse cx="0.610181" cy="0.619428" rx="0.610181" ry="0.619428" transform="matrix(0.511323 0.859388 -0.872418 0.488761 79.187 54.9034)" fill="black"/>
<ellipse cx="0.610181" cy="0.619428" rx="0.610181" ry="0.619428" transform="matrix(0.511324 0.859388 -0.872418 0.488761 78.2512 53.3303)" fill="black"/>
<ellipse cx="0.610181" cy="0.619428" rx="0.610181" ry="0.619428" transform="matrix(0.511324 0.859388 -0.872418 0.488761 77.5659 55.8117)" fill="black"/>
<ellipse cx="0.610181" cy="0.619428" rx="0.610181" ry="0.619428" transform="matrix(0.511324 0.859388 -0.872418 0.488761 88.229 51.9353)" fill="black"/>
<ellipse cx="0.610181" cy="0.619428" rx="0.610181" ry="0.619428" transform="matrix(0.511324 0.859388 -0.872418 0.488761 86.6079 52.8436)" fill="black"/>
<ellipse cx="0.610181" cy="0.619428" rx="0.610181" ry="0.619428" transform="matrix(0.511323 0.859388 -0.872418 0.488761 84.9868 53.7518)" fill="black"/>
<ellipse cx="0.610181" cy="0.619428" rx="0.610181" ry="0.619428" transform="matrix(0.511323 0.859388 -0.872418 0.488761 83.3655 54.6601)" fill="black"/>
<path d="M88.7751 54.9205C88.6153 54.8789 88.479 54.7774 88.3962 54.6384C88.3135 54.4993 88.2911 54.334 88.3339 54.1789C88.3767 54.0238 88.4813 53.8915 88.6246 53.8112C88.768 53.7309 88.9383 53.7092 89.0981 53.7507L88.9366 54.3356L88.7751 54.9205Z" fill="black"/>
<ellipse cx="0.610181" cy="0.619428" rx="0.610181" ry="0.619428" transform="matrix(0.511323 0.859388 -0.872418 0.488761 87.5439 54.4167)" fill="black"/>
<ellipse cx="0.610181" cy="0.619428" rx="0.610181" ry="0.619428" transform="matrix(0.511323 0.859388 -0.872418 0.488761 85.9226 55.325)" fill="black"/>
<path d="M83.4704 56.9036C83.4916 56.8268 83.5282 56.7548 83.5781 56.6917C83.6279 56.6287 83.6901 56.5757 83.7611 56.536C83.8321 56.4962 83.9104 56.4704 83.9917 56.46C84.0729 56.4496 84.1555 56.4549 84.2346 56.4755C84.3138 56.4961 84.388 56.5316 84.453 56.58C84.518 56.6284 84.5725 56.6887 84.6135 56.7576C84.6545 56.8265 84.6811 56.9025 84.6918 56.9813C84.7025 57.0602 84.6971 57.1403 84.6759 57.2171L84.0731 57.0604L83.4704 56.9036Z" fill="black"/>
</g>
<path opacity="0.1" fill-rule="evenodd" clip-rule="evenodd" d="M80.9999 42.5321C78.7024 42.5321 76.8399 44.3394 76.8399 46.5688C76.8399 47.8086 77.4159 48.9179 78.3224 49.6584C77.8619 49.4879 77.3622 49.3945 76.8399 49.3945C74.5424 49.3945 72.6799 51.2018 72.6799 53.4312C72.6799 54.1536 72.8755 54.8318 73.2181 55.4184L83.971 49.3943C84.7065 48.6662 85.1599 47.6689 85.1599 46.5688C85.1599 44.3394 83.2974 42.5321 80.9999 42.5321Z" fill="#FEFCF9"/>
<path fill-rule="evenodd" clip-rule="evenodd" d="M83.1397 49.9656C82.9852 49.711 83.0427 49.3854 83.2756 49.1951C84.0473 48.5648 84.5359 47.6225 84.5359 46.5688C84.5359 44.6738 82.9528 43.1376 80.9999 43.1376C79.0471 43.1376 77.4639 44.6738 77.4639 46.5688C77.4639 47.6225 77.9526 48.5648 78.7243 49.1951C78.9572 49.3854 79.0146 49.711 78.8602 49.9656C78.7057 50.2201 78.3845 50.3294 78.1 50.2241C77.7094 50.0795 77.285 50 76.8399 50C74.8871 50 73.3039 51.5362 73.3039 53.4312C73.3039 55.3262 74.8871 56.8624 76.8399 56.8624C78.8356 56.8624 80.3759 55.4879 80.3759 53.633C80.3759 53.2986 80.6553 53.0275 80.9999 53.0275C81.3446 53.0275 81.6239 53.2986 81.6239 53.633C81.6239 55.4879 83.1642 56.8624 85.1599 56.8624C87.1128 56.8624 88.6959 55.3262 88.6959 53.4312C88.6959 51.5362 87.1128 50 85.1599 50C84.7149 50 84.2905 50.0795 83.8999 50.2241C83.6154 50.3294 83.2942 50.2201 83.1397 49.9656ZM81.338 55.197C81.1204 54.7268 80.9999 54.2001 80.9999 53.633C80.9999 54.2001 80.8794 54.7268 80.6619 55.197C80.0243 56.5753 78.553 57.4679 76.8399 57.4679C74.5424 57.4679 72.6799 55.6606 72.6799 53.4312C72.6799 51.2018 74.5424 49.3945 76.8399 49.3945C76.9671 49.3945 77.0929 49.4 77.2171 49.4109C77.6032 49.4445 77.974 49.5294 78.3224 49.6584C78.0322 49.4213 77.7758 49.1464 77.5614 48.8415C77.1061 48.1942 76.8399 47.4117 76.8399 46.5688C76.8399 44.3394 78.7024 42.5321 80.9999 42.5321C83.2974 42.5321 85.1599 44.3394 85.1599 46.5688C85.1599 47.4117 84.8937 48.1942 84.4384 48.8415C84.224 49.1464 83.9677 49.4213 83.6774 49.6584C84.0258 49.5294 84.3967 49.4445 84.7828 49.4109C84.907 49.4 85.0328 49.3945 85.1599 49.3945C87.4574 49.3945 89.3199 51.2018 89.3199 53.4312C89.3199 55.6606 87.4574 57.4679 85.1599 57.4679C83.4468 57.4679 81.9756 56.5753 81.338 55.197Z" fill="#FEFCF9"/>
</g>
<path d="M192 22.5V12C192 6.47715 187.523 2 182 2H35C29.4772 2 25 6.47715 25 12V22.5M25 22.5L20.5 18M25 22.5L29.5 18" stroke="#FEFCF9" stroke-width="2" stroke-linecap="round" stroke-linejoin="round"/>
<g clip-path="url(#clip8_363_15556)">
<g clip-path="url(#clip9_363_15556)">
<path d="M14.3415 39.8602C18.457 34.6995 23.5212 34.278 22.3367 28.4341C28.5933 25.9644 40.5606 34.6609 45.9277 38.6883C50.4272 42.0647 48.7265 44.8175 50.8981 46.7706C51.6877 54.974 42.0781 67.4977 42.0781 67.4977C42.0781 67.4977 21.4484 76.873 3.68115 68.279C6.74106 59.1967 8.40513 47.304 14.3415 39.8602Z" fill="#315F68"/>
<path d="M14.3415 39.8603C18.457 34.6996 44.1221 62.3062 42.9376 56.4624C47.0833 57.9273 46.1396 59.8805 46.1396 61.5407C44.0369 65.0171 42.0781 67.4978 42.0781 67.4978C42.0781 67.4978 21.4484 76.8731 3.68115 68.2791C6.74106 59.1968 8.40513 47.3041 14.3415 39.8603Z" fill="#154A55"/>
<path d="M22.3366 28.4342C29.937 37.9072 10.5905 47.7707 3.68104 68.2791C0.684552 64.3968 -2.83275 41.9112 3.68102 38.2978C10.394 34.0984 13.8271 30.1397 22.3366 28.4342Z" fill="#2E5158"/>
<path d="M6.7409 42.3995C8.81374 40.4463 16.7577 33.8 22.9288 31.364C29.1853 28.8943 39.0878 35.954 43.9534 39.079C52.9444 50.1312 48.9123 54.2995 38.5245 64.0798C28.6392 73.3869 4.56936 66.0329 4.56935 64.2751C4.56929 54.7931 2.4965 49.0403 6.7409 42.3995Z" fill="#406D76"/>
<path d="M23.7186 31.1687C23.7186 31.1687 22.4829 29.4661 22.3367 28.4342C22.9216 28.7438 24.3108 30.1921 24.4095 30.9733C24.0147 31.071 23.7186 31.1687 23.7186 31.1687Z" fill="#3C948F"/>
<path d="M4.27326 44.7433C4.76681 42.6924 19.4083 31.3965 24.4094 30.9733C19.178 33.5776 7.62929 41.3643 5.26033 45.0362C3.3123 48.0558 4.27324 59.0015 4.86548 64.1774C5.11007 65.3375 6.6422 65.5447 7.72798 66.033C7.72798 66.033 6.24737 65.8377 5.1616 65.3494C4.66807 64.9587 3.68104 68.2791 3.68104 68.2791C3.32001 67.7893 4.52176 66.6398 4.47065 64.0798C4.35873 58.474 2.80415 50.8478 4.27326 44.7433Z" fill="#3F908C"/>
<path d="M46.1249 61.7358C46.1249 54.116 42.7688 61.0523 38.2284 64.3726C39.3142 63.3961 42.9663 58.9038 45.9275 55.974C49.0408 52.8936 48.8887 47.9659 48.8887 47.9659C48.8887 47.9659 49.1016 50.0068 48.8887 51.2863C48.4258 54.0683 45.4339 57.2435 45.4339 57.2435C46.1375 59.0477 47.112 58.9037 46.1249 61.7358Z" fill="#3F908C"/>
</g>
<path d="M24.9557 43.2288C25.1815 42.8381 25.8187 42.8381 26.0445 43.2288L33.5936 56.289C33.7989 56.6442 33.504 57.0642 33.0492 57.0642H17.951C17.4962 57.0642 17.2013 56.6442 17.4066 56.289L24.9557 43.2288Z" fill="#EFBF45"/>
<g opacity="0.5">
<path d="M27.3362 46.5688L27.9482 47.6789V48.2844L27.3362 48.878V46.5688Z" fill="black"/>
<path d="M25.908 44.2477L26.52 45.2661V49.6778L25.908 50.2794V44.2477Z" fill="black"/>
<path d="M24.48 45.2569L25.092 44.2262V51.0726L24.48 51.6762V45.2569Z" fill="black"/>
<path d="M23.052 47.7317L23.664 46.7005V52.4717L23.052 53.0751V47.7317Z" fill="black"/>
<path d="M21.624 49.9417L22.236 49.1927V53.8745L21.624 54.4671V49.9417Z" fill="black"/>
<path d="M20.196 52.6239L20.808 51.6147V55.2622L20.196 55.8695V52.6239Z" fill="black"/>
<path d="M18.7681 54.6668L19.3801 54.0367V56.4587H18.7681V54.6668Z" fill="black"/>
</g>
<path fill-rule="evenodd" clip-rule="evenodd" d="M25.6768 43.8492C25.5984 43.7139 25.4013 43.7139 25.3229 43.8492L18.1885 56.1565C18.1105 56.291 18.2086 56.4587 18.3654 56.4587H32.6343C32.791 56.4587 32.8892 56.291 32.8112 56.1565L25.6768 43.8492ZM26.0442 43.2288C25.8184 42.8381 25.1812 42.8381 24.9555 43.2288L17.4064 56.289C17.201 56.6442 17.4959 57.0642 17.9508 57.0642H33.0489C33.5038 57.0642 33.7987 56.6442 33.5933 56.289L26.0442 43.2288Z" fill="#FEFCF9"/>
<path opacity="0.1" d="M28.4579 47.7798L18.9719 57.0642H32.947C33.4018 57.0642 33.6968 56.6442 33.4914 56.289L28.4579 47.7798Z" fill="#FEFCF9"/>
</g>
<defs>
<clipPath id="clip0_363_15556">
<rect width="51" height="44" fill="white" transform="translate(111 28)"/>
</clipPath>
<clipPath id="clip1_363_15556">
<rect width="51" height="44" fill="white" transform="translate(111 28)"/>
</clipPath>
<clipPath id="clip2_363_15556">
<rect width="51" height="44" fill="white" transform="translate(166 28)"/>
</clipPath>
<clipPath id="clip3_363_15556">
<rect width="51" height="44" fill="white" transform="translate(166 28)"/>
</clipPath>
<clipPath id="clip4_363_15556">
<rect width="51" height="44" fill="white" transform="translate(221 28)"/>
</clipPath>
<clipPath id="clip5_363_15556">
<rect width="51" height="44" fill="white" transform="translate(221 28)"/>
</clipPath>
<clipPath id="clip6_363_15556">
<rect width="52" height="44" fill="white" transform="translate(55 28)"/>
</clipPath>
<clipPath id="clip7_363_15556">
<rect width="52" height="44" fill="white" transform="translate(55 28)"/>
</clipPath>
<clipPath id="clip8_363_15556">
<rect width="51" height="44" fill="white" transform="translate(0 28)"/>
</clipPath>
<clipPath id="clip9_363_15556">
<rect width="51" height="44" fill="white" transform="translate(0 28)"/>
</clipPath>
</defs>
</svg>
