<svg width="272" height="72" viewBox="0 0 272 72" fill="none" xmlns="http://www.w3.org/2000/svg">
<g clip-path="url(#clip0_363_15550)">
<g clip-path="url(#clip1_363_15550)">
<path d="M156.153 24.2861C161.076 18.0699 167.133 17.5621 165.716 10.5229C173.2 7.54803 187.514 18.0233 193.933 22.8745C199.315 26.9415 197.281 30.2574 199.878 32.6101C200.822 42.4915 189.329 57.5768 189.329 57.5768C189.329 57.5768 164.654 68.8698 143.403 58.5179C147.063 47.5779 149.053 33.2526 156.153 24.2861Z" fill="#315F68"/>
<path d="M156.153 24.2862C161.076 18.07 191.773 51.3234 190.357 44.2842C195.315 46.0488 194.186 48.4014 194.186 50.4012C191.672 54.5888 189.329 57.5769 189.329 57.5769C189.329 57.5769 164.654 68.8698 143.403 58.518C147.063 47.5779 149.053 33.2527 156.153 24.2862Z" fill="#154A55"/>
<path d="M165.716 10.5229C174.807 21.9336 151.667 33.8147 143.403 58.518C139.819 53.8415 135.612 26.7566 143.403 22.4041C151.432 17.3458 155.538 12.5773 165.716 10.5229Z" fill="#2E5158"/>
<path d="M147.063 27.3448C149.542 24.9921 159.044 16.9863 166.425 14.052C173.908 11.0771 185.752 19.5809 191.572 23.3451C202.326 36.658 197.503 41.6789 185.078 53.4597C173.255 64.6705 144.465 55.8123 144.465 53.6949C144.465 42.2735 141.986 35.344 147.063 27.3448Z" fill="#406D76"/>
<path d="M167.369 13.8168C167.369 13.8168 165.891 11.766 165.717 10.5231C166.416 10.896 168.078 12.6405 168.196 13.5816C167.724 13.6992 167.369 13.8168 167.369 13.8168Z" fill="#3C948F"/>
<path d="M144.111 30.1681C144.701 27.6977 162.214 14.0913 168.196 13.5815C161.938 16.7185 148.125 26.0979 145.292 30.521C142.962 34.1581 144.111 47.3428 144.82 53.5774C145.112 54.9748 146.945 55.2243 148.243 55.8125C148.243 55.8125 146.472 55.5772 145.174 54.989C144.583 54.5185 143.403 58.5181 143.403 58.5181C142.971 57.928 144.408 56.5434 144.347 53.4598C144.213 46.7074 142.354 37.5213 144.111 30.1681Z" fill="#3F908C"/>
<path d="M194.169 50.6363C194.169 41.4579 190.155 49.813 184.724 53.8125C186.023 52.6362 190.391 47.225 193.933 43.6959C197.657 39.9855 197.475 34.0498 197.475 34.0498C197.475 34.0498 197.729 36.5082 197.475 38.0494C196.921 41.4004 193.343 45.2252 193.343 45.2252C194.184 47.3984 195.35 47.2249 194.169 50.6363Z" fill="#3F908C"/>
</g>
<path d="M168.849 28.3437C169.119 27.8732 169.881 27.8732 170.151 28.3437L179.18 44.0753C179.426 44.5033 179.073 45.0092 178.529 45.0092H160.471C159.927 45.0092 159.574 44.5033 159.82 44.0753L168.849 28.3437Z" fill="#B9B9B9"/>
<g opacity="0.5">
<path d="M171.696 32.3671L172.428 33.7042V34.4336L171.696 35.1485V32.3671Z" fill="black"/>
<path d="M169.988 29.5712L170.72 30.7979V36.112L169.988 36.8367V29.5712Z" fill="black"/>
<path d="M168.28 30.7868L169.012 29.5453V37.792L168.28 38.5191V30.7868Z" fill="black"/>
<path d="M166.572 33.7677L167.304 32.5256V39.4773L166.572 40.2041V33.7677Z" fill="black"/>
<path d="M164.864 36.4298L165.596 35.5276V41.1671L164.864 41.8808V36.4298Z" fill="black"/>
<path d="M163.156 39.6607L163.888 38.4451V42.8387L163.156 43.5702V39.6607Z" fill="black"/>
<path d="M161.448 42.1215L162.18 41.3625V44.28H161.448V42.1215Z" fill="black"/>
</g>
<path fill-rule="evenodd" clip-rule="evenodd" d="M169.712 29.091C169.618 28.9281 169.382 28.9281 169.288 29.091L160.755 43.9158C160.662 44.0778 160.779 44.2798 160.967 44.2798H178.033C178.221 44.2798 178.338 44.0778 178.245 43.9158L169.712 29.091ZM170.151 28.3437C169.881 27.8732 169.119 27.8732 168.849 28.3437L159.82 44.0753C159.574 44.5033 159.927 45.0092 160.471 45.0092H178.529C179.073 45.0092 179.426 44.5033 179.18 44.0753L170.151 28.3437Z" fill="#FEFCF9"/>
<path opacity="0.1" d="M173.038 33.8257L161.692 45.0092H178.407C178.951 45.0092 179.304 44.5032 179.058 44.0753L173.038 33.8257Z" fill="#FEFCF9"/>
</g>
<g clip-path="url(#clip2_363_15550)">
<g clip-path="url(#clip3_363_15550)">
<path d="M222.435 24.2861C227.438 18.0699 233.594 17.5621 232.154 10.5229C239.76 7.54803 254.309 18.0233 260.834 22.8745C266.304 26.9415 264.236 30.2574 266.876 32.6101C267.836 42.4915 256.154 57.5768 256.154 57.5768C256.154 57.5768 231.074 68.8698 209.475 58.5179C213.195 47.5779 215.218 33.2526 222.435 24.2861Z" fill="#315F68"/>
<path d="M222.435 24.2862C227.438 18.07 258.639 51.3234 257.199 44.2842C262.238 46.0488 261.091 48.4014 261.091 50.4012C258.535 54.5888 256.154 57.5769 256.154 57.5769C256.154 57.5769 231.074 68.8698 209.475 58.518C213.195 47.5779 215.218 33.2527 222.435 24.2862Z" fill="#154A55"/>
<path d="M232.154 10.5229C241.394 21.9336 217.875 33.8147 209.475 58.518C205.832 53.8415 201.556 26.7566 209.475 22.4041C217.636 17.3458 221.809 12.5773 232.154 10.5229Z" fill="#2E5158"/>
<path d="M213.195 27.3448C215.715 24.9921 225.372 16.9863 232.874 14.052C240.48 11.0771 252.519 19.5809 258.434 23.3451C269.364 36.658 264.462 41.6789 251.834 53.4597C239.816 64.6705 210.555 55.8123 210.555 53.6949C210.555 42.2735 208.035 35.344 213.195 27.3448Z" fill="#406D76"/>
<path d="M233.834 13.8168C233.834 13.8168 232.332 11.766 232.155 10.5231C232.866 10.896 234.554 12.6405 234.674 13.5816C234.194 13.6992 233.834 13.8168 233.834 13.8168Z" fill="#3C948F"/>
<path d="M210.195 30.1681C210.795 27.6977 228.595 14.0913 234.674 13.5815C228.315 16.7185 214.275 26.0979 211.395 30.521C209.027 34.1581 210.195 47.3428 210.915 53.5774C211.212 54.9748 213.075 55.2243 214.395 55.8125C214.395 55.8125 212.595 55.5772 211.275 54.989C210.675 54.5185 209.475 58.5181 209.475 58.5181C209.036 57.928 210.497 56.5434 210.435 53.4598C210.299 46.7074 208.409 37.5213 210.195 30.1681Z" fill="#3F908C"/>
<path d="M261.073 50.6363C261.073 41.4579 256.994 49.813 251.474 53.8125C252.794 52.6362 257.234 47.225 260.833 43.6959C264.618 39.9855 264.433 34.0498 264.433 34.0498C264.433 34.0498 264.692 36.5082 264.433 38.0494C263.871 41.4004 260.233 45.2252 260.233 45.2252C261.089 47.3984 262.273 47.2249 261.073 50.6363Z" fill="#3F908C"/>
</g>
<path d="M245.92 36.5C245.92 41.8709 241.478 46.2248 236 46.2248C230.521 46.2248 226.08 41.8709 226.08 36.5C226.08 31.1292 230.521 26.7753 236 26.7753C241.478 26.7753 245.92 31.1292 245.92 36.5Z" fill="#B9B9B9"/>
<path fill-rule="evenodd" clip-rule="evenodd" d="M236 45.4955C241.068 45.4955 245.176 41.4681 245.176 36.5C245.176 31.532 241.068 27.5046 236 27.5046C230.932 27.5046 226.824 31.532 226.824 36.5C226.824 41.4681 230.932 45.4955 236 45.4955ZM236 46.2248C241.478 46.2248 245.92 41.8709 245.92 36.5C245.92 31.1292 241.478 26.7753 236 26.7753C230.521 26.7753 226.08 31.1292 226.08 36.5C226.08 41.8709 230.521 46.2248 236 46.2248Z" fill="#FEFCF9"/>
<path opacity="0.1" d="M226.824 36.5001C226.824 31.532 230.908 27.5046 235.876 27.5046L238.976 45.4955H235.819C230.851 45.4955 226.824 41.4681 226.824 36.5001Z" fill="#FEFCF9"/>
</g>
<g clip-path="url(#clip4_363_15550)">
<g clip-path="url(#clip5_363_15550)">
<path d="M89.4347 24.2861C94.438 18.0699 100.594 17.5621 99.1544 10.5229C106.76 7.54803 121.309 18.0233 127.834 22.8745C133.304 26.9415 131.236 30.2574 133.876 32.6101C134.836 42.4915 123.154 57.5768 123.154 57.5768C123.154 57.5768 98.0744 68.8698 76.4751 58.5179C80.195 47.5779 82.218 33.2526 89.4347 24.2861Z" fill="#315F68"/>
<path d="M89.4347 24.2862C94.438 18.07 125.639 51.3234 124.199 44.2842C129.238 46.0488 128.091 48.4014 128.091 50.4012C125.535 54.5888 123.154 57.5769 123.154 57.5769C123.154 57.5769 98.0744 68.8698 76.4751 58.518C80.195 47.5779 82.218 33.2527 89.4347 24.2862Z" fill="#154A55"/>
<path d="M99.1543 10.5229C108.394 21.9336 84.8748 33.8147 76.475 58.518C72.8322 53.8415 68.5563 26.7566 76.475 22.4041C84.6358 17.3458 88.8094 12.5773 99.1543 10.5229Z" fill="#2E5158"/>
<path d="M80.1949 27.3448C82.7148 24.9921 92.3722 16.9863 99.8743 14.052C107.48 11.0771 119.519 19.5809 125.434 23.3451C136.364 36.658 131.462 41.6789 118.834 53.4597C106.816 64.6705 77.555 55.8123 77.555 53.6949C77.5549 42.2735 75.035 35.344 80.1949 27.3448Z" fill="#406D76"/>
<path d="M100.834 13.8168C100.834 13.8168 99.3323 11.766 99.1545 10.5231C99.8656 10.896 101.554 12.6405 101.674 13.5816C101.194 13.6992 100.834 13.8168 100.834 13.8168Z" fill="#3C948F"/>
<path d="M77.1951 30.1681C77.7951 27.6977 95.5946 14.0913 101.674 13.5815C95.3146 16.7185 81.275 26.0979 78.3951 30.521C76.0269 34.1581 77.1951 47.3428 77.9151 53.5774C78.2124 54.9748 80.075 55.2243 81.395 55.8125C81.395 55.8125 79.5951 55.5772 78.2751 54.989C77.6751 54.5185 76.4752 58.5181 76.4752 58.5181C76.0363 57.928 77.4973 56.5434 77.4351 53.4598C77.2991 46.7074 75.4092 37.5213 77.1951 30.1681Z" fill="#3F908C"/>
<path d="M128.073 50.6363C128.073 41.4579 123.994 49.813 118.474 53.8125C119.794 52.6362 124.234 47.225 127.833 43.6959C131.618 39.9855 131.433 34.0498 131.433 34.0498C131.433 34.0498 131.692 36.5082 131.433 38.0494C130.871 41.4004 127.233 45.2252 127.233 45.2252C128.089 47.3984 129.273 47.2249 128.073 50.6363Z" fill="#3F908C"/>
</g>
<path d="M98.0398 32.367C98.0398 29.6816 100.261 27.5046 103 27.5046C105.739 27.5046 107.96 29.6816 107.96 32.367C107.96 33.8604 107.273 35.1966 106.192 36.0885C106.741 35.8832 107.337 35.7707 107.96 35.7707C110.699 35.7707 112.92 37.9477 112.92 40.6331C112.92 43.3185 110.699 45.4955 107.96 45.4955C105.221 45.4955 103 43.5616 103 40.8762C103 43.5616 100.779 45.4955 98.0398 45.4955C95.3005 45.4955 93.0798 43.3185 93.0798 40.6331C93.0798 37.9477 95.3005 35.7707 98.0398 35.7707C98.6625 35.7707 99.2584 35.8832 99.8074 36.0885C98.7266 35.1966 98.0398 33.8604 98.0398 32.367Z" fill="#B9B9B9"/>
<g opacity="0.5">
<path d="M109.746 36.4232C109.664 36.553 109.542 36.6541 109.398 36.7122C109.253 36.7703 109.094 36.7825 108.942 36.7471C108.791 36.7116 108.654 36.6303 108.552 36.5146C108.45 36.399 108.388 36.2548 108.374 36.1025L109.115 36.0376L109.746 36.4232Z" fill="black"/>
<ellipse cx="0.733046" cy="0.740367" rx="0.733046" ry="0.740367" transform="matrix(0.507471 0.861669 -0.870275 0.492566 101.655 39.4175)" fill="black"/>
<ellipse cx="0.733046" cy="0.740367" rx="0.733046" ry="0.740367" transform="matrix(0.507472 0.861668 -0.870275 0.492565 107.454 36.1354)" fill="black"/>
<ellipse cx="0.733046" cy="0.740367" rx="0.733046" ry="0.740367" transform="matrix(0.507472 0.861668 -0.870275 0.492565 105.521 37.2294)" fill="black"/>
<ellipse cx="0.733046" cy="0.740367" rx="0.733046" ry="0.740367" transform="matrix(0.507472 0.861668 -0.870276 0.492565 103.588 38.3234)" fill="black"/>
<ellipse cx="0.733046" cy="0.740367" rx="0.733046" ry="0.740367" transform="matrix(0.507471 0.861669 -0.870275 0.492566 101.655 39.4175)" fill="black"/>
<ellipse cx="0.733046" cy="0.740367" rx="0.733046" ry="0.740367" transform="matrix(0.507472 0.861668 -0.870276 0.492565 97.7896 41.6055)" fill="black"/>
<ellipse cx="0.733045" cy="0.740366" rx="0.733045" ry="0.740366" transform="matrix(0.507472 0.861668 -0.870276 0.492565 95.8564 42.6996)" fill="black"/>
<ellipse cx="0.733046" cy="0.740367" rx="0.733046" ry="0.740367" transform="matrix(0.507472 0.861668 -0.870275 0.492565 110.503 36.9362)" fill="black"/>
<ellipse cx="0.733045" cy="0.740366" rx="0.733045" ry="0.740366" transform="matrix(0.507472 0.861668 -0.870275 0.492565 108.57 38.0303)" fill="black"/>
<ellipse cx="0.733046" cy="0.740367" rx="0.733046" ry="0.740367" transform="matrix(0.507472 0.861668 -0.870275 0.492565 106.637 39.1243)" fill="black"/>
<ellipse cx="0.733046" cy="0.740367" rx="0.733046" ry="0.740367" transform="matrix(0.507472 0.861668 -0.870275 0.492565 104.704 40.2183)" fill="black"/>
<path d="M102.307 43.0132C102.212 42.9884 102.124 42.9456 102.046 42.8873C101.969 42.829 101.904 42.7563 101.855 42.6734C101.806 42.5904 101.774 42.4989 101.762 42.4039C101.749 42.3089 101.755 42.2124 101.781 42.1199C101.806 42.0274 101.849 41.9407 101.909 41.8647C101.968 41.7887 102.043 41.7249 102.127 41.6771C102.212 41.6292 102.305 41.5981 102.402 41.5856C102.499 41.5731 102.597 41.5794 102.692 41.6042L102.499 42.3087L102.307 43.0132Z" fill="black"/>
<ellipse cx="0.733045" cy="0.740366" rx="0.733045" ry="0.740366" transform="matrix(0.507472 0.861668 -0.870276 0.492565 100.838 42.4064)" fill="black"/>
<ellipse cx="0.733046" cy="0.740367" rx="0.733046" ry="0.740367" transform="matrix(0.507472 0.861668 -0.870275 0.492565 99.7224 40.5115)" fill="black"/>
<ellipse cx="0.733046" cy="0.740367" rx="0.733046" ry="0.740367" transform="matrix(0.507472 0.861668 -0.870275 0.492565 98.9055 43.5005)" fill="black"/>
<ellipse cx="0.733046" cy="0.740367" rx="0.733046" ry="0.740367" transform="matrix(0.507472 0.861668 -0.870275 0.492565 111.619 38.8312)" fill="black"/>
<ellipse cx="0.733046" cy="0.740367" rx="0.733046" ry="0.740367" transform="matrix(0.507472 0.861668 -0.870275 0.492565 109.686 39.9252)" fill="black"/>
<ellipse cx="0.733046" cy="0.740367" rx="0.733046" ry="0.740367" transform="matrix(0.507472 0.861668 -0.870276 0.492565 107.753 41.0192)" fill="black"/>
<ellipse cx="0.733046" cy="0.740367" rx="0.733046" ry="0.740367" transform="matrix(0.507472 0.861668 -0.870276 0.492565 105.82 42.1133)" fill="black"/>
<path d="M112.27 42.4269C112.08 42.3768 111.917 42.2546 111.819 42.0871C111.72 41.9196 111.693 41.7205 111.744 41.5336C111.795 41.3468 111.92 41.1875 112.091 41.0908C112.262 40.994 112.465 40.9678 112.656 41.0179L112.463 41.7224L112.27 42.4269Z" fill="black"/>
<ellipse cx="0.733046" cy="0.740367" rx="0.733046" ry="0.740367" transform="matrix(0.507472 0.861668 -0.870276 0.492565 110.802 41.8201)" fill="black"/>
<ellipse cx="0.733046" cy="0.740367" rx="0.733046" ry="0.740367" transform="matrix(0.507472 0.861668 -0.870275 0.492565 108.869 42.9142)" fill="black"/>
<path d="M105.945 44.8157C105.971 44.7232 106.014 44.6365 106.074 44.5605C106.133 44.4845 106.207 44.4207 106.292 44.3729C106.377 44.325 106.47 44.2939 106.567 44.2814C106.664 44.2689 106.762 44.2752 106.857 44.3C106.951 44.3248 107.039 44.3676 107.117 44.4259C107.194 44.4842 107.259 44.5569 107.308 44.6398C107.357 44.7228 107.389 44.8143 107.402 44.9093C107.414 45.0043 107.408 45.1008 107.383 45.1933L106.664 45.0045L105.945 44.8157Z" fill="black"/>
</g>
<path opacity="0.1" fill-rule="evenodd" clip-rule="evenodd" d="M103 27.5046C100.261 27.5046 98.0398 29.6816 98.0398 32.367C98.0398 33.8604 98.7266 35.1966 99.8074 36.0885C99.2584 35.8832 98.6625 35.7707 98.0398 35.7707C95.3005 35.7707 93.0798 37.9477 93.0798 40.6331C93.0798 41.5033 93.313 42.3201 93.7215 43.0268L106.542 35.7704C107.419 34.8934 107.96 33.6921 107.96 32.367C107.96 29.6816 105.739 27.5046 103 27.5046Z" fill="#FEFCF9"/>
<path fill-rule="evenodd" clip-rule="evenodd" d="M105.551 36.4586C105.367 36.1519 105.435 35.7597 105.713 35.5306C106.633 34.7713 107.216 33.6362 107.216 32.367C107.216 30.0844 105.328 28.234 103 28.234C100.671 28.234 98.7838 30.0844 98.7838 32.367C98.7838 33.6362 99.3665 34.7713 100.287 35.5306C100.564 35.7597 100.633 36.1519 100.449 36.4586C100.264 36.7652 99.8814 36.8968 99.5422 36.77C99.0765 36.5958 98.5704 36.5001 98.0398 36.5001C95.7114 36.5001 93.8238 38.3505 93.8238 40.6331C93.8238 42.9157 95.7114 44.7661 98.0398 44.7661C100.419 44.7661 102.256 43.1105 102.256 40.8762C102.256 40.4734 102.589 40.1468 103 40.1468C103.411 40.1468 103.744 40.4734 103.744 40.8762C103.744 43.1105 105.58 44.7661 107.96 44.7661C110.288 44.7661 112.176 42.9157 112.176 40.6331C112.176 38.3505 110.288 36.5001 107.96 36.5001C107.429 36.5001 106.923 36.5958 106.457 36.77C106.118 36.8968 105.735 36.7652 105.551 36.4586ZM103.403 42.7601C103.144 42.1937 103 41.5593 103 40.8762C103 41.5593 102.856 42.1937 102.597 42.7601C101.837 44.4203 100.082 45.4955 98.0398 45.4955C95.3005 45.4955 93.0798 43.3185 93.0798 40.6331C93.0798 37.9477 95.3005 35.7707 98.0398 35.7707C98.1914 35.7707 98.3414 35.7774 98.4895 35.7904C98.9498 35.831 99.392 35.9332 99.8074 36.0885C99.4614 35.803 99.1557 35.4718 98.9001 35.1046C98.3572 34.3249 98.0398 33.3823 98.0398 32.367C98.0398 29.6816 100.261 27.5046 103 27.5046C105.739 27.5046 107.96 29.6816 107.96 32.367C107.96 33.3823 107.642 34.3249 107.1 35.1046C106.844 35.4718 106.538 35.803 106.192 36.0885C106.608 35.9332 107.05 35.831 107.51 35.7904C107.658 35.7774 107.808 35.7707 107.96 35.7707C110.699 35.7707 112.92 37.9477 112.92 40.6331C112.92 43.3185 110.699 45.4955 107.96 45.4955C105.917 45.4955 104.163 44.4203 103.403 42.7601Z" fill="#FEFCF9"/>
</g>
<g clip-path="url(#clip6_363_15550)">
<g clip-path="url(#clip7_363_15550)">
<path d="M22.4347 24.2861C27.438 18.0699 33.5944 17.5621 32.1544 10.5229C39.7604 7.54803 54.3089 18.0233 60.8336 22.8745C66.3036 26.9415 64.2361 30.2574 66.876 32.6101C67.836 42.4915 56.1537 57.5768 56.1537 57.5768C56.1537 57.5768 31.0744 68.8698 9.4751 58.5179C13.195 47.5779 15.218 33.2526 22.4347 24.2861Z" fill="#315F68"/>
<path d="M22.4347 24.2862C27.438 18.07 58.6386 51.3234 57.1986 44.2842C62.2384 46.0488 61.0912 48.4014 61.0912 50.4012C58.5351 54.5888 56.1537 57.5769 56.1537 57.5769C56.1537 57.5769 31.0744 68.8698 9.4751 58.518C13.195 47.5779 15.218 33.2527 22.4347 24.2862Z" fill="#154A55"/>
<path d="M32.1543 10.5229C41.394 21.9336 17.8748 33.8147 9.47499 58.518C5.8322 53.8415 1.55627 26.7566 9.47497 22.4041C17.6358 17.3458 21.8094 12.5773 32.1543 10.5229Z" fill="#2E5158"/>
<path d="M13.1949 27.3448C15.7148 24.9921 25.3722 16.9863 32.8743 14.052C40.4803 11.0771 52.5186 19.5809 58.4336 23.3451C69.3638 36.658 64.4621 41.6789 51.8337 53.4597C39.8164 64.6705 10.555 55.8123 10.555 53.6949C10.5549 42.2735 8.03504 35.344 13.1949 27.3448Z" fill="#406D76"/>
<path d="M33.8345 13.8168C33.8345 13.8168 32.3323 11.766 32.1545 10.5231C32.8656 10.896 34.5545 12.6405 34.6745 13.5816C34.1945 13.6992 33.8345 13.8168 33.8345 13.8168Z" fill="#3C948F"/>
<path d="M10.1951 30.1681C10.7951 27.6977 28.5946 14.0913 34.6744 13.5815C28.3146 16.7185 14.275 26.0979 11.3951 30.521C9.02692 34.1581 10.1951 47.3428 10.9151 53.5774C11.2124 54.9748 13.075 55.2243 14.395 55.8125C14.395 55.8125 12.5951 55.5772 11.2751 54.989C10.6751 54.5185 9.47519 58.5181 9.47519 58.5181C9.0363 57.928 10.4973 56.5434 10.4351 53.4598C10.2991 46.7074 8.40918 37.5213 10.1951 30.1681Z" fill="#3F908C"/>
<path d="M61.0734 50.6363C61.0734 41.4579 56.9936 49.813 51.4738 53.8125C52.7938 52.6362 57.2336 47.225 60.8335 43.6959C64.6183 39.9855 64.4334 34.0498 64.4334 34.0498C64.4334 34.0498 64.6922 36.5082 64.4334 38.0494C63.8706 41.4004 60.2335 45.2252 60.2335 45.2252C61.0888 47.3984 62.2734 47.2249 61.0734 50.6363Z" fill="#3F908C"/>
</g>
<path d="M35.338 28.3437C35.6125 27.8732 36.3872 27.8732 36.6616 28.3437L45.839 44.0753C46.0886 44.5033 45.7301 45.0092 45.1772 45.0092H26.8225C26.2696 45.0092 25.9111 44.5033 26.1607 44.0753L35.338 28.3437Z" fill="#B9B9B9"/>
<g opacity="0.5">
<path d="M38.2319 32.3671L38.9759 33.7042V34.4336L38.2319 35.1485V32.3671Z" fill="black"/>
<path d="M36.4958 29.5712L37.2398 30.7979V36.112L36.4958 36.8367V29.5712Z" fill="black"/>
<path d="M34.76 30.7868L35.504 29.5453V37.792L34.76 38.5191V30.7868Z" fill="black"/>
<path d="M33.0239 33.7677L33.7679 32.5256V39.4773L33.0239 40.2041V33.7677Z" fill="black"/>
<path d="M31.2878 36.4298L32.0318 35.5276V41.1671L31.2878 41.8808V36.4298Z" fill="black"/>
<path d="M29.552 39.6607L30.296 38.4451V42.8387L29.552 43.5702V39.6607Z" fill="black"/>
<path d="M27.8159 42.1215L28.5599 41.3625V44.28H27.8159V42.1215Z" fill="black"/>
</g>
<path fill-rule="evenodd" clip-rule="evenodd" d="M36.215 29.091C36.1197 28.9281 35.88 28.9281 35.7847 29.091L27.1115 43.9158C27.0167 44.0778 27.136 44.2798 27.3266 44.2798H44.6731C44.8636 44.2798 44.983 44.0778 44.8882 43.9158L36.215 29.091ZM36.6616 28.3437C36.3872 27.8732 35.6125 27.8732 35.338 28.3437L26.1607 44.0753C25.9111 44.5033 26.2696 45.0092 26.8225 45.0092H45.1772C45.7301 45.0092 46.0886 44.5033 45.839 44.0753L36.6616 28.3437Z" fill="#FEFCF9"/>
<path opacity="0.1" d="M39.596 33.8257L28.064 45.0092H45.0533C45.6062 45.0092 45.9647 44.5032 45.7151 44.0753L39.596 33.8257Z" fill="#FEFCF9"/>
</g>
<path d="M35.5 4V24.5M35.5 24.5L31 20M35.5 24.5L40 20" stroke="#B9B9B9" stroke-width="2" stroke-linecap="round" stroke-linejoin="round"/>
<path d="M102.5 4V24.5M102.5 24.5L98 20M102.5 24.5L107 20" stroke="#B9B9B9" stroke-width="2" stroke-linecap="round" stroke-linejoin="round"/>
<path d="M169.5 4V24.5M169.5 24.5L165 20M169.5 24.5L174 20" stroke="#B9B9B9" stroke-width="2" stroke-linecap="round" stroke-linejoin="round"/>
<path d="M235.5 4V24.5M235.5 24.5L231 20M235.5 24.5L240 20" stroke="#B9B9B9" stroke-width="2" stroke-linecap="round" stroke-linejoin="round"/>
<defs>
<clipPath id="clip0_363_15550">
<rect width="61" height="53" fill="white" transform="translate(139 10)"/>
</clipPath>
<clipPath id="clip1_363_15550">
<rect width="61" height="53" fill="white" transform="translate(139 10)"/>
</clipPath>
<clipPath id="clip2_363_15550">
<rect width="62" height="53" fill="white" transform="translate(205 10)"/>
</clipPath>
<clipPath id="clip3_363_15550">
<rect width="62" height="53" fill="white" transform="translate(205 10)"/>
</clipPath>
<clipPath id="clip4_363_15550">
<rect width="62" height="53" fill="white" transform="translate(72 10)"/>
</clipPath>
<clipPath id="clip5_363_15550">
<rect width="62" height="53" fill="white" transform="translate(72 10)"/>
</clipPath>
<clipPath id="clip6_363_15550">
<rect width="62" height="53" fill="white" transform="translate(5 10)"/>
</clipPath>
<clipPath id="clip7_363_15550">
<rect width="62" height="53" fill="white" transform="translate(5 10)"/>
</clipPath>
</defs>
</svg>
