<svg width="140" height="140" viewBox="0 0 140 140" fill="none" xmlns="http://www.w3.org/2000/svg">
<path fill-rule="evenodd" clip-rule="evenodd" d="M67.3128 106.845C68.8955 108.549 71.5922 108.548 73.1744 106.844L102.879 74.854C112.373 64.6286 112.373 48.05 102.879 37.8246C94.0631 28.3306 80.1649 27.6531 70.6238 35.7829C70.2247 36.123 69.6308 36.1192 69.2359 35.7742C59.7765 27.5087 45.8556 28.1177 37.0539 37.5967C27.6487 47.7256 27.6487 64.1479 37.0539 74.2768L67.3128 106.845Z" fill="#6BC6D0"/>
<path opacity="0.1" fill-rule="evenodd" clip-rule="evenodd" d="M70 36.0335C69.7287 36.05 69.4524 35.9634 69.2359 35.7742C59.7765 27.5087 45.8556 28.1177 37.0539 37.5967C27.6487 47.7256 27.6487 64.1479 37.0539 74.2768L67.3128 106.845C68.044 107.632 69.013 108.055 70 108.115V36.0335Z" fill="#FEFCF9"/>
<path fill-rule="evenodd" clip-rule="evenodd" d="M70.976 104.803L100.68 72.8127C109.106 63.7383 109.106 48.9403 100.68 39.8659C92.9564 31.5476 80.8853 30.9806 72.5695 38.0664C71.038 39.3714 68.7763 39.3565 67.2619 38.0333C59.0259 30.8367 46.9527 31.345 39.2523 39.638C30.9161 48.6157 30.9159 63.2569 39.2517 72.2348C39.2519 72.2351 39.2521 72.2353 39.2523 72.2355L69.5106 104.803C69.9063 105.229 70.5805 105.229 70.976 104.803ZM37.0539 74.2768C27.6487 64.1479 27.6487 47.7256 37.0539 37.5967C45.8556 28.1177 59.7765 27.5087 69.2359 35.7742C69.6308 36.1192 70.2247 36.123 70.6238 35.7829C80.1649 27.6531 94.0631 28.3306 102.879 37.8246C112.373 48.05 112.373 64.6286 102.879 74.854L73.1744 106.844C71.5922 108.548 68.8955 108.549 67.3128 106.845L37.0539 74.2768Z" fill="#FEFCF9"/>
</svg>
