<svg width="140" height="140" viewBox="0 0 140 140" fill="none" xmlns="http://www.w3.org/2000/svg">
<path fill-rule="evenodd" clip-rule="evenodd" d="M67.3128 106.845C68.8955 108.549 71.5922 108.548 73.1744 106.844L102.879 74.854C112.373 64.6286 112.373 48.05 102.879 37.8246C94.0631 28.3306 80.1649 27.6531 70.6238 35.7829C70.2247 36.123 69.6308 36.1192 69.2359 35.7742C59.7765 27.5087 45.8556 28.1177 37.0539 37.5967C27.6487 47.7256 27.6487 64.1479 37.0539 74.2768L67.3128 106.845Z" fill="#6BC6D0"/>
<g opacity="0.5">
<path d="M77.5648 32.4404C78.0226 32.7203 78.397 33.1179 78.6489 33.5916C78.9008 34.0654 79.021 34.5981 78.997 35.1341C78.973 35.6702 78.8057 36.19 78.5125 36.6394C78.2192 37.0888 77.8108 37.4513 77.3299 37.6891C76.8489 37.927 76.3129 38.0315 75.7778 37.9918C75.2427 37.952 74.728 37.7695 74.2875 37.4632C73.8469 37.1569 73.4965 36.738 73.2729 36.2502C73.0493 35.7625 72.9606 35.2236 73.0161 34.6899L76 35L77.5648 32.4404Z" fill="black"/>
<circle cx="76" cy="71" r="3" fill="black"/>
<circle cx="76" cy="44" r="3" fill="black"/>
<circle cx="76" cy="53" r="3" fill="black"/>
<circle cx="76" cy="62" r="3" fill="black"/>
<circle cx="76" cy="71" r="3" fill="black"/>
<circle cx="76" cy="89" r="3" fill="black"/>
<circle cx="76" cy="98" r="3" fill="black"/>
<circle cx="85" cy="35" r="3" fill="black"/>
<circle cx="85" cy="44" r="3" fill="black"/>
<circle cx="85" cy="53" r="3" fill="black"/>
<circle cx="85" cy="62" r="3" fill="black"/>
<circle cx="85" cy="71" r="3" fill="black"/>
<circle cx="85" cy="80" r="3" fill="black"/>
<circle cx="76" cy="80" r="3" fill="black"/>
<circle cx="85" cy="89" r="3" fill="black"/>
<path d="M96.835 34.0189C97.0291 34.5796 97.0525 35.1853 96.9023 35.7593C96.7522 36.3333 96.4351 36.8499 95.9914 37.2438C95.5476 37.6376 94.997 37.891 94.4092 37.972C93.8214 38.0529 93.2228 37.9577 92.6891 37.6984C92.1554 37.4392 91.7106 37.0274 91.4109 36.5154C91.1111 36.0033 90.97 35.4138 91.0053 34.8215C91.0406 34.2292 91.2508 33.6607 91.6092 33.1878C91.9676 32.715 92.4582 32.359 93.0189 32.165L94 35L96.835 34.0189Z" fill="black"/>
<circle cx="94" cy="44" r="3" fill="black"/>
<circle cx="94" cy="53" r="3" fill="black"/>
<circle cx="94" cy="62" r="3" fill="black"/>
<circle cx="94" cy="71" r="3" fill="black"/>
<circle cx="94" cy="80" r="3" fill="black"/>
<circle cx="103" cy="44" r="3" fill="black"/>
<circle cx="103" cy="53" r="3" fill="black"/>
<circle cx="103" cy="62" r="3" fill="black"/>
<path d="M101.638 73.6731C101.249 73.475 100.908 73.1944 100.639 72.8509C100.37 72.5074 100.179 72.1093 100.079 71.6844C99.9795 71.2594 99.9739 70.8178 100.063 70.3905C100.151 69.9631 100.332 69.5603 100.593 69.21C100.853 68.8597 101.187 68.5705 101.57 68.3625C101.954 68.1545 102.379 68.0328 102.814 68.0058C103.25 67.9787 103.686 68.0471 104.093 68.2061C104.499 68.365 104.866 68.6108 105.168 68.9262L103 71L101.638 73.6731Z" fill="black"/>
</g>
<path opacity="0.1" fill-rule="evenodd" clip-rule="evenodd" d="M70 36.0335C69.7287 36.05 69.4524 35.9634 69.2359 35.7742C59.7765 27.5087 45.8556 28.1177 37.0539 37.5967C27.6487 47.7256 27.6487 64.1479 37.0539 74.2768L67.3128 106.845C68.044 107.632 69.013 108.055 70 108.115V36.0335Z" fill="#FEFCF9"/>
<path fill-rule="evenodd" clip-rule="evenodd" d="M70.976 104.803L100.68 72.8127C109.106 63.7383 109.106 48.9403 100.68 39.8659C92.9564 31.5476 80.8853 30.9806 72.5695 38.0664C71.038 39.3714 68.7763 39.3565 67.2619 38.0333C59.0259 30.8367 46.9527 31.345 39.2523 39.638C30.9161 48.6157 30.9159 63.2569 39.2517 72.2348C39.2519 72.2351 39.2521 72.2353 39.2523 72.2355L69.5106 104.803C69.9063 105.229 70.5805 105.229 70.976 104.803ZM37.0539 74.2768C27.6487 64.1479 27.6487 47.7256 37.0539 37.5967C45.8556 28.1177 59.7765 27.5087 69.2359 35.7742C69.6308 36.1192 70.2247 36.123 70.6238 35.7829C80.1649 27.6531 94.0631 28.3306 102.879 37.8246C112.373 48.05 112.373 64.6286 102.879 74.854L73.1744 106.844C71.5922 108.548 68.8955 108.549 67.3128 106.845L37.0539 74.2768Z" fill="#FEFCF9"/>
</svg>
