<svg width="140" height="140" viewBox="0 0 140 140" fill="none" xmlns="http://www.w3.org/2000/svg">
<path fill-rule="evenodd" clip-rule="evenodd" d="M72.6869 106.845C71.1042 108.549 68.4075 108.548 66.8253 106.844L37.121 74.854C27.6263 64.6286 27.6263 48.05 37.1211 37.8246C45.9366 28.3306 59.8349 27.6531 69.3759 35.7829C69.7751 36.123 70.369 36.1192 70.7639 35.7742C80.2233 27.5087 94.1442 28.1177 102.946 37.5967C112.351 47.7256 112.351 64.1479 102.946 74.2768L72.6869 106.845Z" fill="#6BC6D0"/>
<g opacity="0.5">
<path d="M38.9998 40H35.9998V73H38.9998V40Z" fill="black"/>
<path d="M45.9998 34H42.9998V81H45.9998V34Z" fill="black"/>
<path d="M52.9998 32H49.9998V88H52.9998V32Z" fill="black"/>
<path d="M59.9998 32H56.9998V96H59.9998V32Z" fill="black"/>
<path d="M66.9998 35H63.9998V103H66.9998V35Z" fill="black"/>
</g>
<path opacity="0.1" fill-rule="evenodd" clip-rule="evenodd" d="M69.9998 36.0335C70.271 36.05 70.5473 35.9634 70.7639 35.7742C80.2233 27.5087 94.1442 28.1177 102.946 37.5967C112.351 47.7256 112.351 64.1479 102.946 74.2768L72.6869 106.845C71.9557 107.632 70.9868 108.055 69.9998 108.115V36.0335Z" fill="#FEFCF9"/>
<path fill-rule="evenodd" clip-rule="evenodd" d="M69.0237 104.803L39.3195 72.8127C30.8935 63.7383 30.8935 48.9403 39.3195 39.8659C47.0433 31.5476 59.1145 30.9806 67.4302 38.0664C68.9618 39.3714 71.2234 39.3565 72.7378 38.0333C80.9739 30.8367 93.0471 31.345 100.747 39.638C109.084 48.6157 109.084 63.2569 100.748 72.2348C100.748 72.2351 100.748 72.2353 100.747 72.2355L70.4891 104.803C70.0935 105.229 69.4193 105.229 69.0237 104.803ZM102.946 74.2768C112.351 64.1479 112.351 47.7256 102.946 37.5967C94.1442 28.1177 80.2233 27.5087 70.7639 35.7742C70.369 36.1192 69.7751 36.123 69.3759 35.7829C59.8349 27.6531 45.9366 28.3306 37.1211 37.8246C27.6263 48.05 27.6263 64.6286 37.121 74.854L66.8253 106.844C68.4075 108.548 71.1042 108.549 72.6869 106.845L102.946 74.2768Z" fill="#FEFCF9"/>
</svg>
