<svg width="140" height="140" viewBox="0 0 140 140" fill="none" xmlns="http://www.w3.org/2000/svg">
<path d="M50 53C50 41.9543 58.9543 33 70 33C81.0457 33 90 41.9543 90 53C90 59.1427 87.2308 64.6385 82.8726 68.3073C85.0866 67.4626 87.4893 67 90 67C101.046 67 110 75.9543 110 87C110 98.0457 101.046 107 90 107C78.9543 107 70 99.0457 70 88C70 99.0457 61.0457 107 50 107C38.9543 107 30 98.0457 30 87C30 75.9543 38.9543 67 50 67C52.5107 67 54.9134 67.4626 57.1274 68.3073C52.7692 64.6385 50 59.1427 50 53Z" fill="#F79898"/>
<path opacity="0.1" fill-rule="evenodd" clip-rule="evenodd" d="M70 33C58.9543 33 50 41.9543 50 53C50 59.1427 52.7692 64.6385 57.1274 68.3073C54.9134 67.4626 52.5107 67 50 67C38.9543 67 30 75.9543 30 87C30 90.5794 30.9403 93.9393 32.5874 96.8459L84.284 66.9989C87.8198 63.3915 90 58.4503 90 53C90 41.9543 81.0457 33 70 33Z" fill="#FEFCF9"/>
<path fill-rule="evenodd" clip-rule="evenodd" d="M80.2874 69.8293C79.5448 68.568 79.8208 66.9549 80.9406 66.0123C84.6506 62.8891 87 58.2204 87 53C87 43.6112 79.3888 36 70 36C60.6112 36 53 43.6112 53 53C53 58.2204 55.3494 62.8891 59.0594 66.0123C60.1792 66.9549 60.4552 68.568 59.7126 69.8293C58.97 71.0907 57.4256 71.632 56.058 71.1103C54.1802 70.3938 52.1396 70 50 70C40.6112 70 33 77.6112 33 87C33 96.3888 40.6112 104 50 104C59.5947 104 67 97.1902 67 88C67 86.3431 68.3431 85 70 85C71.6569 85 73 86.3431 73 88C73 97.1902 80.4053 104 90 104C99.3888 104 107 96.3888 107 87C107 77.6112 99.3888 70 90 70C87.8604 70 85.8198 70.3938 83.942 71.1103C82.5744 71.632 81.03 71.0907 80.2874 69.8293ZM71.6252 95.7489C70.5794 93.4193 70 90.8097 70 88C70 90.8097 69.4206 93.4193 68.3748 95.7489C65.3093 102.578 58.236 107 50 107C38.9543 107 30 98.0457 30 87C30 75.9543 38.9543 67 50 67C50.6112 67 51.216 67.0274 51.8133 67.0811C53.6694 67.2479 55.4524 67.6683 57.1274 68.3073C55.732 67.1327 54.4996 65.7708 53.4687 64.2603C51.2799 61.053 50 57.176 50 53C50 41.9543 58.9543 33 70 33C81.0457 33 90 41.9543 90 53C90 57.176 88.7201 61.053 86.5313 64.2603C85.5004 65.7708 84.268 67.1327 82.8726 68.3073C84.5476 67.6683 86.3306 67.2479 88.1867 67.0811C88.784 67.0274 89.3888 67 90 67C101.046 67 110 75.9543 110 87C110 98.0457 101.046 107 90 107C81.764 107 74.6907 102.578 71.6252 95.7489Z" fill="#FEFCF9"/>
</svg>
