<svg width="140" height="140" viewBox="0 0 140 140" fill="none" xmlns="http://www.w3.org/2000/svg">
<path d="M50 53C50 41.9543 58.9543 33 70 33C81.0457 33 90 41.9543 90 53C90 59.1427 87.2308 64.6385 82.8726 68.3073C85.0866 67.4626 87.4893 67 90 67C101.046 67 110 75.9543 110 87C110 98.0457 101.046 107 90 107C78.9543 107 70 99.0457 70 88C70 99.0457 61.0457 107 50 107C38.9543 107 30 98.0457 30 87C30 75.9543 38.9543 67 50 67C52.5107 67 54.9134 67.4626 57.1274 68.3073C52.7692 64.6385 50 59.1427 50 53Z" fill="#F79898"/>
<g opacity="0.5">
<path d="M97.2042 69.6842C96.8717 70.2181 96.3798 70.6339 95.798 70.8729C95.2162 71.112 94.5741 71.1622 93.9623 71.0163C93.3504 70.8705 92.7999 70.5361 92.3885 70.0603C91.9771 69.5846 91.7257 68.9916 91.6697 68.3651L94.6578 68.0981L97.2042 69.6842Z" fill="black"/>
<circle cx="63.4808" cy="86.0981" r="3" transform="rotate(60 63.4808 86.0981)" fill="black"/>
<circle cx="86.8636" cy="72.5981" r="3" transform="rotate(60 86.8636 72.5981)" fill="black"/>
<circle cx="79.0694" cy="77.0981" r="3" transform="rotate(60 79.0694 77.0981)" fill="black"/>
<circle cx="71.2752" cy="81.5981" r="3" transform="rotate(60 71.2752 81.5981)" fill="black"/>
<circle cx="63.4808" cy="86.0981" r="3" transform="rotate(60 63.4808 86.0981)" fill="black"/>
<circle cx="47.8924" cy="95.0981" r="3" transform="rotate(60 47.8924 95.0981)" fill="black"/>
<circle cx="40.0982" cy="99.5981" r="3" transform="rotate(60 40.0982 99.5981)" fill="black"/>
<circle cx="99.1578" cy="75.8923" r="3" transform="rotate(60 99.1578 75.8923)" fill="black"/>
<circle cx="91.3636" cy="80.3923" r="3" transform="rotate(60 91.3636 80.3923)" fill="black"/>
<circle cx="83.5694" cy="84.8923" r="3" transform="rotate(60 83.5694 84.8923)" fill="black"/>
<circle cx="75.7752" cy="89.3923" r="3" transform="rotate(60 75.7752 89.3923)" fill="black"/>
<path d="M67.2043 96.7901C66.8238 96.6881 66.4671 96.5122 66.1545 96.2724C65.8419 96.0325 65.5797 95.7335 65.3827 95.3923C65.1857 95.0511 65.0579 94.6745 65.0064 94.2839C64.955 93.8933 64.981 93.4964 65.083 93.1158C65.185 92.7353 65.3609 92.3786 65.6007 92.066C65.8406 91.7535 66.1396 91.4912 66.4808 91.2942C66.822 91.0972 67.1986 90.9694 67.5892 90.918C67.9798 90.8665 68.3767 90.8926 68.7572 90.9945L67.9808 93.8923L67.2043 96.7901Z" fill="black"/>
<circle cx="60.1866" cy="98.3923" r="3" transform="rotate(60 60.1866 98.3923)" fill="black"/>
<circle cx="55.6866" cy="90.5981" r="3" transform="rotate(60 55.6866 90.5981)" fill="black"/>
<circle cx="52.3924" cy="102.892" r="3" transform="rotate(60 52.3924 102.892)" fill="black"/>
<circle cx="103.658" cy="83.6865" r="3" transform="rotate(60 103.658 83.6865)" fill="black"/>
<circle cx="95.8636" cy="88.1865" r="3" transform="rotate(60 95.8636 88.1865)" fill="black"/>
<circle cx="88.0694" cy="92.6865" r="3" transform="rotate(60 88.0694 92.6865)" fill="black"/>
<circle cx="80.2752" cy="97.1865" r="3" transform="rotate(60 80.2752 97.1865)" fill="black"/>
<path d="M107.381 94.3785C106.613 94.1726 105.958 93.6698 105.56 92.9808C105.162 92.2917 105.054 91.4728 105.26 90.7043C105.466 89.9358 105.969 89.2805 106.658 88.8827C107.347 88.4849 108.166 88.3771 108.934 88.583L108.158 91.4808L107.381 94.3785Z" fill="black"/>
<circle cx="100.364" cy="95.9808" r="3" transform="rotate(60 100.364 95.9808)" fill="black"/>
<circle cx="92.5694" cy="100.481" r="3" transform="rotate(60 92.5694 100.481)" fill="black"/>
<path d="M81.8774 104.204C81.9794 103.824 82.1553 103.467 82.3952 103.154C82.635 102.842 82.934 102.58 83.2752 102.383C83.6164 102.186 83.993 102.058 84.3836 102.006C84.7742 101.955 85.1711 101.981 85.5517 102.083C85.9322 102.185 86.2889 102.361 86.6015 102.601C86.9141 102.841 87.1763 103.14 87.3733 103.481C87.5703 103.822 87.6981 104.199 87.7495 104.589C87.801 104.98 87.775 105.377 87.673 105.757L84.7752 104.981L81.8774 104.204Z" fill="black"/>
</g>
<path opacity="0.1" fill-rule="evenodd" clip-rule="evenodd" d="M70 33C58.9543 33 50 41.9543 50 53C50 59.1427 52.7692 64.6385 57.1274 68.3073C54.9134 67.4626 52.5107 67 50 67C38.9543 67 30 75.9543 30 87C30 90.5794 30.9403 93.9393 32.5874 96.8459L84.284 66.9989C87.8198 63.3915 90 58.4503 90 53C90 41.9543 81.0457 33 70 33Z" fill="#FEFCF9"/>
<path fill-rule="evenodd" clip-rule="evenodd" d="M80.2874 69.8293C79.5448 68.568 79.8208 66.9549 80.9406 66.0123C84.6506 62.8891 87 58.2204 87 53C87 43.6112 79.3888 36 70 36C60.6112 36 53 43.6112 53 53C53 58.2204 55.3494 62.8891 59.0594 66.0123C60.1792 66.9549 60.4552 68.568 59.7126 69.8293C58.97 71.0907 57.4256 71.632 56.058 71.1103C54.1802 70.3938 52.1396 70 50 70C40.6112 70 33 77.6112 33 87C33 96.3888 40.6112 104 50 104C59.5947 104 67 97.1902 67 88C67 86.3431 68.3431 85 70 85C71.6569 85 73 86.3431 73 88C73 97.1902 80.4053 104 90 104C99.3888 104 107 96.3888 107 87C107 77.6112 99.3888 70 90 70C87.8604 70 85.8198 70.3938 83.942 71.1103C82.5744 71.632 81.03 71.0907 80.2874 69.8293ZM71.6252 95.7489C70.5794 93.4193 70 90.8097 70 88C70 90.8097 69.4206 93.4193 68.3748 95.7489C65.3093 102.578 58.236 107 50 107C38.9543 107 30 98.0457 30 87C30 75.9543 38.9543 67 50 67C50.6112 67 51.216 67.0274 51.8133 67.0811C53.6694 67.2479 55.4524 67.6683 57.1274 68.3073C55.732 67.1327 54.4996 65.7708 53.4687 64.2603C51.2799 61.053 50 57.176 50 53C50 41.9543 58.9543 33 70 33C81.0457 33 90 41.9543 90 53C90 57.176 88.7201 61.053 86.5313 64.2603C85.5004 65.7708 84.268 67.1327 82.8726 68.3073C84.5476 67.6683 86.3306 67.2479 88.1867 67.0811C88.784 67.0274 89.3888 67 90 67C101.046 67 110 75.9543 110 87C110 98.0457 101.046 107 90 107C81.764 107 74.6907 102.578 71.6252 95.7489Z" fill="#FEFCF9"/>
</svg>
