<svg width="140" height="140" viewBox="0 0 140 140" fill="none" xmlns="http://www.w3.org/2000/svg">
<path d="M110 70C110 92.0914 92.0914 110 70 110C47.9086 110 30 92.0914 30 70C30 47.9086 47.9086 30 70 30C92.0914 30 110 47.9086 110 70Z" fill="#00B594"/>
<path fill-rule="evenodd" clip-rule="evenodd" d="M70 107C90.4345 107 107 90.4345 107 70C107 49.5655 90.4345 33 70 33C49.5655 33 33 49.5655 33 70C33 90.4345 49.5655 107 70 107ZM70 110C92.0914 110 110 92.0914 110 70C110 47.9086 92.0914 30 70 30C47.9086 30 30 47.9086 30 70C30 92.0914 47.9086 110 70 110Z" fill="#FEFCF9"/>
<path opacity="0.1" d="M33 69.7483C33 49.5899 49.3416 33 69.5 33L82 107H70C49.5655 107 33 90.1828 33 69.7483Z" fill="#FEFCF9"/>
</svg>
