<svg width="140" height="140" viewBox="0 0 140 140" fill="none" xmlns="http://www.w3.org/2000/svg">
<path d="M110 70C110 92.0914 92.0914 110 70 110C47.9086 110 30 92.0914 30 70C30 47.9086 47.9086 30 70 30C92.0914 30 110 47.9086 110 70Z" fill="#00B594"/>
<g opacity="0.5">
<path d="M100 48.2224H103V86.7583V90.5H101L100.5 89.9668L100 89.4336V48.2224Z" fill="black"/>
<path d="M93 41H96V80.1944V85.3203L93 82.2266V41Z" fill="black"/>
<path d="M86 36.1445H89V73.287V78.1445L86 75.0508V36.1445Z" fill="black"/>
<path d="M79 33H82V66.6051V70.9414L79 67.8565V33Z" fill="black"/>
<path d="M72 31H75V59.299V63.7227L72 60.6367V31Z" fill="black"/>
<path d="M65 31H68V53.1086V56.5234L65 53.457V31Z" fill="black"/>
<path d="M58 33.3164H61V47.4659V49.3164L58 46.2782V33.3164Z" fill="black"/>
<path d="M51 35.125H54V41.3154V42.125L51 39.0469V35.125Z" fill="black"/>
</g>
<path fill-rule="evenodd" clip-rule="evenodd" d="M70 107C90.4345 107 107 90.4345 107 70C107 49.5655 90.4345 33 70 33C49.5655 33 33 49.5655 33 70C33 90.4345 49.5655 107 70 107ZM70 110C92.0914 110 110 92.0914 110 70C110 47.9086 92.0914 30 70 30C47.9086 30 30 47.9086 30 70C30 92.0914 47.9086 110 70 110Z" fill="#FEFCF9"/>
<path opacity="0.1" d="M30.3491 72.8329C29.2236 58.3264 36.7381 44.4886 49.5 37.5L102.5 92L82 108L66.5393 107.684C47.5085 107.296 31.8775 92.532 30.4051 73.5543L30.3491 72.8329Z" fill="#FEFCF9"/>
</svg>
