<svg width="250" height="218" viewBox="0 0 250 218" fill="none" xmlns="http://www.w3.org/2000/svg">
<g clip-path="url(#clip0_344_7218)">
<path d="M70.3011 58.7619C90.4754 33.1931 115.3 31.1045 109.493 2.15077C140.163 -10.0854 198.826 33.0017 225.135 52.9556C247.192 69.6841 238.855 83.3229 249.5 93C253.371 133.644 206.265 195.693 206.265 195.693C206.265 195.693 105.139 242.144 18.0446 199.564C33.0441 154.566 41.2013 95.6428 70.3011 58.7619Z" fill="#71957B"/>
<path d="M70.3009 58.7624C90.4752 33.1936 216.284 169.972 210.478 141.018C230.8 148.276 226.174 157.953 226.174 166.179C215.867 183.403 206.265 195.694 206.265 195.694C206.265 195.694 105.138 242.144 18.0443 199.565C33.0439 154.566 41.2011 95.6433 70.3009 58.7624Z" fill="#648F78"/>
<path d="M109.493 2.15125C146.75 49.0858 51.9143 97.9549 18.0443 199.565C3.35565 180.33 -13.886 68.9235 18.0442 51.0208C50.9508 30.2149 67.7799 10.6012 109.493 2.15125Z" fill="#86A489"/>
<path d="M33.0441 71.3428C43.2051 61.6657 82.1461 28.736 112.397 16.6668C143.066 4.4306 191.608 39.4082 215.458 54.8912C259.532 109.65 239.767 130.302 188.846 178.759C140.389 224.871 22.3993 188.436 22.3993 179.726C22.399 132.748 12.2383 104.245 33.0441 71.3428Z" fill="#95B698"/>
<path d="M116.268 15.6994C116.268 15.6994 110.21 7.26382 109.494 2.15137C112.361 3.6851 119.171 10.8608 119.655 14.7316C117.719 15.2155 116.268 15.6994 116.268 15.6994Z" fill="#A4A4A4"/>
<path d="M20.9478 82.9553C23.3672 72.7943 95.1392 16.8282 119.655 14.7315C94.0102 27.6344 37.399 66.2139 25.7864 84.4069C16.2372 99.3672 20.9477 153.598 23.8509 179.243C25.0498 184.99 32.5603 186.017 37.8827 188.436C37.8827 188.436 30.6249 187.468 25.3024 185.049C22.8832 183.114 18.0448 199.565 18.0448 199.565C16.275 197.138 22.166 191.443 21.9154 178.759C21.3668 150.985 13.7463 113.201 20.9478 82.9553Z" fill="#DDDDDD"/>
<path d="M226.103 167.145C226.103 129.393 209.652 163.759 187.395 180.21C192.717 175.371 210.619 153.114 225.135 138.598C240.397 123.336 239.651 98.9218 239.651 98.9218C239.651 98.9218 240.695 109.034 239.651 115.373C237.382 129.156 222.716 144.888 222.716 144.888C226.165 153.827 230.942 153.114 226.103 167.145Z" fill="#DDDDDD"/>
</g>
<defs>
<clipPath id="clip0_344_7218">
<rect width="250" height="218" fill="white"/>
</clipPath>
</defs>
</svg>
